<ttFont>
    <TTGlyph name="A" xMin="19" yMin="-105" xMax="595" yMax="705">
      <contour>
        <pt x="595" y="-80" on="1"/>
        <pt x="579" y="-89" on="0"/>
        <pt x="545" y="-101" on="0"/>
        <pt x="518" y="-105" on="1"/>
        <pt x="503" y="-2" on="0"/>
        <pt x="473" y="154" on="0"/>
        <pt x="457" y="219" on="1"/>
        <pt x="386" y="220" on="0"/>
        <pt x="250" y="211" on="0"/>
        <pt x="191" y="202" on="1"/>
        <pt x="170" y="150" on="0"/>
        <pt x="119" y="40" on="0"/>
        <pt x="88" y="-21" on="1"/>
        <pt x="69" y="-17" on="0"/>
        <pt x="35" y="0" on="0"/>
        <pt x="19" y="15" on="1"/>
        <pt x="108" y="172" on="0"/>
        <pt x="221" y="473" on="0"/>
        <pt x="274" y="705" on="1"/>
        <pt x="301" y="704" on="0"/>
        <pt x="337" y="700" on="0"/>
        <pt x="354" y="696" on="1"/>
        <pt x="452" y="506" on="0"/>
        <pt x="559" y="160" on="0"/>
      </contour>
      <contour>
        <pt x="316" y="611" on="1"/>
        <pt x="292" y="506" on="0"/>
        <pt x="243" y="337" on="0"/>
        <pt x="214" y="261" on="1"/>
        <pt x="262" y="268" on="0"/>
        <pt x="376" y="277" on="0"/>
        <pt x="442" y="279" on="1"/>
        <pt x="417" y="367" on="0"/>
        <pt x="357" y="527" on="0"/>
      </contour>
    </TTGlyph>
    <TTGlyph name="AE" xMin="21" yMin="-44" xMax="781" yMax="731">
      <contour>
        <pt x="780" y="-16" on="1"/>
        <pt x="694" y="-28" on="0"/>
        <pt x="518" y="-42" on="0"/>
        <pt x="426" y="-44" on="1"/>
        <pt x="418" y="10" on="0"/>
        <pt x="403" y="128" on="0"/>
        <pt x="395" y="198" on="1"/>
        <pt x="344" y="197" on="0"/>
        <pt x="242" y="187" on="0"/>
        <pt x="197" y="179" on="1"/>
        <pt x="174" y="130" on="0"/>
        <pt x="120" y="28" on="0"/>
        <pt x="89" y="-26" on="1"/>
        <pt x="68" y="-21" on="0"/>
        <pt x="35" y="-2" on="0"/>
        <pt x="21" y="12" on="1"/>
        <pt x="120" y="173" on="0"/>
        <pt x="246" y="477" on="0"/>
        <pt x="304" y="699" on="1"/>
        <pt x="316" y="699" on="0"/>
        <pt x="343" y="695" on="0"/>
        <pt x="371" y="689" on="1"/>
        <pt x="499" y="712" on="0"/>
        <pt x="663" y="729" on="0"/>
        <pt x="756" y="731" on="1"/>
        <pt x="757" y="714" on="0"/>
        <pt x="754" y="682" on="0"/>
        <pt x="751" y="666" on="1"/>
        <pt x="670" y="666" on="0"/>
        <pt x="520" y="654" on="0"/>
        <pt x="444" y="641" on="1"/>
        <pt x="443" y="571" on="0"/>
        <pt x="447" y="444" on="0"/>
        <pt x="451" y="379" on="1"/>
        <pt x="553" y="397" on="0"/>
        <pt x="654" y="411" on="0"/>
        <pt x="705" y="415" on="1"/>
        <pt x="709" y="397" on="0"/>
        <pt x="712" y="367" on="0"/>
        <pt x="711" y="352" on="1"/>
        <pt x="643" y="348" on="0"/>
        <pt x="534" y="335" on="0"/>
        <pt x="456" y="322" on="1"/>
        <pt x="461" y="256" on="0"/>
        <pt x="479" y="98" on="0"/>
        <pt x="491" y="16" on="1"/>
        <pt x="574" y="19" on="0"/>
        <pt x="712" y="35" on="0"/>
        <pt x="775" y="48" on="1"/>
        <pt x="778" y="36" on="0"/>
        <pt x="781" y="-1" on="0"/>
      </contour>
      <contour>
        <pt x="361" y="636" on="1"/>
        <pt x="332" y="527" on="0"/>
        <pt x="265" y="334" on="0"/>
        <pt x="224" y="240" on="1"/>
        <pt x="261" y="246" on="0"/>
        <pt x="343" y="254" on="0"/>
        <pt x="389" y="256" on="1"/>
        <pt x="378" y="363" on="0"/>
        <pt x="364" y="557" on="0"/>
      </contour>
    </TTGlyph>
    <TTGlyph name="Aacute" xMin="19" yMin="-105" xMax="595" yMax="926">
      <component glyphName="A" x="0" y="0" flags="0x204"/>
      <component glyphName="acute" x="223" y="176" flags="0x4"/>
    </TTGlyph>
    <TTGlyph name="Abreve" xMin="19" yMin="-105" xMax="595" yMax="885">
      <component glyphName="A" x="0" y="0" flags="0x204"/>
      <component glyphName="breve" x="183" y="146" flags="0x4"/>
    </TTGlyph>
    <TTGlyph name="Acircumflex" xMin="19" yMin="-105" xMax="595" yMax="900">
      <component glyphName="A" x="0" y="0" flags="0x204"/>
      <component glyphName="circumflex" x="190" y="160" flags="0x4"/>
    </TTGlyph>
    <TTGlyph name="Adieresis" xMin="19" yMin="-105" xMax="595" yMax="874">
      <component glyphName="A" x="0" y="0" flags="0x204"/>
      <component glyphName="dieresis" x="189" y="128" flags="0x4"/>
    </TTGlyph>
    <TTGlyph name="Agrave" xMin="19" yMin="-105" xMax="595" yMax="928">
      <component glyphName="A" x="0" y="0" flags="0x204"/>
      <component glyphName="grave" x="155" y="175" flags="0x4"/>
    </TTGlyph>
    <TTGlyph name="Amacron" xMin="19" yMin="-105" xMax="595" yMax="829">
      <component glyphName="A" x="0" y="0" flags="0x204"/>
      <component glyphName="macron" x="183" y="128" flags="0x4"/>
    </TTGlyph>
    <TTGlyph name="Aogonek" xMin="19" yMin="-290" xMax="635" yMax="705">
      <contour>
        <pt x="635" y="-232" on="1"/>
        <pt x="615" y="-262" on="0"/>
        <pt x="566" y="-290" on="0"/>
        <pt x="535" y="-290" on="1"/>
        <pt x="498" y="-290" on="0"/>
        <pt x="454" y="-249" on="0"/>
        <pt x="454" y="-215" on="1"/>
        <pt x="454" y="-185" on="0"/>
        <pt x="485" y="-128" on="0"/>
        <pt x="517" y="-101" on="1"/>
        <pt x="503" y="-3" on="0"/>
        <pt x="473" y="153" on="0"/>
        <pt x="457" y="219" on="1"/>
        <pt x="386" y="220" on="0"/>
        <pt x="250" y="211" on="0"/>
        <pt x="191" y="202" on="1"/>
        <pt x="170" y="150" on="0"/>
        <pt x="119" y="40" on="0"/>
        <pt x="88" y="-21" on="1"/>
        <pt x="69" y="-17" on="0"/>
        <pt x="35" y="0" on="0"/>
        <pt x="19" y="15" on="1"/>
        <pt x="108" y="172" on="0"/>
        <pt x="221" y="473" on="0"/>
        <pt x="274" y="705" on="1"/>
        <pt x="301" y="704" on="0"/>
        <pt x="337" y="700" on="0"/>
        <pt x="354" y="696" on="1"/>
        <pt x="452" y="506" on="0"/>
        <pt x="559" y="160" on="0"/>
        <pt x="595" y="-80" on="1"/>
        <pt x="589" y="-84" on="0"/>
        <pt x="583" y="-87" on="0"/>
        <pt x="580" y="-88" on="1"/>
        <pt x="547" y="-118" on="0"/>
        <pt x="517" y="-171" on="0"/>
        <pt x="517" y="-199" on="1"/>
        <pt x="517" y="-218" on="0"/>
        <pt x="534" y="-237" on="0"/>
        <pt x="551" y="-237" on="1"/>
        <pt x="569" y="-237" on="0"/>
        <pt x="597" y="-216" on="0"/>
        <pt x="610" y="-193" on="1"/>
        <pt x="618" y="-200" on="0"/>
        <pt x="630" y="-218" on="0"/>
      </contour>
      <contour>
        <pt x="316" y="611" on="1"/>
        <pt x="292" y="506" on="0"/>
        <pt x="243" y="337" on="0"/>
        <pt x="214" y="261" on="1"/>
        <pt x="262" y="268" on="0"/>
        <pt x="376" y="277" on="0"/>
        <pt x="442" y="279" on="1"/>
        <pt x="417" y="367" on="0"/>
        <pt x="357" y="527" on="0"/>
      </contour>
    </TTGlyph>
    <TTGlyph name="Aring" xMin="19" yMin="-105" xMax="595" yMax="931">
      <component glyphName="A" x="0" y="0" flags="0x204"/>
      <component glyphName="ring" x="195" y="166" flags="0x4"/>
    </TTGlyph>
    <TTGlyph name="Atilde" xMin="19" yMin="-105" xMax="595" yMax="841">
      <component glyphName="A" x="0" y="0" flags="0x204"/>
      <component glyphName="tilde" x="183" y="109" flags="0x4"/>
    </TTGlyph>
    <TTGlyph name="B" xMin="72" yMin="-20" xMax="534" yMax="740">
      <contour>
        <pt x="534" y="259" on="1"/>
        <pt x="534" y="143" on="0"/>
        <pt x="353" y="-20" on="0"/>
        <pt x="223" y="-20" on="1"/>
        <pt x="187" y="-20" on="0"/>
        <pt x="113" y="0" on="0"/>
        <pt x="87" y="16" on="1"/>
        <pt x="79" y="183" on="0"/>
        <pt x="73" y="408" on="0"/>
        <pt x="73" y="538" on="1"/>
        <pt x="73" y="550" on="0"/>
        <pt x="73" y="577" on="0"/>
        <pt x="73" y="606" on="1"/>
        <pt x="72" y="642" on="0"/>
        <pt x="72" y="682" on="0"/>
        <pt x="72" y="701" on="1"/>
        <pt x="113" y="720" on="0"/>
        <pt x="205" y="740" on="0"/>
        <pt x="252" y="740" on="1"/>
        <pt x="362" y="740" on="0"/>
        <pt x="484" y="654" on="0"/>
        <pt x="484" y="577" on="1"/>
        <pt x="484" y="524" on="0"/>
        <pt x="426" y="444" on="0"/>
        <pt x="369" y="417" on="1"/>
        <pt x="450" y="405" on="0"/>
        <pt x="534" y="324" on="0"/>
      </contour>
      <contour>
        <pt x="404" y="568" on="1"/>
        <pt x="404" y="624" on="0"/>
        <pt x="326" y="685" on="0"/>
        <pt x="253" y="685" on="1"/>
        <pt x="230" y="685" on="0"/>
        <pt x="182" y="678" on="0"/>
        <pt x="158" y="672" on="1"/>
        <pt x="153" y="615" on="0"/>
        <pt x="149" y="492" on="0"/>
        <pt x="149" y="406" on="1"/>
        <pt x="281" y="418" on="0"/>
        <pt x="404" y="495" on="0"/>
      </contour>
      <contour>
        <pt x="155" y="53" on="1"/>
        <pt x="173" y="45" on="0"/>
        <pt x="213" y="36" on="0"/>
        <pt x="233" y="36" on="1"/>
        <pt x="323" y="36" on="0"/>
        <pt x="453" y="158" on="0"/>
        <pt x="453" y="240" on="1"/>
        <pt x="453" y="306" on="0"/>
        <pt x="377" y="371" on="0"/>
        <pt x="299" y="371" on="1"/>
        <pt x="265" y="371" on="0"/>
        <pt x="181" y="356" on="0"/>
        <pt x="149" y="344" on="1"/>
        <pt x="149" y="323" on="0"/>
        <pt x="149" y="280" on="0"/>
        <pt x="149" y="258" on="1"/>
        <pt x="149" y="198" on="0"/>
        <pt x="152" y="101" on="0"/>
      </contour>
    </TTGlyph>
    <TTGlyph name="C" xMin="46" yMin="-35" xMax="492" yMax="693">
      <contour>
        <pt x="424" y="222" on="1"/>
        <pt x="443" y="223" on="0"/>
        <pt x="474" y="217" on="0"/>
        <pt x="489" y="209" on="1"/>
        <pt x="483" y="89" on="0"/>
        <pt x="373" y="-35" on="0"/>
        <pt x="274" y="-35" on="1"/>
        <pt x="165" y="-35" on="0"/>
        <pt x="46" y="129" on="0"/>
        <pt x="46" y="281" on="1"/>
        <pt x="46" y="465" on="0"/>
        <pt x="199" y="693" on="0"/>
        <pt x="323" y="693" on="1"/>
        <pt x="410" y="693" on="0"/>
        <pt x="492" y="580" on="0"/>
        <pt x="489" y="465" on="1"/>
        <pt x="475" y="456" on="0"/>
        <pt x="436" y="447" on="0"/>
        <pt x="411" y="448" on="1"/>
        <pt x="418" y="547" on="0"/>
        <pt x="370" y="635" on="0"/>
        <pt x="309" y="635" on="1"/>
        <pt x="234" y="635" on="0"/>
        <pt x="130" y="447" on="0"/>
        <pt x="130" y="298" on="1"/>
        <pt x="130" y="165" on="0"/>
        <pt x="210" y="23" on="0"/>
        <pt x="285" y="23" on="1"/>
        <pt x="353" y="23" on="0"/>
        <pt x="427" y="130" on="0"/>
      </contour>
    </TTGlyph>
    <TTGlyph name="Cacute" xMin="46" yMin="-35" xMax="492" yMax="930">
      <component glyphName="C" x="0" y="0" flags="0x204"/>
      <component glyphName="acute" x="224" y="180" flags="0x4"/>
    </TTGlyph>
    <TTGlyph name="Ccaron" xMin="46" yMin="-35" xMax="492" yMax="897">
      <component glyphName="C" x="0" y="0" flags="0x204"/>
      <component glyphName="caron" x="190" y="160" flags="0x4"/>
    </TTGlyph>
    <TTGlyph name="Ccedilla" xMin="46" yMin="-249" xMax="492" yMax="693">
      <component glyphName="C" x="0" y="0" flags="0x204"/>
      <component glyphName="cedilla" x="150" y="-24" flags="0x4"/>
    </TTGlyph>
    <TTGlyph name="D" xMin="64" yMin="-11" xMax="535" yMax="717">
      <contour>
        <pt x="535" y="444" on="1"/>
        <pt x="535" y="292" on="0"/>
        <pt x="325" y="44" on="0"/>
        <pt x="148" y="-11" on="1"/>
        <pt x="141" y="-11" on="0"/>
        <pt x="87" y="-5" on="0"/>
        <pt x="80" y="-3" on="1"/>
        <pt x="71" y="157" on="0"/>
        <pt x="64" y="392" on="0"/>
        <pt x="64" y="508" on="1"/>
        <pt x="64" y="549" on="0"/>
        <pt x="66" y="640" on="0"/>
        <pt x="67" y="675" on="1"/>
        <pt x="110" y="696" on="0"/>
        <pt x="202" y="717" on="0"/>
        <pt x="255" y="717" on="1"/>
        <pt x="392" y="717" on="0"/>
        <pt x="535" y="577" on="0"/>
      </contour>
      <contour>
        <pt x="152" y="643" on="1"/>
        <pt x="147" y="557" on="0"/>
        <pt x="142" y="410" on="0"/>
        <pt x="142" y="229" on="1"/>
        <pt x="142" y="177" on="0"/>
        <pt x="143" y="92" on="0"/>
        <pt x="145" y="49" on="1"/>
        <pt x="297" y="107" on="0"/>
        <pt x="453" y="308" on="0"/>
        <pt x="453" y="446" on="1"/>
        <pt x="453" y="550" on="0"/>
        <pt x="344" y="659" on="0"/>
        <pt x="240" y="659" on="1"/>
        <pt x="218" y="659" on="0"/>
        <pt x="175" y="651" on="0"/>
      </contour>
    </TTGlyph>
    <TTGlyph name="Dcaron" xMin="64" yMin="-11" xMax="535" yMax="918">
      <component glyphName="D" x="0" y="0" flags="0x204"/>
      <component glyphName="caron" x="131" y="181" flags="0x4"/>
    </TTGlyph>
    <TTGlyph name="Dcroat" xMin="-26" yMin="-11" xMax="535" yMax="717">
      <component glyphName="Eth" x="0" y="0" flags="0x204"/>
    </TTGlyph>
    <TTGlyph name="E" xMin="58" yMin="-41" xMax="482" yMax="735">
      <contour>
        <pt x="480" y="-13" on="1"/>
        <pt x="401" y="-25" on="0"/>
        <pt x="228" y="-38" on="0"/>
        <pt x="126" y="-41" on="1"/>
        <pt x="97" y="151" on="0"/>
        <pt x="60" y="548" on="0"/>
        <pt x="58" y="691" on="1"/>
        <pt x="197" y="715" on="0"/>
        <pt x="365" y="733" on="0"/>
        <pt x="457" y="735" on="1"/>
        <pt x="457" y="717" on="0"/>
        <pt x="454" y="684" on="0"/>
        <pt x="451" y="670" on="1"/>
        <pt x="369" y="669" on="0"/>
        <pt x="218" y="656" on="0"/>
        <pt x="145" y="644" on="1"/>
        <pt x="143" y="584" on="0"/>
        <pt x="147" y="456" on="0"/>
        <pt x="152" y="382" on="1"/>
        <pt x="248" y="399" on="0"/>
        <pt x="353" y="414" on="0"/>
        <pt x="405" y="418" on="1"/>
        <pt x="409" y="404" on="0"/>
        <pt x="412" y="374" on="0"/>
        <pt x="411" y="356" on="1"/>
        <pt x="335" y="350" on="0"/>
        <pt x="224" y="337" on="0"/>
        <pt x="156" y="326" on="1"/>
        <pt x="163" y="244" on="0"/>
        <pt x="180" y="90" on="0"/>
        <pt x="191" y="20" on="1"/>
        <pt x="274" y="22" on="0"/>
        <pt x="411" y="38" on="0"/>
        <pt x="475" y="52" on="1"/>
        <pt x="479" y="38" on="0"/>
        <pt x="482" y="0" on="0"/>
      </contour>
    </TTGlyph>
    <TTGlyph name="Eacute" xMin="58" yMin="-41" xMax="482" yMax="938">
      <component glyphName="E" x="0" y="0" flags="0x204"/>
      <component glyphName="acute" x="132" y="188" flags="0x4"/>
    </TTGlyph>
    <TTGlyph name="Ecaron" xMin="58" yMin="-41" xMax="482" yMax="934">
      <component glyphName="E" x="0" y="0" flags="0x204"/>
      <component glyphName="caron" x="127" y="197" flags="0x4"/>
    </TTGlyph>
    <TTGlyph name="Ecircumflex" xMin="58" yMin="-41" xMax="482" yMax="923">
      <component glyphName="E" x="0" y="0" flags="0x204"/>
      <component glyphName="circumflex" x="129" y="183" flags="0x4"/>
    </TTGlyph>
    <TTGlyph name="Edieresis" xMin="58" yMin="-41" xMax="482" yMax="897">
      <component glyphName="E" x="0" y="0" flags="0x204"/>
      <component glyphName="dieresis" x="129" y="151" flags="0x4"/>
    </TTGlyph>
    <TTGlyph name="Edotaccent" xMin="58" yMin="-41" xMax="482" yMax="902">
      <component glyphName="E" x="0" y="0" flags="0x204"/>
      <component glyphName="dotaccent" x="128" y="156" flags="0x4"/>
    </TTGlyph>
    <TTGlyph name="Egrave" xMin="58" yMin="-41" xMax="482" yMax="937">
      <component glyphName="E" x="0" y="0" flags="0x204"/>
      <component glyphName="grave" x="112" y="184" flags="0x4"/>
    </TTGlyph>
    <TTGlyph name="Emacron" xMin="58" yMin="-41" xMax="482" yMax="851">
      <component glyphName="E" x="0" y="0" flags="0x204"/>
      <component glyphName="macron" x="122" y="150" flags="0x4"/>
    </TTGlyph>
    <TTGlyph name="Eogonek" xMin="58" yMin="-218" xMax="532" yMax="735">
      <contour>
        <pt x="532" y="-161" on="1"/>
        <pt x="512" y="-191" on="0"/>
        <pt x="463" y="-218" on="0"/>
        <pt x="431" y="-218" on="1"/>
        <pt x="394" y="-218" on="0"/>
        <pt x="350" y="-177" on="0"/>
        <pt x="350" y="-143" on="1"/>
        <pt x="350" y="-110" on="0"/>
        <pt x="388" y="-49" on="0"/>
        <pt x="426" y="-20" on="1"/>
        <pt x="362" y="-28" on="0"/>
        <pt x="219" y="-38" on="0"/>
        <pt x="126" y="-41" on="1"/>
        <pt x="97" y="151" on="0"/>
        <pt x="60" y="548" on="0"/>
        <pt x="58" y="691" on="1"/>
        <pt x="197" y="715" on="0"/>
        <pt x="365" y="733" on="0"/>
        <pt x="457" y="735" on="1"/>
        <pt x="457" y="717" on="0"/>
        <pt x="454" y="684" on="0"/>
        <pt x="451" y="670" on="1"/>
        <pt x="369" y="669" on="0"/>
        <pt x="218" y="656" on="0"/>
        <pt x="145" y="644" on="1"/>
        <pt x="143" y="584" on="0"/>
        <pt x="147" y="456" on="0"/>
        <pt x="152" y="382" on="1"/>
        <pt x="248" y="399" on="0"/>
        <pt x="353" y="414" on="0"/>
        <pt x="405" y="418" on="1"/>
        <pt x="409" y="404" on="0"/>
        <pt x="412" y="374" on="0"/>
        <pt x="411" y="356" on="1"/>
        <pt x="335" y="350" on="0"/>
        <pt x="224" y="337" on="0"/>
        <pt x="156" y="326" on="1"/>
        <pt x="163" y="244" on="0"/>
        <pt x="180" y="90" on="0"/>
        <pt x="191" y="20" on="1"/>
        <pt x="274" y="22" on="0"/>
        <pt x="411" y="38" on="0"/>
        <pt x="475" y="52" on="1"/>
        <pt x="479" y="38" on="0"/>
        <pt x="482" y="0" on="0"/>
        <pt x="480" y="-13" on="1"/>
        <pt x="446" y="-44" on="0"/>
        <pt x="414" y="-99" on="0"/>
        <pt x="414" y="-127" on="1"/>
        <pt x="414" y="-146" on="0"/>
        <pt x="431" y="-165" on="0"/>
        <pt x="448" y="-165" on="1"/>
        <pt x="467" y="-165" on="0"/>
        <pt x="495" y="-144" on="0"/>
        <pt x="507" y="-121" on="1"/>
        <pt x="516" y="-129" on="0"/>
        <pt x="528" y="-148" on="0"/>
      </contour>
    </TTGlyph>
    <TTGlyph name="Eth" xMin="-26" yMin="-11" xMax="535" yMax="717">
      <contour>
        <pt x="142" y="345" on="1"/>
        <pt x="142" y="316" on="0"/>
        <pt x="142" y="258" on="0"/>
        <pt x="142" y="229" on="1"/>
        <pt x="142" y="177" on="0"/>
        <pt x="143" y="92" on="0"/>
        <pt x="145" y="49" on="1"/>
        <pt x="297" y="107" on="0"/>
        <pt x="453" y="308" on="0"/>
        <pt x="453" y="446" on="1"/>
        <pt x="453" y="550" on="0"/>
        <pt x="344" y="659" on="0"/>
        <pt x="240" y="659" on="1"/>
        <pt x="217" y="659" on="0"/>
        <pt x="173" y="651" on="0"/>
        <pt x="152" y="644" on="1"/>
        <pt x="147" y="568" on="0"/>
        <pt x="143" y="451" on="0"/>
        <pt x="142" y="396" on="1"/>
        <pt x="178" y="398" on="0"/>
        <pt x="252" y="405" on="0"/>
        <pt x="294" y="412" on="1"/>
        <pt x="295" y="398" on="0"/>
        <pt x="294" y="372" on="0"/>
        <pt x="292" y="360" on="1"/>
        <pt x="253" y="353" on="0"/>
        <pt x="178" y="346" on="0"/>
      </contour>
      <contour>
        <pt x="535" y="444" on="1"/>
        <pt x="535" y="292" on="0"/>
        <pt x="325" y="44" on="0"/>
        <pt x="148" y="-11" on="1"/>
        <pt x="141" y="-11" on="0"/>
        <pt x="87" y="-5" on="0"/>
        <pt x="80" y="-3" on="1"/>
        <pt x="74" y="118" on="0"/>
        <pt x="67" y="277" on="0"/>
        <pt x="66" y="344" on="1"/>
        <pt x="43" y="345" on="0"/>
        <pt x="-3" y="348" on="0"/>
        <pt x="-25" y="350" on="1"/>
        <pt x="-26" y="369" on="0"/>
        <pt x="-25" y="394" on="0"/>
        <pt x="-23" y="403" on="1"/>
        <pt x="1" y="401" on="0"/>
        <pt x="44" y="398" on="0"/>
        <pt x="65" y="397" on="1"/>
        <pt x="64" y="417" on="0"/>
        <pt x="64" y="462" on="0"/>
        <pt x="64" y="508" on="1"/>
        <pt x="64" y="549" on="0"/>
        <pt x="66" y="640" on="0"/>
        <pt x="67" y="675" on="1"/>
        <pt x="111" y="696" on="0"/>
        <pt x="201" y="717" on="0"/>
        <pt x="242" y="717" on="1"/>
        <pt x="387" y="717" on="0"/>
        <pt x="535" y="579" on="0"/>
      </contour>
    </TTGlyph>
    <TTGlyph name="Euro" xMin="13" yMin="-40" xMax="487" yMax="668">
      <contour>
        <pt x="482" y="190" on="1"/>
        <pt x="467" y="72" on="0"/>
        <pt x="374" y="-40" on="0"/>
        <pt x="292" y="-40" on="1"/>
        <pt x="217" y="-40" on="0"/>
        <pt x="121" y="80" on="0"/>
        <pt x="108" y="191" on="1"/>
        <pt x="86" y="191" on="0"/>
        <pt x="41" y="192" on="0"/>
        <pt x="17" y="194" on="1"/>
        <pt x="15" y="209" on="0"/>
        <pt x="15" y="238" on="0"/>
        <pt x="17" y="248" on="1"/>
        <pt x="33" y="247" on="0"/>
        <pt x="69" y="245" on="0"/>
        <pt x="104" y="244" on="1"/>
        <pt x="103" y="250" on="0"/>
        <pt x="103" y="263" on="0"/>
        <pt x="103" y="276" on="1"/>
        <pt x="103" y="281" on="0"/>
        <pt x="103" y="291" on="0"/>
        <pt x="104" y="301" on="1"/>
        <pt x="104" y="311" on="0"/>
        <pt x="104" y="321" on="0"/>
        <pt x="104" y="325" on="1"/>
        <pt x="83" y="325" on="0"/>
        <pt x="39" y="326" on="0"/>
        <pt x="15" y="328" on="1"/>
        <pt x="13" y="344" on="0"/>
        <pt x="14" y="372" on="0"/>
        <pt x="16" y="382" on="1"/>
        <pt x="65" y="379" on="0"/>
        <pt x="96" y="378" on="0"/>
        <pt x="110" y="378" on="1"/>
        <pt x="128" y="512" on="0"/>
        <pt x="255" y="668" on="0"/>
        <pt x="346" y="668" on="1"/>
        <pt x="420" y="668" on="0"/>
        <pt x="487" y="556" on="0"/>
        <pt x="481" y="442" on="1"/>
        <pt x="465" y="435" on="0"/>
        <pt x="433" y="429" on="0"/>
        <pt x="411" y="428" on="1"/>
        <pt x="420" y="523" on="0"/>
        <pt x="382" y="612" on="0"/>
        <pt x="333" y="612" on="1"/>
        <pt x="281" y="612" on="0"/>
        <pt x="200" y="486" on="0"/>
        <pt x="188" y="381" on="1"/>
        <pt x="226" y="383" on="0"/>
        <pt x="302" y="392" on="0"/>
        <pt x="344" y="398" on="1"/>
        <pt x="345" y="386" on="0"/>
        <pt x="342" y="358" on="0"/>
        <pt x="339" y="347" on="1"/>
        <pt x="295" y="340" on="0"/>
        <pt x="219" y="331" on="0"/>
        <pt x="184" y="328" on="1"/>
        <pt x="183" y="321" on="0"/>
        <pt x="183" y="305" on="0"/>
        <pt x="183" y="288" on="1"/>
        <pt x="183" y="271" on="0"/>
        <pt x="183" y="254" on="0"/>
        <pt x="184" y="247" on="1"/>
        <pt x="217" y="249" on="0"/>
        <pt x="294" y="258" on="0"/>
        <pt x="345" y="265" on="1"/>
        <pt x="346" y="253" on="0"/>
        <pt x="343" y="224" on="0"/>
        <pt x="340" y="214" on="1"/>
        <pt x="281" y="205" on="0"/>
        <pt x="215" y="197" on="0"/>
        <pt x="188" y="195" on="1"/>
        <pt x="198" y="107" on="0"/>
        <pt x="259" y="16" on="0"/>
        <pt x="308" y="16" on="1"/>
        <pt x="360" y="16" on="0"/>
        <pt x="419" y="119" on="0"/>
        <pt x="419" y="210" on="1"/>
        <pt x="437" y="209" on="0"/>
        <pt x="468" y="199" on="0"/>
      </contour>
    </TTGlyph>
    <TTGlyph name="F" xMin="57" yMin="-79" xMax="462" yMax="774">
      <contour>
        <pt x="175" y="326" on="1"/>
        <pt x="178" y="169" on="0"/>
        <pt x="179" y="8" on="0"/>
        <pt x="177" y="-72" on="1"/>
        <pt x="161" y="-76" on="0"/>
        <pt x="122" y="-79" on="0"/>
        <pt x="104" y="-78" on="1"/>
        <pt x="108" y="154" on="0"/>
        <pt x="85" y="549" on="0"/>
        <pt x="57" y="721" on="1"/>
        <pt x="172" y="730" on="0"/>
        <pt x="342" y="753" on="0"/>
        <pt x="453" y="774" on="1"/>
        <pt x="456" y="766" on="0"/>
        <pt x="460" y="749" on="0"/>
        <pt x="461" y="741" on="1"/>
        <pt x="462" y="734" on="0"/>
        <pt x="461" y="718" on="0"/>
        <pt x="460" y="705" on="1"/>
        <pt x="341" y="685" on="0"/>
        <pt x="211" y="669" on="0"/>
        <pt x="149" y="664" on="1"/>
        <pt x="157" y="609" on="0"/>
        <pt x="169" y="485" on="0"/>
        <pt x="172" y="415" on="1"/>
        <pt x="226" y="426" on="0"/>
        <pt x="337" y="440" on="0"/>
        <pt x="396" y="443" on="1"/>
        <pt x="400" y="425" on="0"/>
        <pt x="403" y="396" on="0"/>
        <pt x="403" y="380" on="1"/>
        <pt x="352" y="377" on="0"/>
        <pt x="238" y="366" on="0"/>
        <pt x="174" y="357" on="1"/>
        <pt x="174" y="354" on="0"/>
        <pt x="174" y="348" on="0"/>
        <pt x="175" y="342" on="1"/>
        <pt x="175" y="335" on="0"/>
        <pt x="175" y="329" on="0"/>
      </contour>
    </TTGlyph>
    <TTGlyph name="G" xMin="46" yMin="-29" xMax="538" yMax="724">
      <contour>
        <pt x="486" y="348" on="1"/>
        <pt x="484" y="251" on="0"/>
        <pt x="510" y="72" on="0"/>
        <pt x="538" y="-21" on="1"/>
        <pt x="526" y="-24" on="0"/>
        <pt x="494" y="-28" on="0"/>
        <pt x="477" y="-29" on="1"/>
        <pt x="463" y="6" on="0"/>
        <pt x="441" y="75" on="0"/>
        <pt x="432" y="111" on="1"/>
        <pt x="397" y="43" on="0"/>
        <pt x="304" y="-21" on="0"/>
        <pt x="242" y="-21" on="1"/>
        <pt x="152" y="-21" on="0"/>
        <pt x="46" y="151" on="0"/>
        <pt x="46" y="299" on="1"/>
        <pt x="46" y="488" on="0"/>
        <pt x="190" y="724" on="0"/>
        <pt x="308" y="724" on="1"/>
        <pt x="389" y="724" on="0"/>
        <pt x="481" y="598" on="0"/>
        <pt x="481" y="490" on="1"/>
        <pt x="462" y="485" on="0"/>
        <pt x="423" y="479" on="0"/>
        <pt x="401" y="478" on="1"/>
        <pt x="399" y="571" on="0"/>
        <pt x="342" y="666" on="0"/>
        <pt x="289" y="666" on="1"/>
        <pt x="219" y="666" on="0"/>
        <pt x="128" y="472" on="0"/>
        <pt x="128" y="323" on="1"/>
        <pt x="128" y="190" on="0"/>
        <pt x="197" y="43" on="0"/>
        <pt x="259" y="43" on="1"/>
        <pt x="312" y="43" on="0"/>
        <pt x="391" y="127" on="0"/>
        <pt x="413" y="207" on="1"/>
        <pt x="409" y="236" on="0"/>
        <pt x="402" y="301" on="0"/>
        <pt x="400" y="339" on="1"/>
        <pt x="418" y="343" on="0"/>
        <pt x="463" y="348" on="0"/>
      </contour>
    </TTGlyph>
    <TTGlyph name="Gbreve" xMin="46" yMin="-29" xMax="538" yMax="890">
      <component glyphName="G" x="0" y="0" flags="0x204"/>
      <component glyphName="breve" x="158" y="151" flags="0x4"/>
    </TTGlyph>
    <TTGlyph name="H" xMin="65" yMin="-55" xMax="529" yMax="742">
      <contour>
        <pt x="508" y="732" on="1"/>
        <pt x="517" y="551" on="0"/>
        <pt x="529" y="100" on="0"/>
        <pt x="529" y="-55" on="1"/>
        <pt x="511" y="-55" on="0"/>
        <pt x="465" y="-49" on="0"/>
        <pt x="451" y="-46" on="1"/>
        <pt x="451" y="21" on="0"/>
        <pt x="448" y="227" on="0"/>
        <pt x="446" y="342" on="1"/>
        <pt x="352" y="341" on="0"/>
        <pt x="209" y="332" on="0"/>
        <pt x="147" y="323" on="1"/>
        <pt x="148" y="234" on="0"/>
        <pt x="152" y="74" on="0"/>
        <pt x="156" y="13" on="1"/>
        <pt x="142" y="9" on="0"/>
        <pt x="102" y="6" on="0"/>
        <pt x="86" y="7" on="1"/>
        <pt x="76" y="177" on="0"/>
        <pt x="65" y="528" on="0"/>
        <pt x="65" y="704" on="1"/>
        <pt x="75" y="709" on="0"/>
        <pt x="102" y="714" on="0"/>
        <pt x="115" y="714" on="1"/>
        <pt x="126" y="714" on="0"/>
        <pt x="145" y="711" on="0"/>
        <pt x="156" y="708" on="1"/>
        <pt x="151" y="653" on="0"/>
        <pt x="146" y="481" on="0"/>
        <pt x="147" y="381" on="1"/>
        <pt x="215" y="393" on="0"/>
        <pt x="360" y="405" on="0"/>
        <pt x="444" y="406" on="1"/>
        <pt x="440" y="524" on="0"/>
        <pt x="433" y="685" on="0"/>
        <pt x="428" y="735" on="1"/>
        <pt x="446" y="740" on="0"/>
        <pt x="463" y="742" on="0"/>
        <pt x="472" y="742" on="1"/>
        <pt x="482" y="742" on="0"/>
        <pt x="501" y="737" on="0"/>
      </contour>
    </TTGlyph>
    <TTGlyph name="I" xMin="66" yMin="-28" xMax="156" yMax="680">
      <contour>
        <pt x="156" y="487" on="1"/>
        <pt x="156" y="263" on="0"/>
        <pt x="153" y="78" on="0"/>
        <pt x="149" y="-20" on="1"/>
        <pt x="139" y="-23" on="0"/>
        <pt x="103" y="-27" on="0"/>
        <pt x="83" y="-28" on="1"/>
        <pt x="85" y="171" on="0"/>
        <pt x="77" y="519" on="0"/>
        <pt x="66" y="667" on="1"/>
        <pt x="78" y="674" on="0"/>
        <pt x="105" y="680" on="0"/>
        <pt x="119" y="680" on="1"/>
        <pt x="127" y="680" on="0"/>
        <pt x="142" y="679" on="0"/>
        <pt x="151" y="677" on="1"/>
        <pt x="154" y="635" on="0"/>
        <pt x="156" y="547" on="0"/>
      </contour>
    </TTGlyph>
    <TTGlyph name="Iacute" xMin="66" yMin="-28" xMax="185" yMax="918">
      <component glyphName="I" x="0" y="0" flags="0x204"/>
      <component glyphName="acute" x="3" y="168" flags="0x4"/>
    </TTGlyph>
    <TTGlyph name="Icircumflex" xMin="-28" yMin="-28" xMax="229" yMax="888">
      <component glyphName="I" x="0" y="0" flags="0x204"/>
      <component glyphName="circumflex" x="-28" y="148" flags="0x4"/>
    </TTGlyph>
    <TTGlyph name="Idieresis" xMin="0" yMin="-28" xMax="229" yMax="880">
      <component glyphName="I" x="0" y="0" flags="0x204"/>
      <component glyphName="dieresis" x="-20" y="134" flags="0x4"/>
    </TTGlyph>
    <TTGlyph name="Idotaccent" xMin="66" yMin="-28" xMax="171" yMax="885">
      <component glyphName="I" x="0" y="0" flags="0x204"/>
      <component glyphName="dotaccent" x="-26" y="139" flags="0x4"/>
    </TTGlyph>
    <TTGlyph name="Igrave" xMin="12" yMin="-28" xMax="156" yMax="917">
      <component glyphName="I" x="0" y="0" flags="0x204"/>
      <component glyphName="grave" x="-56" y="164" flags="0x4"/>
    </TTGlyph>
    <TTGlyph name="Imacron" xMin="7" yMin="-28" xMax="205" yMax="841">
      <component glyphName="I" x="0" y="0" flags="0x204"/>
      <component glyphName="macron" x="-23" y="140" flags="0x4"/>
    </TTGlyph>
    <TTGlyph name="Iogonek" xMin="15" yMin="-226" xMax="196" yMax="680">
      <contour>
        <pt x="196" y="-169" on="1"/>
        <pt x="176" y="-199" on="0"/>
        <pt x="128" y="-226" on="0"/>
        <pt x="96" y="-226" on="1"/>
        <pt x="59" y="-226" on="0"/>
        <pt x="15" y="-185" on="0"/>
        <pt x="15" y="-151" on="1"/>
        <pt x="15" y="-118" on="0"/>
        <pt x="53" y="-57" on="0"/>
        <pt x="91" y="-28" on="1"/>
        <pt x="89" y="-28" on="0"/>
        <pt x="85" y="-28" on="0"/>
        <pt x="83" y="-28" on="1"/>
        <pt x="85" y="171" on="0"/>
        <pt x="77" y="519" on="0"/>
        <pt x="66" y="667" on="1"/>
        <pt x="78" y="674" on="0"/>
        <pt x="105" y="680" on="0"/>
        <pt x="119" y="680" on="1"/>
        <pt x="127" y="680" on="0"/>
        <pt x="142" y="679" on="0"/>
        <pt x="151" y="677" on="1"/>
        <pt x="154" y="635" on="0"/>
        <pt x="156" y="547" on="0"/>
        <pt x="156" y="487" on="1"/>
        <pt x="156" y="263" on="0"/>
        <pt x="153" y="78" on="0"/>
        <pt x="149" y="-20" on="1"/>
        <pt x="148" y="-20" on="0"/>
        <pt x="145" y="-21" on="0"/>
        <pt x="144" y="-21" on="1"/>
        <pt x="110" y="-52" on="0"/>
        <pt x="78" y="-107" on="0"/>
        <pt x="78" y="-135" on="1"/>
        <pt x="78" y="-154" on="0"/>
        <pt x="95" y="-173" on="0"/>
        <pt x="112" y="-173" on="1"/>
        <pt x="131" y="-173" on="0"/>
        <pt x="159" y="-152" on="0"/>
        <pt x="171" y="-129" on="1"/>
        <pt x="180" y="-136" on="0"/>
        <pt x="191" y="-155" on="0"/>
      </contour>
    </TTGlyph>
    <TTGlyph name="J" xMin="33" yMin="-88" xMax="380" yMax="724">
      <contour>
        <pt x="351" y="59" on="1"/>
        <pt x="331" y="-13" on="0"/>
        <pt x="255" y="-88" on="0"/>
        <pt x="201" y="-88" on="1"/>
        <pt x="133" y="-88" on="0"/>
        <pt x="46" y="40" on="0"/>
        <pt x="33" y="158" on="1"/>
        <pt x="46" y="167" on="0"/>
        <pt x="78" y="179" on="0"/>
        <pt x="102" y="184" on="1"/>
        <pt x="116" y="67" on="0"/>
        <pt x="161" y="-28" on="0"/>
        <pt x="203" y="-28" on="1"/>
        <pt x="251" y="-28" on="0"/>
        <pt x="298" y="99" on="0"/>
        <pt x="298" y="229" on="1"/>
        <pt x="298" y="337" on="0"/>
        <pt x="283" y="567" on="0"/>
        <pt x="266" y="708" on="1"/>
        <pt x="275" y="713" on="0"/>
        <pt x="301" y="720" on="0"/>
        <pt x="316" y="722" on="1"/>
        <pt x="325" y="723" on="0"/>
        <pt x="345" y="724" on="0"/>
        <pt x="357" y="723" on="1"/>
        <pt x="368" y="621" on="0"/>
        <pt x="380" y="437" on="0"/>
        <pt x="380" y="358" on="1"/>
        <pt x="380" y="253" on="0"/>
        <pt x="366" y="112" on="0"/>
      </contour>
    </TTGlyph>
    <TTGlyph name="K" xMin="66" yMin="-84" xMax="553" yMax="704">
      <contour>
        <pt x="553" y="-31" on="1"/>
        <pt x="540" y="-50" on="0"/>
        <pt x="510" y="-75" on="0"/>
        <pt x="491" y="-84" on="1"/>
        <pt x="421" y="37" on="0"/>
        <pt x="301" y="192" on="0"/>
        <pt x="213" y="277" on="1"/>
        <pt x="181" y="251" on="0"/>
        <pt x="157" y="232" on="0"/>
        <pt x="146" y="224" on="1"/>
        <pt x="148" y="149" on="0"/>
        <pt x="159" y="19" on="0"/>
        <pt x="169" y="-62" on="1"/>
        <pt x="154" y="-65" on="0"/>
        <pt x="114" y="-70" on="0"/>
        <pt x="100" y="-70" on="1"/>
        <pt x="81" y="71" on="0"/>
        <pt x="66" y="296" on="0"/>
        <pt x="66" y="440" on="1"/>
        <pt x="66" y="497" on="0"/>
        <pt x="71" y="624" on="0"/>
        <pt x="76" y="695" on="1"/>
        <pt x="96" y="700" on="0"/>
        <pt x="119" y="704" on="0"/>
        <pt x="129" y="704" on="1"/>
        <pt x="139" y="704" on="0"/>
        <pt x="159" y="701" on="0"/>
        <pt x="170" y="698" on="1"/>
        <pt x="157" y="615" on="0"/>
        <pt x="145" y="444" on="0"/>
        <pt x="145" y="331" on="1"/>
        <pt x="145" y="320" on="0"/>
        <pt x="145" y="297" on="0"/>
        <pt x="145" y="286" on="1"/>
        <pt x="245" y="375" on="0"/>
        <pt x="362" y="534" on="0"/>
        <pt x="433" y="685" on="1"/>
        <pt x="449" y="678" on="0"/>
        <pt x="480" y="654" on="0"/>
        <pt x="495" y="636" on="1"/>
        <pt x="437" y="529" on="0"/>
        <pt x="331" y="386" on="0"/>
        <pt x="263" y="321" on="1"/>
        <pt x="350" y="243" on="0"/>
        <pt x="466" y="101" on="0"/>
      </contour>
    </TTGlyph>
    <TTGlyph name="L" xMin="67" yMin="-98" xMax="470" yMax="674">
      <contour>
        <pt x="463" y="-6" on="1"/>
        <pt x="466" y="-23" on="0"/>
        <pt x="470" y="-60" on="0"/>
        <pt x="470" y="-72" on="1"/>
        <pt x="377" y="-73" on="0"/>
        <pt x="219" y="-84" on="0"/>
        <pt x="117" y="-98" on="1"/>
        <pt x="90" y="96" on="0"/>
        <pt x="67" y="489" on="0"/>
        <pt x="71" y="663" on="1"/>
        <pt x="87" y="669" on="0"/>
        <pt x="115" y="674" on="0"/>
        <pt x="133" y="674" on="1"/>
        <pt x="139" y="674" on="0"/>
        <pt x="153" y="673" on="0"/>
        <pt x="160" y="672" on="1"/>
        <pt x="154" y="615" on="0"/>
        <pt x="150" y="483" on="0"/>
        <pt x="151" y="387" on="1"/>
        <pt x="153" y="264" on="0"/>
        <pt x="168" y="70" on="0"/>
        <pt x="182" y="-29" on="1"/>
        <pt x="253" y="-18" on="0"/>
        <pt x="399" y="-6" on="0"/>
      </contour>
    </TTGlyph>
    <TTGlyph name="Lacute" xMin="67" yMin="-98" xMax="470" yMax="893">
      <component glyphName="L" x="0" y="0" flags="0x204"/>
      <component glyphName="acute" x="13" y="143" flags="0x4"/>
    </TTGlyph>
    <TTGlyph name="Lcaron" xMin="67" yMin="-98" xMax="470" yMax="683">
      <component glyphName="L" x="0" y="0" flags="0x204"/>
      <component glyphName="caron.alt" x="166" y="-85" flags="0x4"/>
    </TTGlyph>
    <TTGlyph name="Lslash" xMin="-54" yMin="-98" xMax="463" yMax="674">
      <contour>
        <pt x="463" y="-72" on="1"/>
        <pt x="369" y="-73" on="0"/>
        <pt x="212" y="-84" on="0"/>
        <pt x="111" y="-98" on="1"/>
        <pt x="100" y="-16" on="0"/>
        <pt x="85" y="118" on="0"/>
        <pt x="80" y="178" on="1"/>
        <pt x="58" y="164" on="0"/>
        <pt x="9" y="135" on="0"/>
        <pt x="-21" y="118" on="1"/>
        <pt x="-32" y="129" on="0"/>
        <pt x="-48" y="155" on="0"/>
        <pt x="-54" y="172" on="1"/>
        <pt x="-22" y="190" on="0"/>
        <pt x="42" y="227" on="0"/>
        <pt x="75" y="248" on="1"/>
        <pt x="67" y="357" on="0"/>
        <pt x="62" y="567" on="0"/>
        <pt x="64" y="663" on="1"/>
        <pt x="80" y="669" on="0"/>
        <pt x="108" y="674" on="0"/>
        <pt x="127" y="674" on="1"/>
        <pt x="133" y="674" on="0"/>
        <pt x="146" y="673" on="0"/>
        <pt x="153" y="672" on="1"/>
        <pt x="148" y="617" on="0"/>
        <pt x="144" y="490" on="0"/>
        <pt x="144" y="387" on="1"/>
        <pt x="144" y="371" on="0"/>
        <pt x="145" y="335" on="0"/>
        <pt x="146" y="295" on="1"/>
        <pt x="186" y="322" on="0"/>
        <pt x="272" y="385" on="0"/>
        <pt x="323" y="424" on="1"/>
        <pt x="333" y="415" on="0"/>
        <pt x="349" y="391" on="0"/>
        <pt x="358" y="372" on="1"/>
        <pt x="306" y="332" on="0"/>
        <pt x="204" y="258" on="0"/>
        <pt x="150" y="222" on="1"/>
        <pt x="153" y="163" on="0"/>
        <pt x="165" y="39" on="0"/>
        <pt x="175" y="-29" on="1"/>
        <pt x="246" y="-18" on="0"/>
        <pt x="392" y="-6" on="0"/>
        <pt x="456" y="-6" on="1"/>
        <pt x="459" y="-23" on="0"/>
        <pt x="463" y="-60" on="0"/>
      </contour>
    </TTGlyph>
    <TTGlyph name="M" xMin="65" yMin="-56" xMax="666" yMax="755">
      <contour>
        <pt x="658" y="-43" on="1"/>
        <pt x="640" y="-50" on="0"/>
        <pt x="602" y="-56" on="0"/>
        <pt x="579" y="-56" on="1"/>
        <pt x="589" y="106" on="0"/>
        <pt x="596" y="428" on="0"/>
        <pt x="594" y="633" on="1"/>
        <pt x="532" y="531" on="0"/>
        <pt x="436" y="311" on="0"/>
        <pt x="395" y="179" on="1"/>
        <pt x="384" y="175" on="0"/>
        <pt x="356" y="172" on="0"/>
        <pt x="342" y="174" on="1"/>
        <pt x="302" y="303" on="0"/>
        <pt x="205" y="519" on="0"/>
        <pt x="141" y="621" on="1"/>
        <pt x="140" y="601" on="0"/>
        <pt x="139" y="559" on="0"/>
        <pt x="139" y="507" on="1"/>
        <pt x="139" y="395" on="0"/>
        <pt x="163" y="140" on="0"/>
        <pt x="187" y="5" on="1"/>
        <pt x="172" y="1" on="0"/>
        <pt x="131" y="-4" on="0"/>
        <pt x="114" y="-4" on="1"/>
        <pt x="88" y="154" on="0"/>
        <pt x="65" y="552" on="0"/>
        <pt x="71" y="725" on="1"/>
        <pt x="93" y="737" on="0"/>
        <pt x="132" y="752" on="0"/>
        <pt x="149" y="755" on="1"/>
        <pt x="220" y="653" on="0"/>
        <pt x="335" y="414" on="0"/>
        <pt x="372" y="292" on="1"/>
        <pt x="408" y="405" on="0"/>
        <pt x="513" y="631" on="0"/>
        <pt x="587" y="755" on="1"/>
        <pt x="608" y="752" on="0"/>
        <pt x="644" y="740" on="0"/>
        <pt x="659" y="733" on="1"/>
        <pt x="666" y="595" on="0"/>
        <pt x="665" y="198" on="0"/>
      </contour>
    </TTGlyph>
    <TTGlyph name="N" xMin="67" yMin="-40" xMax="554" yMax="757">
      <contour>
        <pt x="150" y="331" on="1"/>
        <pt x="151" y="263" on="0"/>
        <pt x="160" y="94" on="0"/>
        <pt x="169" y="-32" on="1"/>
        <pt x="156" y="-35" on="0"/>
        <pt x="122" y="-39" on="0"/>
        <pt x="104" y="-40" on="1"/>
        <pt x="83" y="198" on="0"/>
        <pt x="67" y="518" on="0"/>
        <pt x="67" y="677" on="1"/>
        <pt x="68" y="677" on="0"/>
        <pt x="70" y="678" on="0"/>
        <pt x="70" y="678" on="1"/>
        <pt x="95" y="690" on="0"/>
        <pt x="132" y="701" on="0"/>
        <pt x="156" y="705" on="1"/>
        <pt x="259" y="572" on="0"/>
        <pt x="412" y="307" on="0"/>
        <pt x="478" y="149" on="1"/>
        <pt x="480" y="182" on="0"/>
        <pt x="481" y="265" on="0"/>
        <pt x="481" y="352" on="1"/>
        <pt x="481" y="486" on="0"/>
        <pt x="472" y="683" on="0"/>
        <pt x="463" y="742" on="1"/>
        <pt x="488" y="750" on="0"/>
        <pt x="527" y="756" on="0"/>
        <pt x="548" y="757" on="1"/>
        <pt x="552" y="672" on="0"/>
        <pt x="554" y="587" on="0"/>
        <pt x="554" y="549" on="1"/>
        <pt x="554" y="392" on="0"/>
        <pt x="544" y="156" on="0"/>
        <pt x="533" y="24" on="1"/>
        <pt x="518" y="21" on="0"/>
        <pt x="487" y="18" on="0"/>
        <pt x="468" y="17" on="1"/>
        <pt x="395" y="189" on="0"/>
        <pt x="235" y="470" on="0"/>
        <pt x="148" y="582" on="1"/>
        <pt x="147" y="529" on="0"/>
        <pt x="150" y="351" on="0"/>
      </contour>
    </TTGlyph>
    <TTGlyph name="Nacute" xMin="67" yMin="-40" xMax="554" yMax="919">
      <component glyphName="N" x="0" y="0" flags="0x204"/>
      <component glyphName="acute" x="208" y="169" flags="0x4"/>
    </TTGlyph>
    <TTGlyph name="Ncaron" xMin="67" yMin="-40" xMax="554" yMax="904">
      <component glyphName="N" x="0" y="0" flags="0x204"/>
      <component glyphName="caron" x="173" y="167" flags="0x4"/>
    </TTGlyph>
    <TTGlyph name="Ntilde" xMin="67" yMin="-40" xMax="554" yMax="877">
      <component glyphName="N" x="0" y="0" flags="0x204"/>
      <component glyphName="tilde" x="165" y="145" flags="0x4"/>
    </TTGlyph>
    <TTGlyph name="O" xMin="44" yMin="-20" xMax="552" yMax="733">
      <contour>
        <pt x="326" y="733" on="1"/>
        <pt x="437" y="733" on="0"/>
        <pt x="552" y="560" on="0"/>
        <pt x="552" y="394" on="1"/>
        <pt x="552" y="322" on="0"/>
        <pt x="521" y="181" on="0"/>
        <pt x="492" y="126" on="1"/>
        <pt x="455" y="54" on="0"/>
        <pt x="344" y="-20" on="0"/>
        <pt x="274" y="-20" on="1"/>
        <pt x="171" y="-20" on="0"/>
        <pt x="44" y="180" on="0"/>
        <pt x="44" y="339" on="1"/>
        <pt x="44" y="511" on="0"/>
        <pt x="202" y="733" on="0"/>
      </contour>
      <contour>
        <pt x="282" y="39" on="1"/>
        <pt x="369" y="39" on="0"/>
        <pt x="470" y="228" on="0"/>
        <pt x="470" y="377" on="1"/>
        <pt x="470" y="529" on="0"/>
        <pt x="394" y="672" on="0"/>
        <pt x="313" y="672" on="1"/>
        <pt x="231" y="672" on="0"/>
        <pt x="127" y="493" on="0"/>
        <pt x="127" y="351" on="1"/>
        <pt x="127" y="215" on="0"/>
        <pt x="210" y="39" on="0"/>
      </contour>
    </TTGlyph>
    <TTGlyph name="OE" xMin="45" yMin="-38" xMax="853" yMax="734">
      <contour>
        <pt x="851" y="-10" on="1"/>
        <pt x="772" y="-22" on="0"/>
        <pt x="599" y="-35" on="0"/>
        <pt x="497" y="-38" on="1"/>
        <pt x="493" y="-11" on="0"/>
        <pt x="484" y="53" on="0"/>
        <pt x="475" y="117" on="1"/>
        <pt x="446" y="42" on="0"/>
        <pt x="348" y="-35" on="0"/>
        <pt x="283" y="-35" on="1"/>
        <pt x="176" y="-35" on="0"/>
        <pt x="45" y="165" on="0"/>
        <pt x="45" y="324" on="1"/>
        <pt x="45" y="501" on="0"/>
        <pt x="186" y="717" on="0"/>
        <pt x="305" y="717" on="1"/>
        <pt x="342" y="717" on="0"/>
        <pt x="404" y="693" on="0"/>
        <pt x="429" y="669" on="1"/>
        <pt x="429" y="674" on="0"/>
        <pt x="429" y="685" on="0"/>
        <pt x="429" y="690" on="1"/>
        <pt x="577" y="716" on="0"/>
        <pt x="739" y="732" on="0"/>
        <pt x="828" y="734" on="1"/>
        <pt x="828" y="716" on="0"/>
        <pt x="825" y="683" on="0"/>
        <pt x="822" y="669" on="1"/>
        <pt x="742" y="668" on="0"/>
        <pt x="591" y="656" on="0"/>
        <pt x="516" y="644" on="1"/>
        <pt x="514" y="584" on="0"/>
        <pt x="518" y="456" on="0"/>
        <pt x="523" y="382" on="1"/>
        <pt x="619" y="399" on="0"/>
        <pt x="724" y="414" on="0"/>
        <pt x="776" y="418" on="1"/>
        <pt x="780" y="404" on="0"/>
        <pt x="783" y="374" on="0"/>
        <pt x="782" y="356" on="1"/>
        <pt x="706" y="350" on="0"/>
        <pt x="595" y="337" on="0"/>
        <pt x="527" y="326" on="1"/>
        <pt x="534" y="247" on="0"/>
        <pt x="551" y="94" on="0"/>
        <pt x="562" y="23" on="1"/>
        <pt x="645" y="25" on="0"/>
        <pt x="782" y="41" on="0"/>
        <pt x="846" y="55" on="1"/>
        <pt x="850" y="41" on="0"/>
        <pt x="853" y="3" on="0"/>
      </contour>
      <contour>
        <pt x="291" y="24" on="1"/>
        <pt x="364" y="24" on="0"/>
        <pt x="442" y="202" on="0"/>
        <pt x="440" y="361" on="1"/>
        <pt x="438" y="508" on="0"/>
        <pt x="364" y="657" on="0"/>
        <pt x="292" y="657" on="1"/>
        <pt x="214" y="657" on="0"/>
        <pt x="127" y="486" on="0"/>
        <pt x="127" y="335" on="1"/>
        <pt x="127" y="200" on="0"/>
        <pt x="215" y="24" on="0"/>
      </contour>
    </TTGlyph>
    <TTGlyph name="Oacute" xMin="44" yMin="-20" xMax="552" yMax="944">
      <component glyphName="O" x="0" y="0" flags="0x204"/>
      <component glyphName="acute" x="196" y="194" flags="0x4"/>
    </TTGlyph>
    <TTGlyph name="Ocircumflex" xMin="44" yMin="-20" xMax="552" yMax="921">
      <component glyphName="O" x="0" y="0" flags="0x204"/>
      <component glyphName="circumflex" x="189" y="181" flags="0x4"/>
    </TTGlyph>
    <TTGlyph name="Odieresis" xMin="44" yMin="-20" xMax="552" yMax="910">
      <component glyphName="O" x="0" y="0" flags="0x204"/>
      <component glyphName="dieresis" x="188" y="164" flags="0x4"/>
    </TTGlyph>
    <TTGlyph name="Ograve" xMin="44" yMin="-20" xMax="552" yMax="950">
      <component glyphName="O" x="0" y="0" flags="0x204"/>
      <component glyphName="grave" x="163" y="197" flags="0x4"/>
    </TTGlyph>
    <TTGlyph name="Ohungarumlaut" xMin="44" yMin="-20" xMax="552" yMax="942">
      <component glyphName="O" x="0" y="0" flags="0x204"/>
      <component glyphName="hungarumlaut" x="189" y="192" flags="0x4"/>
    </TTGlyph>
    <TTGlyph name="Omacron" xMin="44" yMin="-20" xMax="552" yMax="880">
      <component glyphName="O" x="0" y="0" flags="0x204"/>
      <component glyphName="macron" x="188" y="179" flags="0x4"/>
    </TTGlyph>
    <TTGlyph name="Oslash" xMin="38" yMin="-76" xMax="545" yMax="793">
      <contour>
        <pt x="307" y="672" on="1"/>
        <pt x="225" y="672" on="0"/>
        <pt x="121" y="493" on="0"/>
        <pt x="121" y="351" on="1"/>
        <pt x="121" y="291" on="0"/>
        <pt x="140" y="180" on="0"/>
        <pt x="158" y="138" on="1"/>
        <pt x="211" y="235" on="0"/>
        <pt x="326" y="471" on="0"/>
        <pt x="402" y="634" on="1"/>
        <pt x="383" y="653" on="0"/>
        <pt x="337" y="672" on="0"/>
      </contour>
      <contour>
        <pt x="193" y="79" on="1"/>
        <pt x="211" y="59" on="0"/>
        <pt x="252" y="39" on="0"/>
        <pt x="276" y="39" on="1"/>
        <pt x="363" y="39" on="0"/>
        <pt x="463" y="228" on="0"/>
        <pt x="463" y="377" on="1"/>
        <pt x="463" y="438" on="0"/>
        <pt x="451" y="532" on="0"/>
        <pt x="439" y="567" on="1"/>
        <pt x="388" y="458" on="0"/>
        <pt x="271" y="226" on="0"/>
      </contour>
      <contour>
        <pt x="485" y="126" on="1"/>
        <pt x="448" y="54" on="0"/>
        <pt x="337" y="-20" on="0"/>
        <pt x="267" y="-20" on="1"/>
        <pt x="237" y="-20" on="0"/>
        <pt x="183" y="-2" on="0"/>
        <pt x="159" y="16" on="1"/>
        <pt x="151" y="0" on="0"/>
        <pt x="130" y="-38" on="0"/>
        <pt x="109" y="-76" on="1"/>
        <pt x="90" y="-70" on="0"/>
        <pt x="65" y="-56" on="0"/>
        <pt x="53" y="-44" on="1"/>
        <pt x="72" y="-14" on="0"/>
        <pt x="102" y="38" on="0"/>
        <pt x="115" y="61" on="1"/>
        <pt x="78" y="110" on="0"/>
        <pt x="38" y="254" on="0"/>
        <pt x="38" y="339" on="1"/>
        <pt x="38" y="511" on="0"/>
        <pt x="196" y="733" on="0"/>
        <pt x="319" y="733" on="1"/>
        <pt x="352" y="733" on="0"/>
        <pt x="409" y="717" on="0"/>
        <pt x="433" y="701" on="1"/>
        <pt x="440" y="717" on="0"/>
        <pt x="458" y="755" on="0"/>
        <pt x="475" y="793" on="1"/>
        <pt x="489" y="787" on="0"/>
        <pt x="515" y="772" on="0"/>
        <pt x="527" y="761" on="1"/>
        <pt x="499" y="699" on="0"/>
        <pt x="486" y="669" on="0"/>
        <pt x="480" y="656" on="1"/>
        <pt x="512" y="613" on="0"/>
        <pt x="545" y="482" on="0"/>
        <pt x="545" y="394" on="1"/>
        <pt x="545" y="322" on="0"/>
        <pt x="514" y="181" on="0"/>
      </contour>
    </TTGlyph>
    <TTGlyph name="Otilde" xMin="44" yMin="-20" xMax="552" yMax="880">
      <component glyphName="O" x="0" y="0" flags="0x204"/>
      <component glyphName="tilde" x="188" y="148" flags="0x4"/>
    </TTGlyph>
    <TTGlyph name="P" xMin="67" yMin="-70" xMax="511" yMax="742">
      <contour>
        <pt x="143" y="232" on="1"/>
        <pt x="144" y="168" on="0"/>
        <pt x="152" y="33" on="0"/>
        <pt x="161" y="-68" on="1"/>
        <pt x="147" y="-70" on="0"/>
        <pt x="103" y="-68" on="0"/>
        <pt x="92" y="-65" on="1"/>
        <pt x="78" y="102" on="0"/>
        <pt x="67" y="348" on="0"/>
        <pt x="67" y="538" on="1"/>
        <pt x="67" y="575" on="0"/>
        <pt x="71" y="679" on="0"/>
        <pt x="74" y="715" on="1"/>
        <pt x="126" y="729" on="0"/>
        <pt x="215" y="742" on="0"/>
        <pt x="256" y="742" on="1"/>
        <pt x="378" y="742" on="0"/>
        <pt x="511" y="639" on="0"/>
        <pt x="511" y="547" on="1"/>
        <pt x="511" y="443" on="0"/>
        <pt x="331" y="288" on="0"/>
      </contour>
      <contour>
        <pt x="159" y="674" on="1"/>
        <pt x="151" y="589" on="0"/>
        <pt x="143" y="430" on="0"/>
        <pt x="143" y="336" on="1"/>
        <pt x="143" y="325" on="0"/>
        <pt x="143" y="304" on="0"/>
        <pt x="143" y="293" on="1"/>
        <pt x="285" y="331" on="0"/>
        <pt x="429" y="454" on="0"/>
        <pt x="429" y="537" on="1"/>
        <pt x="429" y="610" on="0"/>
        <pt x="339" y="687" on="0"/>
        <pt x="254" y="687" on="1"/>
        <pt x="231" y="687" on="0"/>
        <pt x="184" y="681" on="0"/>
      </contour>
    </TTGlyph>
    <TTGlyph name="Q" xMin="41" yMin="-105" xMax="579" yMax="673">
      <contour>
        <pt x="579" y="-52" on="1"/>
        <pt x="572" y="-66" on="0"/>
        <pt x="546" y="-93" on="0"/>
        <pt x="529" y="-105" on="1"/>
        <pt x="501" y="-64" on="0"/>
        <pt x="452" y="0" on="0"/>
        <pt x="428" y="27" on="1"/>
        <pt x="394" y="-6" on="0"/>
        <pt x="311" y="-40" on="0"/>
        <pt x="264" y="-40" on="1"/>
        <pt x="163" y="-40" on="0"/>
        <pt x="41" y="133" on="0"/>
        <pt x="41" y="277" on="1"/>
        <pt x="41" y="451" on="0"/>
        <pt x="200" y="673" on="0"/>
        <pt x="325" y="673" on="1"/>
        <pt x="431" y="673" on="0"/>
        <pt x="545" y="509" on="0"/>
        <pt x="545" y="360" on="1"/>
        <pt x="545" y="278" on="0"/>
        <pt x="505" y="131" on="0"/>
        <pt x="468" y="75" on="1"/>
        <pt x="490" y="53" on="0"/>
        <pt x="540" y="-4" on="0"/>
      </contour>
      <contour>
        <pt x="123" y="289" on="1"/>
        <pt x="123" y="165" on="0"/>
        <pt x="202" y="19" on="0"/>
        <pt x="271" y="19" on="1"/>
        <pt x="304" y="19" on="0"/>
        <pt x="362" y="47" on="0"/>
        <pt x="385" y="74" on="1"/>
        <pt x="365" y="94" on="0"/>
        <pt x="322" y="134" on="0"/>
        <pt x="295" y="156" on="1"/>
        <pt x="297" y="159" on="0"/>
        <pt x="306" y="172" on="0"/>
        <pt x="308" y="176" on="1"/>
        <pt x="313" y="182" on="0"/>
        <pt x="322" y="191" on="0"/>
        <pt x="326" y="194" on="1"/>
        <pt x="355" y="173" on="0"/>
        <pt x="399" y="139" on="0"/>
        <pt x="418" y="123" on="1"/>
        <pt x="440" y="166" on="0"/>
        <pt x="463" y="279" on="0"/>
        <pt x="463" y="343" on="1"/>
        <pt x="463" y="477" on="0"/>
        <pt x="389" y="612" on="0"/>
        <pt x="315" y="612" on="1"/>
        <pt x="229" y="612" on="0"/>
        <pt x="123" y="433" on="0"/>
      </contour>
    </TTGlyph>
    <TTGlyph name="R" xMin="66" yMin="-28" xMax="542" yMax="770">
      <contour>
        <pt x="542" y="6" on="1"/>
        <pt x="532" y="-3" on="0"/>
        <pt x="490" y="-24" on="0"/>
        <pt x="472" y="-28" on="1"/>
        <pt x="415" y="100" on="0"/>
        <pt x="332" y="250" on="0"/>
        <pt x="282" y="318" on="1"/>
        <pt x="258" y="307" on="0"/>
        <pt x="199" y="288" on="0"/>
        <pt x="165" y="279" on="1"/>
        <pt x="162" y="199" on="0"/>
        <pt x="154" y="59" on="0"/>
        <pt x="148" y="-5" on="1"/>
        <pt x="133" y="-7" on="0"/>
        <pt x="94" y="-4" on="0"/>
        <pt x="82" y="-1" on="1"/>
        <pt x="87" y="78" on="0"/>
        <pt x="90" y="175" on="0"/>
        <pt x="90" y="228" on="1"/>
        <pt x="90" y="389" on="0"/>
        <pt x="80" y="577" on="0"/>
        <pt x="66" y="703" on="1"/>
        <pt x="110" y="734" on="0"/>
        <pt x="223" y="770" on="0"/>
        <pt x="278" y="770" on="1"/>
        <pt x="377" y="770" on="0"/>
        <pt x="492" y="666" on="0"/>
        <pt x="492" y="579" on="1"/>
        <pt x="492" y="505" on="0"/>
        <pt x="418" y="390" on="0"/>
        <pt x="343" y="347" on="1"/>
        <pt x="391" y="290" on="0"/>
        <pt x="491" y="119" on="0"/>
      </contour>
      <contour>
        <pt x="153" y="684" on="1"/>
        <pt x="160" y="595" on="0"/>
        <pt x="166" y="461" on="0"/>
        <pt x="166" y="394" on="1"/>
        <pt x="166" y="379" on="0"/>
        <pt x="166" y="350" on="0"/>
        <pt x="166" y="335" on="1"/>
        <pt x="291" y="366" on="0"/>
        <pt x="411" y="478" on="0"/>
        <pt x="411" y="565" on="1"/>
        <pt x="411" y="636" on="0"/>
        <pt x="338" y="713" on="0"/>
        <pt x="270" y="713" on="1"/>
        <pt x="240" y="713" on="0"/>
        <pt x="181" y="698" on="0"/>
      </contour>
    </TTGlyph>
    <TTGlyph name="Racute" xMin="66" yMin="-28" xMax="542" yMax="980">
      <component glyphName="R" x="0" y="0" flags="0x204"/>
      <component glyphName="acute" x="126" y="230" flags="0x4"/>
    </TTGlyph>
    <TTGlyph name="Rcaron" xMin="66" yMin="-28" xMax="542" yMax="970">
      <component glyphName="R" x="0" y="0" flags="0x204"/>
      <component glyphName="caron" x="120" y="233" flags="0x4"/>
    </TTGlyph>
    <TTGlyph name="S" xMin="31" yMin="-40" xMax="440" yMax="767">
      <contour>
        <pt x="394" y="288" on="1"/>
        <pt x="414" y="258" on="0"/>
        <pt x="433" y="189" on="0"/>
        <pt x="433" y="148" on="1"/>
        <pt x="433" y="65" on="0"/>
        <pt x="327" y="-40" on="0"/>
        <pt x="244" y="-40" on="1"/>
        <pt x="144" y="-40" on="0"/>
        <pt x="31" y="107" on="0"/>
        <pt x="31" y="225" on="1"/>
        <pt x="47" y="233" on="0"/>
        <pt x="85" y="245" on="0"/>
        <pt x="103" y="246" on="1"/>
        <pt x="102" y="139" on="0"/>
        <pt x="175" y="17" on="0"/>
        <pt x="241" y="17" on="1"/>
        <pt x="291" y="17" on="0"/>
        <pt x="352" y="84" on="0"/>
        <pt x="352" y="139" on="1"/>
        <pt x="352" y="192" on="0"/>
        <pt x="304" y="275" on="0"/>
        <pt x="224" y="334" on="1"/>
        <pt x="176" y="370" on="0"/>
        <pt x="132" y="413" on="0"/>
        <pt x="117" y="436" on="1"/>
        <pt x="97" y="466" on="0"/>
        <pt x="77" y="536" on="0"/>
        <pt x="77" y="577" on="1"/>
        <pt x="77" y="664" on="0"/>
        <pt x="176" y="767" on="0"/>
        <pt x="259" y="767" on="1"/>
        <pt x="335" y="767" on="0"/>
        <pt x="420" y="680" on="0"/>
        <pt x="440" y="576" on="1"/>
        <pt x="426" y="568" on="0"/>
        <pt x="393" y="560" on="0"/>
        <pt x="368" y="559" on="1"/>
        <pt x="359" y="638" on="0"/>
        <pt x="307" y="708" on="0"/>
        <pt x="256" y="708" on="1"/>
        <pt x="209" y="708" on="0"/>
        <pt x="159" y="646" on="0"/>
        <pt x="159" y="587" on="1"/>
        <pt x="159" y="533" on="0"/>
        <pt x="208" y="448" on="0"/>
        <pt x="288" y="388" on="1"/>
        <pt x="336" y="352" on="0"/>
        <pt x="379" y="310" on="0"/>
      </contour>
    </TTGlyph>
    <TTGlyph name="Sacute" xMin="31" yMin="-40" xMax="440" yMax="979">
      <component glyphName="S" x="0" y="0" flags="0x204"/>
      <component glyphName="acute" x="151" y="229" flags="0x4"/>
    </TTGlyph>
    <TTGlyph name="Scaron" xMin="31" yMin="-40" xMax="440" yMax="957">
      <component glyphName="S" x="0" y="0" flags="0x204"/>
      <component glyphName="caron" x="136" y="220" flags="0x4"/>
    </TTGlyph>
    <TTGlyph name="T" xMin="21" yMin="24" xMax="561" yMax="791">
      <contour>
        <pt x="361" y="34" on="1"/>
        <pt x="348" y="30" on="0"/>
        <pt x="308" y="25" on="0"/>
        <pt x="287" y="24" on="1"/>
        <pt x="292" y="185" on="0"/>
        <pt x="274" y="551" on="0"/>
        <pt x="252" y="706" on="1"/>
        <pt x="201" y="701" on="0"/>
        <pt x="92" y="686" on="0"/>
        <pt x="29" y="677" on="1"/>
        <pt x="25" y="694" on="0"/>
        <pt x="21" y="728" on="0"/>
        <pt x="22" y="742" on="1"/>
        <pt x="172" y="767" on="0"/>
        <pt x="405" y="789" on="0"/>
        <pt x="554" y="791" on="1"/>
        <pt x="557" y="784" on="0"/>
        <pt x="560" y="766" on="0"/>
        <pt x="561" y="755" on="1"/>
        <pt x="561" y="751" on="0"/>
        <pt x="561" y="741" on="0"/>
        <pt x="559" y="722" on="1"/>
        <pt x="499" y="721" on="0"/>
        <pt x="393" y="717" on="0"/>
        <pt x="341" y="713" on="1"/>
        <pt x="354" y="583" on="0"/>
        <pt x="366" y="354" on="0"/>
        <pt x="366" y="230" on="1"/>
        <pt x="366" y="187" on="0"/>
        <pt x="364" y="91" on="0"/>
      </contour>
    </TTGlyph>
    <TTGlyph name="Tcaron" xMin="21" yMin="24" xMax="561" yMax="978">
      <component glyphName="T" x="0" y="0" flags="0x204"/>
      <component glyphName="caron" x="150" y="241" flags="0x4"/>
    </TTGlyph>
    <TTGlyph name="Thorn" xMin="61" yMin="-70" xMax="509" yMax="718">
      <contour>
        <pt x="143" y="95" on="1"/>
        <pt x="148" y="18" on="0"/>
        <pt x="152" y="-41" on="0"/>
        <pt x="154" y="-68" on="1"/>
        <pt x="137" y="-70" on="0"/>
        <pt x="98" y="-68" on="0"/>
        <pt x="86" y="-65" on="1"/>
        <pt x="72" y="102" on="0"/>
        <pt x="61" y="348" on="0"/>
        <pt x="61" y="538" on="1"/>
        <pt x="61" y="575" on="0"/>
        <pt x="65" y="681" on="0"/>
        <pt x="68" y="716" on="1"/>
        <pt x="90" y="718" on="0"/>
        <pt x="135" y="713" on="0"/>
        <pt x="155" y="705" on="1"/>
        <pt x="154" y="691" on="0"/>
        <pt x="151" y="659" on="0"/>
        <pt x="145" y="594" on="1"/>
        <pt x="176" y="599" on="0"/>
        <pt x="229" y="604" on="0"/>
        <pt x="254" y="604" on="1"/>
        <pt x="376" y="604" on="0"/>
        <pt x="509" y="501" on="0"/>
        <pt x="509" y="409" on="1"/>
        <pt x="509" y="305" on="0"/>
        <pt x="330" y="152" on="0"/>
      </contour>
      <contour>
        <pt x="141" y="533" on="1"/>
        <pt x="138" y="488" on="0"/>
        <pt x="136" y="393" on="0"/>
        <pt x="136" y="336" on="1"/>
        <pt x="136" y="282" on="0"/>
        <pt x="138" y="195" on="0"/>
        <pt x="140" y="154" on="1"/>
        <pt x="283" y="192" on="0"/>
        <pt x="427" y="316" on="0"/>
        <pt x="427" y="399" on="1"/>
        <pt x="427" y="472" on="0"/>
        <pt x="337" y="549" on="0"/>
        <pt x="252" y="549" on="1"/>
        <pt x="222" y="549" on="0"/>
        <pt x="167" y="541" on="0"/>
      </contour>
    </TTGlyph>
    <TTGlyph name="U" xMin="54" yMin="-80" xMax="489" yMax="706">
      <contour>
        <pt x="443" y="706" on="1"/>
        <pt x="467" y="609" on="0"/>
        <pt x="489" y="446" on="0"/>
        <pt x="489" y="370" on="1"/>
        <pt x="489" y="143" on="0"/>
        <pt x="365" y="-80" on="0"/>
        <pt x="240" y="-80" on="1"/>
        <pt x="146" y="-80" on="0"/>
        <pt x="54" y="94" on="0"/>
        <pt x="54" y="272" on="1"/>
        <pt x="54" y="364" on="0"/>
        <pt x="84" y="566" on="0"/>
        <pt x="105" y="628" on="1"/>
        <pt x="113" y="631" on="0"/>
        <pt x="139" y="634" on="0"/>
        <pt x="150" y="634" on="1"/>
        <pt x="159" y="634" on="0"/>
        <pt x="175" y="632" on="0"/>
        <pt x="182" y="630" on="1"/>
        <pt x="160" y="538" on="0"/>
        <pt x="138" y="368" on="0"/>
        <pt x="138" y="294" on="1"/>
        <pt x="138" y="129" on="0"/>
        <pt x="192" y="-18" on="0"/>
        <pt x="254" y="-18" on="1"/>
        <pt x="327" y="-18" on="0"/>
        <pt x="406" y="160" on="0"/>
        <pt x="406" y="321" on="1"/>
        <pt x="406" y="418" on="0"/>
        <pt x="384" y="591" on="0"/>
        <pt x="358" y="691" on="1"/>
        <pt x="376" y="697" on="0"/>
        <pt x="419" y="704" on="0"/>
      </contour>
    </TTGlyph>
    <TTGlyph name="Uacute" xMin="54" yMin="-80" xMax="489" yMax="868">
      <component glyphName="U" x="0" y="0" flags="0x204"/>
      <component glyphName="acute" x="151" y="118" flags="0x4"/>
    </TTGlyph>
    <TTGlyph name="Ucircumflex" xMin="54" yMin="-80" xMax="489" yMax="890">
      <component glyphName="U" x="0" y="0" flags="0x204"/>
      <component glyphName="circumflex" x="129" y="150" flags="0x4"/>
    </TTGlyph>
    <TTGlyph name="Udieresis" xMin="54" yMin="-80" xMax="489" yMax="863">
      <component glyphName="U" x="0" y="0" flags="0x204"/>
      <component glyphName="dieresis" x="139" y="117" flags="0x4"/>
    </TTGlyph>
    <TTGlyph name="Ugrave" xMin="54" yMin="-80" xMax="489" yMax="872">
      <component glyphName="U" x="0" y="0" flags="0x204"/>
      <component glyphName="grave" x="98" y="119" flags="0x4"/>
    </TTGlyph>
    <TTGlyph name="Uhungarumlaut" xMin="54" yMin="-80" xMax="489" yMax="883">
      <component glyphName="U" x="0" y="0" flags="0x204"/>
      <component glyphName="hungarumlaut" x="125" y="133" flags="0x4"/>
    </TTGlyph>
    <TTGlyph name="Umacron" xMin="54" yMin="-80" xMax="489" yMax="780">
      <component glyphName="U" x="0" y="0" flags="0x204"/>
      <component glyphName="macron" x="111" y="79" flags="0x4"/>
    </TTGlyph>
    <TTGlyph name="Uogonek" xMin="54" yMin="-268" xMax="489" yMax="706">
      <contour>
        <pt x="374" y="-214" on="1"/>
        <pt x="356" y="-241" on="0"/>
        <pt x="307" y="-268" on="0"/>
        <pt x="275" y="-268" on="1"/>
        <pt x="237" y="-268" on="0"/>
        <pt x="192" y="-226" on="0"/>
        <pt x="192" y="-190" on="1"/>
        <pt x="192" y="-159" on="0"/>
        <pt x="220" y="-107" on="0"/>
        <pt x="251" y="-80" on="1"/>
        <pt x="248" y="-80" on="0"/>
        <pt x="243" y="-80" on="0"/>
        <pt x="240" y="-80" on="1"/>
        <pt x="146" y="-80" on="0"/>
        <pt x="54" y="94" on="0"/>
        <pt x="54" y="272" on="1"/>
        <pt x="54" y="364" on="0"/>
        <pt x="84" y="566" on="0"/>
        <pt x="105" y="628" on="1"/>
        <pt x="113" y="631" on="0"/>
        <pt x="139" y="634" on="0"/>
        <pt x="150" y="634" on="1"/>
        <pt x="159" y="634" on="0"/>
        <pt x="175" y="632" on="0"/>
        <pt x="182" y="630" on="1"/>
        <pt x="160" y="538" on="0"/>
        <pt x="138" y="368" on="0"/>
        <pt x="138" y="294" on="1"/>
        <pt x="138" y="129" on="0"/>
        <pt x="192" y="-18" on="0"/>
        <pt x="254" y="-18" on="1"/>
        <pt x="327" y="-18" on="0"/>
        <pt x="406" y="160" on="0"/>
        <pt x="406" y="321" on="1"/>
        <pt x="406" y="418" on="0"/>
        <pt x="384" y="591" on="0"/>
        <pt x="358" y="691" on="1"/>
        <pt x="376" y="697" on="0"/>
        <pt x="419" y="704" on="0"/>
        <pt x="443" y="706" on="1"/>
        <pt x="467" y="609" on="0"/>
        <pt x="489" y="446" on="0"/>
        <pt x="489" y="370" on="1"/>
        <pt x="489" y="189" on="0"/>
        <pt x="415" y="-18" on="0"/>
        <pt x="334" y="-60" on="1"/>
        <pt x="297" y="-80" on="0"/>
        <pt x="255" y="-141" on="0"/>
        <pt x="255" y="-172" on="1"/>
        <pt x="255" y="-193" on="0"/>
        <pt x="274" y="-219" on="0"/>
        <pt x="290" y="-219" on="1"/>
        <pt x="307" y="-219" on="0"/>
        <pt x="336" y="-198" on="0"/>
        <pt x="349" y="-175" on="1"/>
        <pt x="357" y="-182" on="0"/>
        <pt x="368" y="-200" on="0"/>
      </contour>
    </TTGlyph>
    <TTGlyph name="Uring" xMin="54" yMin="-80" xMax="489" yMax="872">
      <component glyphName="U" x="0" y="0" flags="0x204"/>
      <component glyphName="ring" x="122" y="107" flags="0x4"/>
    </TTGlyph>
    <TTGlyph name="V" xMin="22" yMin="-95" xMax="521" yMax="761">
      <contour>
        <pt x="521" y="747" on="1"/>
        <pt x="495" y="510" on="0"/>
        <pt x="393" y="149" on="0"/>
        <pt x="282" y="-87" on="1"/>
        <pt x="268" y="-91" on="0"/>
        <pt x="238" y="-95" on="0"/>
        <pt x="219" y="-95" on="1"/>
        <pt x="147" y="72" on="0"/>
        <pt x="49" y="423" on="0"/>
        <pt x="22" y="612" on="1"/>
        <pt x="42" y="621" on="0"/>
        <pt x="80" y="632" on="0"/>
        <pt x="102" y="634" on="1"/>
        <pt x="122" y="468" on="0"/>
        <pt x="201" y="148" on="0"/>
        <pt x="260" y="-2" on="1"/>
        <pt x="342" y="196" on="0"/>
        <pt x="426" y="539" on="0"/>
        <pt x="446" y="761" on="1"/>
        <pt x="466" y="761" on="0"/>
        <pt x="501" y="754" on="0"/>
      </contour>
    </TTGlyph>
    <TTGlyph name="W" xMin="16" yMin="-64" xMax="731" yMax="710">
      <contour>
        <pt x="364" y="336" on="1"/>
        <pt x="341" y="235" on="0"/>
        <pt x="281" y="48" on="0"/>
        <pt x="238" y="-53" on="1"/>
        <pt x="224" y="-58" on="0"/>
        <pt x="194" y="-63" on="0"/>
        <pt x="180" y="-64" on="1"/>
        <pt x="105" y="166" on="0"/>
        <pt x="35" y="473" on="0"/>
        <pt x="16" y="656" on="1"/>
        <pt x="38" y="663" on="0"/>
        <pt x="77" y="671" on="0"/>
        <pt x="99" y="672" on="1"/>
        <pt x="108" y="528" on="0"/>
        <pt x="163" y="242" on="0"/>
        <pt x="218" y="54" on="1"/>
        <pt x="272" y="210" on="0"/>
        <pt x="323" y="418" on="0"/>
        <pt x="336" y="533" on="1"/>
        <pt x="354" y="537" on="0"/>
        <pt x="395" y="543" on="0"/>
        <pt x="413" y="544" on="1"/>
        <pt x="420" y="412" on="0"/>
        <pt x="459" y="190" on="0"/>
        <pt x="496" y="63" on="1"/>
        <pt x="562" y="233" on="0"/>
        <pt x="637" y="537" on="0"/>
        <pt x="655" y="710" on="1"/>
        <pt x="675" y="709" on="0"/>
        <pt x="712" y="698" on="0"/>
        <pt x="731" y="687" on="1"/>
        <pt x="700" y="481" on="0"/>
        <pt x="602" y="154" on="0"/>
        <pt x="518" y="-28" on="1"/>
        <pt x="505" y="-31" on="0"/>
        <pt x="478" y="-35" on="0"/>
        <pt x="456" y="-37" on="1"/>
        <pt x="414" y="99" on="0"/>
        <pt x="374" y="263" on="0"/>
      </contour>
    </TTGlyph>
    <TTGlyph name="X" xMin="16" yMin="-28" xMax="593" yMax="766">
      <contour>
        <pt x="576" y="12" on="1"/>
        <pt x="564" y="0" on="0"/>
        <pt x="534" y="-21" on="0"/>
        <pt x="518" y="-28" on="1"/>
        <pt x="468" y="88" on="0"/>
        <pt x="382" y="266" on="0"/>
        <pt x="342" y="339" on="1"/>
        <pt x="262" y="240" on="0"/>
        <pt x="128" y="89" on="0"/>
        <pt x="59" y="19" on="1"/>
        <pt x="46" y="28" on="0"/>
        <pt x="22" y="50" on="0"/>
        <pt x="16" y="61" on="1"/>
        <pt x="108" y="160" on="0"/>
        <pt x="246" y="321" on="0"/>
        <pt x="306" y="400" on="1"/>
        <pt x="255" y="485" on="0"/>
        <pt x="140" y="637" on="0"/>
        <pt x="65" y="717" on="1"/>
        <pt x="84" y="734" on="0"/>
        <pt x="122" y="759" on="0"/>
        <pt x="142" y="766" on="1"/>
        <pt x="212" y="680" on="0"/>
        <pt x="316" y="534" on="0"/>
        <pt x="359" y="462" on="1"/>
        <pt x="410" y="533" on="0"/>
        <pt x="496" y="671" on="0"/>
        <pt x="535" y="742" on="1"/>
        <pt x="550" y="734" on="0"/>
        <pt x="581" y="707" on="0"/>
        <pt x="593" y="690" on="1"/>
        <pt x="550" y="620" on="0"/>
        <pt x="453" y="478" on="0"/>
        <pt x="394" y="401" on="1"/>
        <pt x="436" y="327" on="0"/>
        <pt x="520" y="146" on="0"/>
      </contour>
    </TTGlyph>
    <TTGlyph name="Y" xMin="14" yMin="-83" xMax="479" yMax="728">
      <contour>
        <pt x="479" y="684" on="1"/>
        <pt x="402" y="385" on="0"/>
        <pt x="260" y="54" on="0"/>
        <pt x="159" y="-83" on="1"/>
        <pt x="141" y="-78" on="0"/>
        <pt x="107" y="-64" on="0"/>
        <pt x="95" y="-55" on="1"/>
        <pt x="139" y="7" on="0"/>
        <pt x="210" y="127" on="0"/>
        <pt x="238" y="188" on="1"/>
        <pt x="160" y="295" on="0"/>
        <pt x="56" y="533" on="0"/>
        <pt x="14" y="704" on="1"/>
        <pt x="34" y="715" on="0"/>
        <pt x="75" y="727" on="0"/>
        <pt x="98" y="728" on="1"/>
        <pt x="123" y="596" on="0"/>
        <pt x="207" y="373" on="0"/>
        <pt x="272" y="264" on="1"/>
        <pt x="312" y="360" on="0"/>
        <pt x="371" y="580" on="0"/>
        <pt x="393" y="715" on="1"/>
        <pt x="417" y="710" on="0"/>
        <pt x="459" y="694" on="0"/>
      </contour>
    </TTGlyph>
    <TTGlyph name="Yacute" xMin="14" yMin="-83" xMax="479" yMax="901">
      <component glyphName="Y" x="0" y="0" flags="0x204"/>
      <component glyphName="acute" x="138" y="151" flags="0x4"/>
    </TTGlyph>
    <TTGlyph name="Ydieresis" xMin="14" yMin="-83" xMax="479" yMax="896">
      <component glyphName="Y" x="0" y="0" flags="0x204"/>
      <component glyphName="dieresis" x="125" y="150" flags="0x4"/>
    </TTGlyph>
    <TTGlyph name="Z" xMin="22" yMin="-34" xMax="558" yMax="738">
      <contour>
        <pt x="522" y="46" on="1"/>
        <pt x="521" y="25" on="0"/>
        <pt x="512" y="-14" on="0"/>
        <pt x="503" y="-34" on="1"/>
        <pt x="386" y="-33" on="0"/>
        <pt x="133" y="-13" on="0"/>
        <pt x="23" y="5" on="1"/>
        <pt x="22" y="21" on="0"/>
        <pt x="25" y="55" on="0"/>
        <pt x="28" y="69" on="1"/>
        <pt x="180" y="228" on="0"/>
        <pt x="397" y="499" on="0"/>
        <pt x="463" y="615" on="1"/>
        <pt x="360" y="625" on="0"/>
        <pt x="180" y="648" on="0"/>
        <pt x="90" y="664" on="1"/>
        <pt x="91" y="685" on="0"/>
        <pt x="101" y="721" on="0"/>
        <pt x="112" y="738" on="1"/>
        <pt x="203" y="719" on="0"/>
        <pt x="392" y="687" on="0"/>
        <pt x="558" y="663" on="1"/>
        <pt x="557" y="652" on="0"/>
        <pt x="550" y="611" on="0"/>
        <pt x="548" y="606" on="1"/>
        <pt x="468" y="481" on="0"/>
        <pt x="251" y="215" on="0"/>
        <pt x="101" y="55" on="1"/>
        <pt x="214" y="44" on="0"/>
        <pt x="425" y="39" on="0"/>
      </contour>
    </TTGlyph>
    <TTGlyph name="Zacute" xMin="22" yMin="-34" xMax="558" yMax="923">
      <component glyphName="Z" x="0" y="0" flags="0x204"/>
      <component glyphName="acute" x="238" y="173" flags="0x4"/>
    </TTGlyph>
    <TTGlyph name="Zcaron" xMin="22" yMin="-34" xMax="558" yMax="904">
      <component glyphName="Z" x="0" y="0" flags="0x204"/>
      <component glyphName="caron" x="211" y="167" flags="0x4"/>
    </TTGlyph>
    <TTGlyph name="Zdotaccent" xMin="22" yMin="-34" xMax="558" yMax="875">
      <component glyphName="Z" x="0" y="0" flags="0x204"/>
      <component glyphName="dotaccent" x="211" y="129" flags="0x4"/>
    </TTGlyph>
    <TTGlyph name="a" xMin="27" yMin="-34" xMax="395" yMax="537">
      <contour>
        <pt x="395" y="341" on="1"/>
        <pt x="395" y="275" on="0"/>
        <pt x="359" y="57" on="0"/>
        <pt x="334" y="-34" on="1"/>
        <pt x="319" y="-34" on="0"/>
        <pt x="285" y="-28" on="0"/>
        <pt x="269" y="-23" on="1"/>
        <pt x="270" y="-19" on="0"/>
        <pt x="272" y="-8" on="0"/>
        <pt x="275" y="1" on="1"/>
        <pt x="278" y="17" on="0"/>
        <pt x="282" y="32" on="0"/>
        <pt x="283" y="38" on="1"/>
        <pt x="262" y="23" on="0"/>
        <pt x="209" y="7" on="0"/>
        <pt x="179" y="7" on="1"/>
        <pt x="111" y="7" on="0"/>
        <pt x="27" y="80" on="0"/>
        <pt x="27" y="140" on="1"/>
        <pt x="27" y="205" on="0"/>
        <pt x="137" y="273" on="0"/>
        <pt x="244" y="273" on="1"/>
        <pt x="260" y="273" on="0"/>
        <pt x="290" y="272" on="0"/>
        <pt x="315" y="271" on="1"/>
        <pt x="316" y="281" on="0"/>
        <pt x="316" y="305" on="0"/>
        <pt x="316" y="331" on="1"/>
        <pt x="316" y="411" on="0"/>
        <pt x="277" y="483" on="0"/>
        <pt x="232" y="483" on="1"/>
        <pt x="186" y="483" on="0"/>
        <pt x="124" y="402" on="0"/>
        <pt x="122" y="340" on="1"/>
        <pt x="94" y="344" on="0"/>
        <pt x="60" y="363" on="0"/>
        <pt x="51" y="379" on="1"/>
        <pt x="63" y="445" on="0"/>
        <pt x="172" y="537" on="0"/>
        <pt x="242" y="537" on="1"/>
        <pt x="318" y="537" on="0"/>
        <pt x="395" y="438" on="0"/>
      </contour>
      <contour>
        <pt x="106" y="138" on="1"/>
        <pt x="106" y="101" on="0"/>
        <pt x="154" y="58" on="0"/>
        <pt x="193" y="58" on="1"/>
        <pt x="221" y="58" on="0"/>
        <pt x="272" y="75" on="0"/>
        <pt x="294" y="92" on="1"/>
        <pt x="302" y="133" on="0"/>
        <pt x="311" y="197" on="0"/>
        <pt x="313" y="229" on="1"/>
        <pt x="210" y="235" on="0"/>
        <pt x="106" y="190" on="0"/>
      </contour>
    </TTGlyph>
    <TTGlyph name="aacute" xMin="27" yMin="-34" xMax="395" yMax="752">
      <component glyphName="a" x="0" y="0" flags="0x204"/>
      <component glyphName="acute" x="146" y="2" flags="0x4"/>
    </TTGlyph>
    <TTGlyph name="abreve" xMin="27" yMin="-34" xMax="395" yMax="699">
      <component glyphName="a" x="0" y="0" flags="0x204"/>
      <component glyphName="breve" x="123" y="-40" flags="0x4"/>
    </TTGlyph>
    <TTGlyph name="acircumflex" xMin="27" yMin="-34" xMax="395" yMax="727">
      <component glyphName="a" x="0" y="0" flags="0x204"/>
      <component glyphName="circumflex" x="121" y="-13" flags="0x4"/>
    </TTGlyph>
    <TTGlyph name="acute" xMin="66" yMin="571" xMax="182" yMax="750">
      <contour>
        <pt x="182" y="744" on="1"/>
        <pt x="177" y="701" on="0"/>
        <pt x="145" y="616" on="0"/>
        <pt x="118" y="571" on="1"/>
        <pt x="106" y="571" on="0"/>
        <pt x="82" y="575" on="0"/>
        <pt x="66" y="579" on="1"/>
        <pt x="83" y="625" on="0"/>
        <pt x="102" y="708" on="0"/>
        <pt x="106" y="748" on="1"/>
        <pt x="124" y="750" on="0"/>
        <pt x="166" y="748" on="0"/>
      </contour>
    </TTGlyph>
    <TTGlyph name="adieresis" xMin="27" yMin="-34" xMax="395" yMax="711">
      <component glyphName="a" x="0" y="0" flags="0x204"/>
      <component glyphName="dieresis" x="135" y="-35" flags="0x4"/>
    </TTGlyph>
    <TTGlyph name="ae" xMin="27" yMin="-16" xMax="685" yMax="532">
      <contour>
        <pt x="401" y="308" on="1"/>
        <pt x="430" y="298" on="0"/>
        <pt x="498" y="287" on="0"/>
        <pt x="534" y="287" on="1"/>
        <pt x="544" y="287" on="0"/>
        <pt x="571" y="289" on="0"/>
        <pt x="578" y="291" on="1"/>
        <pt x="585" y="317" on="0"/>
        <pt x="592" y="368" on="0"/>
        <pt x="592" y="389" on="1"/>
        <pt x="592" y="433" on="0"/>
        <pt x="563" y="470" on="0"/>
        <pt x="531" y="470" on="1"/>
        <pt x="490" y="470" on="0"/>
        <pt x="419" y="380" on="0"/>
      </contour>
      <contour>
        <pt x="624" y="165" on="1"/>
        <pt x="640" y="162" on="0"/>
        <pt x="673" y="144" on="0"/>
        <pt x="685" y="132" on="1"/>
        <pt x="666" y="74" on="0"/>
        <pt x="549" y="-16" on="0"/>
        <pt x="486" y="-16" on="1"/>
        <pt x="437" y="-16" on="0"/>
        <pt x="364" y="34" on="0"/>
        <pt x="341" y="81" on="1"/>
        <pt x="307" y="41" on="0"/>
        <pt x="224" y="2" on="0"/>
        <pt x="171" y="2" on="1"/>
        <pt x="105" y="2" on="0"/>
        <pt x="27" y="72" on="0"/>
        <pt x="27" y="131" on="1"/>
        <pt x="27" y="197" on="0"/>
        <pt x="139" y="268" on="0"/>
        <pt x="244" y="268" on="1"/>
        <pt x="261" y="268" on="0"/>
        <pt x="292" y="267" on="0"/>
        <pt x="316" y="266" on="1"/>
        <pt x="317" y="286" on="0"/>
        <pt x="316" y="333" on="0"/>
        <pt x="316" y="335" on="1"/>
        <pt x="316" y="410" on="0"/>
        <pt x="277" y="478" on="0"/>
        <pt x="232" y="478" on="1"/>
        <pt x="186" y="478" on="0"/>
        <pt x="124" y="397" on="0"/>
        <pt x="122" y="335" on="1"/>
        <pt x="95" y="339" on="0"/>
        <pt x="60" y="357" on="0"/>
        <pt x="51" y="373" on="1"/>
        <pt x="63" y="439" on="0"/>
        <pt x="173" y="532" on="0"/>
        <pt x="242" y="532" on="1"/>
        <pt x="292" y="532" on="0"/>
        <pt x="362" y="474" on="0"/>
        <pt x="377" y="419" on="1"/>
        <pt x="411" y="471" on="0"/>
        <pt x="494" y="525" on="0"/>
        <pt x="539" y="525" on="1"/>
        <pt x="597" y="525" on="0"/>
        <pt x="665" y="449" on="0"/>
        <pt x="665" y="386" on="1"/>
        <pt x="665" y="351" on="0"/>
        <pt x="652" y="281" on="0"/>
        <pt x="641" y="252" on="1"/>
        <pt x="620" y="244" on="0"/>
        <pt x="561" y="237" on="0"/>
        <pt x="522" y="237" on="1"/>
        <pt x="489" y="237" on="0"/>
        <pt x="422" y="249" on="0"/>
        <pt x="392" y="260" on="1"/>
        <pt x="390" y="248" on="0"/>
        <pt x="389" y="225" on="0"/>
        <pt x="389" y="214" on="1"/>
        <pt x="389" y="135" on="0"/>
        <pt x="444" y="38" on="0"/>
        <pt x="491" y="38" on="1"/>
        <pt x="531" y="38" on="0"/>
        <pt x="610" y="113" on="0"/>
      </contour>
      <contour>
        <pt x="106" y="129" on="1"/>
        <pt x="106" y="93" on="0"/>
        <pt x="147" y="53" on="0"/>
        <pt x="185" y="53" on="1"/>
        <pt x="225" y="53" on="0"/>
        <pt x="299" y="85" on="0"/>
        <pt x="328" y="115" on="1"/>
        <pt x="321" y="139" on="0"/>
        <pt x="314" y="190" on="0"/>
        <pt x="314" y="217" on="1"/>
        <pt x="314" y="219" on="0"/>
        <pt x="314" y="222" on="0"/>
        <pt x="314" y="224" on="1"/>
        <pt x="212" y="231" on="0"/>
        <pt x="106" y="182" on="0"/>
      </contour>
    </TTGlyph>
    <TTGlyph name="agrave" xMin="27" yMin="-34" xMax="395" yMax="754">
      <component glyphName="a" x="0" y="0" flags="0x204"/>
      <component glyphName="grave" x="107" y="1" flags="0x4"/>
    </TTGlyph>
    <TTGlyph name="amacron" xMin="27" yMin="-34" xMax="395" yMax="654">
      <component glyphName="a" x="0" y="0" flags="0x204"/>
      <component glyphName="macron" x="121" y="-47" flags="0x4"/>
    </TTGlyph>
    <TTGlyph name="ampersand" xMin="40" yMin="-57" xMax="709" yMax="721">
      <contour>
        <pt x="370" y="671" on="1"/>
        <pt x="335" y="671" on="0"/>
        <pt x="293" y="594" on="0"/>
        <pt x="293" y="528" on="1"/>
        <pt x="293" y="503" on="0"/>
        <pt x="298" y="455" on="0"/>
        <pt x="302" y="432" on="1"/>
        <pt x="366" y="448" on="0"/>
        <pt x="433" y="523" on="0"/>
        <pt x="433" y="579" on="1"/>
        <pt x="433" y="622" on="0"/>
        <pt x="400" y="671" on="0"/>
      </contour>
      <contour>
        <pt x="116" y="196" on="1"/>
        <pt x="116" y="107" on="0"/>
        <pt x="231" y="0" on="0"/>
        <pt x="325" y="0" on="1"/>
        <pt x="366" y="0" on="0"/>
        <pt x="442" y="30" on="0"/>
        <pt x="473" y="58" on="1"/>
        <pt x="386" y="121" on="0"/>
        <pt x="268" y="279" on="0"/>
        <pt x="242" y="369" on="1"/>
        <pt x="182" y="349" on="0"/>
        <pt x="116" y="258" on="0"/>
      </contour>
      <contour>
        <pt x="709" y="10" on="1"/>
        <pt x="702" y="-6" on="0"/>
        <pt x="676" y="-34" on="0"/>
        <pt x="659" y="-43" on="1"/>
        <pt x="625" y="-30" on="0"/>
        <pt x="559" y="3" on="0"/>
        <pt x="528" y="22" on="1"/>
        <pt x="486" y="-16" on="0"/>
        <pt x="378" y="-57" on="0"/>
        <pt x="319" y="-57" on="1"/>
        <pt x="193" y="-57" on="0"/>
        <pt x="40" y="77" on="0"/>
        <pt x="40" y="184" on="1"/>
        <pt x="40" y="267" on="0"/>
        <pt x="139" y="385" on="0"/>
        <pt x="231" y="410" on="1"/>
        <pt x="225" y="438" on="0"/>
        <pt x="220" y="494" on="0"/>
        <pt x="220" y="521" on="1"/>
        <pt x="220" y="613" on="0"/>
        <pt x="305" y="721" on="0"/>
        <pt x="379" y="721" on="1"/>
        <pt x="436" y="721" on="0"/>
        <pt x="506" y="646" on="0"/>
        <pt x="506" y="586" on="1"/>
        <pt x="506" y="514" on="0"/>
        <pt x="406" y="415" on="0"/>
        <pt x="311" y="393" on="1"/>
        <pt x="334" y="311" on="0"/>
        <pt x="439" y="171" on="0"/>
        <pt x="519" y="113" on="1"/>
        <pt x="541" y="148" on="0"/>
        <pt x="565" y="234" on="0"/>
        <pt x="565" y="279" on="1"/>
        <pt x="565" y="309" on="0"/>
        <pt x="560" y="356" on="0"/>
        <pt x="554" y="383" on="1"/>
        <pt x="571" y="387" on="0"/>
        <pt x="611" y="386" on="0"/>
        <pt x="632" y="381" on="1"/>
        <pt x="635" y="355" on="0"/>
        <pt x="637" y="309" on="0"/>
        <pt x="636" y="284" on="1"/>
        <pt x="635" y="224" on="0"/>
        <pt x="604" y="119" on="0"/>
        <pt x="575" y="76" on="1"/>
        <pt x="604" y="58" on="0"/>
        <pt x="672" y="25" on="0"/>
      </contour>
    </TTGlyph>
    <TTGlyph name="aogonek" xMin="27" yMin="-231" xMax="395" yMax="537">
      <contour>
        <pt x="106" y="138" on="1"/>
        <pt x="106" y="101" on="0"/>
        <pt x="154" y="58" on="0"/>
        <pt x="193" y="58" on="1"/>
        <pt x="221" y="58" on="0"/>
        <pt x="272" y="75" on="0"/>
        <pt x="294" y="92" on="1"/>
        <pt x="302" y="133" on="0"/>
        <pt x="311" y="197" on="0"/>
        <pt x="313" y="229" on="1"/>
        <pt x="210" y="235" on="0"/>
        <pt x="106" y="190" on="0"/>
      </contour>
      <contour>
        <pt x="335" y="-134" on="1"/>
        <pt x="343" y="-141" on="0"/>
        <pt x="355" y="-159" on="0"/>
        <pt x="360" y="-173" on="1"/>
        <pt x="341" y="-203" on="0"/>
        <pt x="292" y="-231" on="0"/>
        <pt x="260" y="-231" on="1"/>
        <pt x="223" y="-231" on="0"/>
        <pt x="179" y="-190" on="0"/>
        <pt x="179" y="-156" on="1"/>
        <pt x="179" y="-120" on="0"/>
        <pt x="223" y="-54" on="0"/>
        <pt x="269" y="-22" on="1"/>
        <pt x="270" y="-17" on="0"/>
        <pt x="273" y="-4" on="0"/>
        <pt x="276" y="8" on="1"/>
        <pt x="279" y="21" on="0"/>
        <pt x="282" y="33" on="0"/>
        <pt x="283" y="38" on="1"/>
        <pt x="262" y="23" on="0"/>
        <pt x="209" y="7" on="0"/>
        <pt x="179" y="7" on="1"/>
        <pt x="111" y="7" on="0"/>
        <pt x="27" y="80" on="0"/>
        <pt x="27" y="140" on="1"/>
        <pt x="27" y="205" on="0"/>
        <pt x="137" y="273" on="0"/>
        <pt x="244" y="273" on="1"/>
        <pt x="260" y="273" on="0"/>
        <pt x="290" y="272" on="0"/>
        <pt x="315" y="271" on="1"/>
        <pt x="316" y="281" on="0"/>
        <pt x="316" y="305" on="0"/>
        <pt x="316" y="331" on="1"/>
        <pt x="316" y="411" on="0"/>
        <pt x="277" y="483" on="0"/>
        <pt x="232" y="483" on="1"/>
        <pt x="186" y="483" on="0"/>
        <pt x="124" y="402" on="0"/>
        <pt x="122" y="340" on="1"/>
        <pt x="94" y="344" on="0"/>
        <pt x="60" y="363" on="0"/>
        <pt x="51" y="379" on="1"/>
        <pt x="63" y="445" on="0"/>
        <pt x="172" y="537" on="0"/>
        <pt x="242" y="537" on="1"/>
        <pt x="318" y="537" on="0"/>
        <pt x="395" y="438" on="0"/>
        <pt x="395" y="341" on="1"/>
        <pt x="395" y="275" on="0"/>
        <pt x="359" y="57" on="0"/>
        <pt x="334" y="-34" on="1"/>
        <pt x="326" y="-34" on="0"/>
        <pt x="310" y="-32" on="0"/>
        <pt x="302" y="-31" on="1"/>
        <pt x="271" y="-61" on="0"/>
        <pt x="242" y="-113" on="0"/>
        <pt x="242" y="-140" on="1"/>
        <pt x="242" y="-158" on="0"/>
        <pt x="260" y="-178" on="0"/>
        <pt x="276" y="-178" on="1"/>
        <pt x="294" y="-178" on="0"/>
        <pt x="322" y="-157" on="0"/>
      </contour>
    </TTGlyph>
    <TTGlyph name="approxequal" xMin="25" yMin="204" xMax="329" yMax="437">
      <component glyphName="asciitilde" x="1" y="-71" flags="0x4"/>
      <component glyphName="asciitilde" x="0" y="59" flags="0x4"/>
    </TTGlyph>
    <TTGlyph name="aring" xMin="27" yMin="-34" xMax="395" yMax="763">
      <component glyphName="a" x="0" y="0" flags="0x204"/>
      <component glyphName="ring" x="124" y="-2" flags="0x4"/>
    </TTGlyph>
    <TTGlyph name="asa_ba" xMin="-5" yMin="-19" xMax="472" yMax="619">
      <contour>
        <pt x="377" y="292" on="1"/>
        <pt x="377" y="197" on="0"/>
        <pt x="391" y="43" on="0"/>
        <pt x="404" y="-4" on="1"/>
        <pt x="392" y="-11" on="0"/>
        <pt x="355" y="-19" on="0"/>
        <pt x="334" y="-19" on="1"/>
        <pt x="282" y="79" on="0"/>
        <pt x="150" y="194" on="0"/>
        <pt x="66" y="213" on="1"/>
        <pt x="50" y="231" on="0"/>
        <pt x="35" y="266" on="0"/>
        <pt x="33" y="289" on="1"/>
        <pt x="80" y="345" on="0"/>
        <pt x="248" y="464" on="0"/>
        <pt x="337" y="504" on="1"/>
        <pt x="339" y="521" on="0"/>
        <pt x="342" y="541" on="0"/>
        <pt x="344" y="550" on="1"/>
        <pt x="319" y="553" on="0"/>
        <pt x="269" y="556" on="0"/>
        <pt x="244" y="556" on="1"/>
        <pt x="188" y="556" on="0"/>
        <pt x="56" y="542" on="0"/>
        <pt x="0" y="530" on="1"/>
        <pt x="-2" y="536" on="0"/>
        <pt x="-5" y="553" on="0"/>
        <pt x="-5" y="562" on="1"/>
        <pt x="-5" y="570" on="0"/>
        <pt x="-2" y="584" on="0"/>
        <pt x="0" y="589" on="1"/>
        <pt x="50" y="602" on="0"/>
        <pt x="188" y="619" on="0"/>
        <pt x="248" y="619" on="1"/>
        <pt x="301" y="619" on="0"/>
        <pt x="422" y="602" on="0"/>
        <pt x="467" y="589" on="1"/>
        <pt x="469" y="585" on="0"/>
        <pt x="472" y="570" on="0"/>
        <pt x="472" y="563" on="1"/>
        <pt x="472" y="556" on="0"/>
        <pt x="470" y="543" on="0"/>
        <pt x="467" y="530" on="1"/>
        <pt x="455" y="533" on="0"/>
        <pt x="424" y="539" on="0"/>
        <pt x="397" y="543" on="1"/>
        <pt x="386" y="481" on="0"/>
        <pt x="377" y="369" on="0"/>
      </contour>
      <contour>
        <pt x="318" y="79" on="1"/>
        <pt x="316" y="99" on="0"/>
        <pt x="315" y="152" on="0"/>
        <pt x="315" y="185" on="1"/>
        <pt x="315" y="247" on="0"/>
        <pt x="320" y="362" on="0"/>
        <pt x="326" y="421" on="1"/>
        <pt x="272" y="395" on="0"/>
        <pt x="150" y="308" on="0"/>
        <pt x="108" y="264" on="1"/>
        <pt x="175" y="235" on="0"/>
        <pt x="281" y="142" on="0"/>
      </contour>
      <contour>
        <pt x="202" y="-2" on="1"/>
        <pt x="175" y="37" on="0"/>
        <pt x="75" y="100" on="0"/>
        <pt x="24" y="110" on="1"/>
        <pt x="26" y="126" on="0"/>
        <pt x="37" y="154" on="0"/>
        <pt x="45" y="165" on="1"/>
        <pt x="102" y="147" on="0"/>
        <pt x="207" y="67" on="0"/>
        <pt x="230" y="21" on="1"/>
        <pt x="226" y="14" on="0"/>
        <pt x="212" y="2" on="0"/>
      </contour>
    </TTGlyph>
    <TTGlyph name="asa_ba.half" xMin="-5" yMin="93" xMax="472" yMax="619">
      <contour>
        <pt x="377" y="371" on="1"/>
        <pt x="377" y="301" on="0"/>
        <pt x="391" y="187" on="0"/>
        <pt x="404" y="151" on="1"/>
        <pt x="392" y="146" on="0"/>
        <pt x="355" y="140" on="0"/>
        <pt x="334" y="140" on="1"/>
        <pt x="282" y="214" on="0"/>
        <pt x="150" y="300" on="0"/>
        <pt x="66" y="313" on="1"/>
        <pt x="50" y="326" on="0"/>
        <pt x="34" y="354" on="0"/>
        <pt x="32" y="374" on="1"/>
        <pt x="78" y="415" on="0"/>
        <pt x="247" y="504" on="0"/>
        <pt x="338" y="534" on="1"/>
        <pt x="339" y="537" on="0"/>
        <pt x="340" y="544" on="0"/>
        <pt x="341" y="550" on="1"/>
        <pt x="317" y="553" on="0"/>
        <pt x="268" y="556" on="0"/>
        <pt x="244" y="556" on="1"/>
        <pt x="188" y="556" on="0"/>
        <pt x="56" y="542" on="0"/>
        <pt x="0" y="530" on="1"/>
        <pt x="-2" y="536" on="0"/>
        <pt x="-5" y="553" on="0"/>
        <pt x="-5" y="562" on="1"/>
        <pt x="-5" y="570" on="0"/>
        <pt x="-2" y="584" on="0"/>
        <pt x="0" y="589" on="1"/>
        <pt x="50" y="602" on="0"/>
        <pt x="188" y="619" on="0"/>
        <pt x="248" y="619" on="1"/>
        <pt x="301" y="619" on="0"/>
        <pt x="422" y="602" on="0"/>
        <pt x="467" y="589" on="1"/>
        <pt x="469" y="585" on="0"/>
        <pt x="472" y="570" on="0"/>
        <pt x="472" y="563" on="1"/>
        <pt x="472" y="556" on="0"/>
        <pt x="470" y="543" on="0"/>
        <pt x="467" y="530" on="1"/>
        <pt x="452" y="533" on="0"/>
        <pt x="397" y="544" on="0"/>
        <pt x="394" y="544" on="1"/>
        <pt x="385" y="500" on="0"/>
        <pt x="377" y="421" on="0"/>
      </contour>
      <contour>
        <pt x="318" y="215" on="1"/>
        <pt x="316" y="230" on="0"/>
        <pt x="315" y="268" on="0"/>
        <pt x="315" y="292" on="1"/>
        <pt x="315" y="338" on="0"/>
        <pt x="320" y="424" on="0"/>
        <pt x="326" y="468" on="1"/>
        <pt x="277" y="450" on="0"/>
        <pt x="161" y="389" on="0"/>
        <pt x="117" y="358" on="1"/>
        <pt x="178" y="338" on="0"/>
        <pt x="280" y="266" on="0"/>
      </contour>
      <contour>
        <pt x="264" y="117" on="1"/>
        <pt x="247" y="93" on="1"/>
        <pt x="214" y="145" on="0"/>
        <pt x="115" y="209" on="0"/>
        <pt x="51" y="220" on="1"/>
        <pt x="77" y="260" on="1"/>
        <pt x="143" y="242" on="0"/>
        <pt x="239" y="168" on="0"/>
      </contour>
    </TTGlyph>
    <TTGlyph name="asa_ba_ukaar" xMin="-5" yMin="-76" xMax="652" yMax="626">
      <contour>
        <pt x="318" y="79" on="1"/>
        <pt x="316" y="99" on="0"/>
        <pt x="315" y="152" on="0"/>
        <pt x="315" y="185" on="1"/>
        <pt x="315" y="247" on="0"/>
        <pt x="320" y="362" on="0"/>
        <pt x="326" y="421" on="1"/>
        <pt x="272" y="395" on="0"/>
        <pt x="150" y="308" on="0"/>
        <pt x="108" y="264" on="1"/>
        <pt x="175" y="235" on="0"/>
        <pt x="281" y="142" on="0"/>
      </contour>
      <contour>
        <pt x="378" y="241" on="1"/>
        <pt x="379" y="166" on="0"/>
        <pt x="392" y="38" on="0"/>
        <pt x="404" y="-4" on="1"/>
        <pt x="392" y="-11" on="0"/>
        <pt x="355" y="-19" on="0"/>
        <pt x="334" y="-19" on="1"/>
        <pt x="282" y="79" on="0"/>
        <pt x="150" y="194" on="0"/>
        <pt x="66" y="213" on="1"/>
        <pt x="50" y="231" on="0"/>
        <pt x="35" y="266" on="0"/>
        <pt x="33" y="289" on="1"/>
        <pt x="80" y="346" on="0"/>
        <pt x="248" y="465" on="0"/>
        <pt x="337" y="505" on="1"/>
        <pt x="339" y="519" on="0"/>
        <pt x="344" y="548" on="0"/>
        <pt x="346" y="562" on="1"/>
        <pt x="339" y="563" on="0"/>
        <pt x="321" y="563" on="0"/>
        <pt x="304" y="563" on="1"/>
        <pt x="232" y="563" on="0"/>
        <pt x="72" y="545" on="0"/>
        <pt x="0" y="530" on="1"/>
        <pt x="-2" y="536" on="0"/>
        <pt x="-5" y="554" on="0"/>
        <pt x="-5" y="562" on="1"/>
        <pt x="-5" y="569" on="0"/>
        <pt x="-2" y="585" on="0"/>
        <pt x="0" y="589" on="1"/>
        <pt x="67" y="606" on="0"/>
        <pt x="230" y="626" on="0"/>
        <pt x="305" y="626" on="1"/>
        <pt x="394" y="626" on="0"/>
        <pt x="581" y="605" on="0"/>
        <pt x="646" y="589" on="1"/>
        <pt x="649" y="585" on="0"/>
        <pt x="652" y="569" on="0"/>
        <pt x="652" y="561" on="1"/>
        <pt x="652" y="554" on="0"/>
        <pt x="649" y="537" on="0"/>
        <pt x="646" y="530" on="1"/>
        <pt x="598" y="541" on="0"/>
        <pt x="467" y="557" on="0"/>
        <pt x="399" y="560" on="1"/>
        <pt x="387" y="491" on="0"/>
        <pt x="378" y="384" on="0"/>
        <pt x="377" y="321" on="1"/>
        <pt x="393" y="274" on="0"/>
        <pt x="454" y="218" on="0"/>
        <pt x="489" y="218" on="1"/>
        <pt x="525" y="218" on="0"/>
        <pt x="571" y="275" on="0"/>
        <pt x="571" y="320" on="1"/>
        <pt x="571" y="354" on="0"/>
        <pt x="544" y="395" on="0"/>
        <pt x="522" y="395" on="1"/>
        <pt x="502" y="395" on="0"/>
        <pt x="472" y="358" on="0"/>
        <pt x="465" y="327" on="1"/>
        <pt x="455" y="340" on="0"/>
        <pt x="438" y="380" on="0"/>
        <pt x="436" y="398" on="1"/>
        <pt x="448" y="425" on="0"/>
        <pt x="491" y="456" on="0"/>
        <pt x="518" y="456" on="1"/>
        <pt x="563" y="456" on="0"/>
        <pt x="623" y="375" on="0"/>
        <pt x="623" y="312" on="1"/>
        <pt x="623" y="242" on="0"/>
        <pt x="554" y="152" on="0"/>
        <pt x="499" y="152" on="1"/>
        <pt x="462" y="152" on="0"/>
        <pt x="399" y="198" on="0"/>
      </contour>
      <contour>
        <pt x="257" y="-76" on="1"/>
        <pt x="220" y="-8" on="0"/>
        <pt x="87" y="97" on="0"/>
        <pt x="24" y="110" on="1"/>
        <pt x="26" y="126" on="0"/>
        <pt x="37" y="154" on="0"/>
        <pt x="45" y="165" on="1"/>
        <pt x="114" y="143" on="0"/>
        <pt x="252" y="20" on="0"/>
        <pt x="285" y="-51" on="1"/>
        <pt x="281" y="-59" on="0"/>
        <pt x="267" y="-71" on="0"/>
      </contour>
    </TTGlyph>
    <TTGlyph name="asa_ba_uukaar" xMin="-5" yMin="-76" xMax="652" yMax="626">
      <contour>
        <pt x="318" y="79" on="1"/>
        <pt x="316" y="99" on="0"/>
        <pt x="315" y="152" on="0"/>
        <pt x="315" y="185" on="1"/>
        <pt x="315" y="247" on="0"/>
        <pt x="320" y="362" on="0"/>
        <pt x="326" y="421" on="1"/>
        <pt x="272" y="395" on="0"/>
        <pt x="150" y="308" on="0"/>
        <pt x="108" y="264" on="1"/>
        <pt x="175" y="235" on="0"/>
        <pt x="281" y="142" on="0"/>
      </contour>
      <contour>
        <pt x="377" y="292" on="1"/>
        <pt x="377" y="197" on="0"/>
        <pt x="391" y="43" on="0"/>
        <pt x="404" y="-4" on="1"/>
        <pt x="392" y="-11" on="0"/>
        <pt x="355" y="-19" on="0"/>
        <pt x="334" y="-19" on="1"/>
        <pt x="282" y="79" on="0"/>
        <pt x="150" y="194" on="0"/>
        <pt x="66" y="213" on="1"/>
        <pt x="50" y="231" on="0"/>
        <pt x="35" y="266" on="0"/>
        <pt x="33" y="289" on="1"/>
        <pt x="80" y="346" on="0"/>
        <pt x="248" y="465" on="0"/>
        <pt x="337" y="505" on="1"/>
        <pt x="339" y="519" on="0"/>
        <pt x="344" y="548" on="0"/>
        <pt x="346" y="562" on="1"/>
        <pt x="339" y="563" on="0"/>
        <pt x="321" y="563" on="0"/>
        <pt x="304" y="563" on="1"/>
        <pt x="232" y="563" on="0"/>
        <pt x="72" y="545" on="0"/>
        <pt x="0" y="530" on="1"/>
        <pt x="-2" y="536" on="0"/>
        <pt x="-5" y="554" on="0"/>
        <pt x="-5" y="562" on="1"/>
        <pt x="-5" y="569" on="0"/>
        <pt x="-2" y="585" on="0"/>
        <pt x="0" y="589" on="1"/>
        <pt x="67" y="606" on="0"/>
        <pt x="230" y="626" on="0"/>
        <pt x="305" y="626" on="1"/>
        <pt x="394" y="626" on="0"/>
        <pt x="581" y="605" on="0"/>
        <pt x="646" y="589" on="1"/>
        <pt x="649" y="585" on="0"/>
        <pt x="652" y="569" on="0"/>
        <pt x="652" y="561" on="1"/>
        <pt x="652" y="554" on="0"/>
        <pt x="649" y="537" on="0"/>
        <pt x="646" y="530" on="1"/>
        <pt x="598" y="541" on="0"/>
        <pt x="467" y="557" on="0"/>
        <pt x="399" y="560" on="1"/>
        <pt x="393" y="527" on="0"/>
        <pt x="385" y="458" on="0"/>
        <pt x="381" y="416" on="1"/>
        <pt x="442" y="443" on="0"/>
        <pt x="502" y="467" on="0"/>
        <pt x="527" y="475" on="1"/>
        <pt x="557" y="423" on="1"/>
        <pt x="551" y="391" on="0"/>
        <pt x="544" y="332" on="0"/>
        <pt x="544" y="305" on="1"/>
        <pt x="544" y="252" on="0"/>
        <pt x="562" y="159" on="0"/>
        <pt x="580" y="116" on="1"/>
        <pt x="570" y="110" on="0"/>
        <pt x="535" y="104" on="0"/>
        <pt x="514" y="104" on="1"/>
        <pt x="502" y="148" on="0"/>
        <pt x="489" y="242" on="0"/>
        <pt x="489" y="290" on="1"/>
        <pt x="489" y="317" on="0"/>
        <pt x="494" y="371" on="0"/>
        <pt x="498" y="398" on="1"/>
        <pt x="477" y="390" on="0"/>
        <pt x="427" y="368" on="0"/>
        <pt x="378" y="344" on="1"/>
        <pt x="377" y="336" on="0"/>
        <pt x="377" y="314" on="0"/>
      </contour>
      <contour>
        <pt x="257" y="-76" on="1"/>
        <pt x="220" y="-8" on="0"/>
        <pt x="87" y="97" on="0"/>
        <pt x="24" y="110" on="1"/>
        <pt x="26" y="126" on="0"/>
        <pt x="37" y="154" on="0"/>
        <pt x="45" y="165" on="1"/>
        <pt x="114" y="143" on="0"/>
        <pt x="252" y="20" on="0"/>
        <pt x="285" y="-51" on="1"/>
        <pt x="281" y="-59" on="0"/>
        <pt x="267" y="-71" on="0"/>
      </contour>
    </TTGlyph>
    <TTGlyph name="asa_ra" xMin="-6" yMin="-19" xMax="471" yMax="619">
      <contour>
        <pt x="377" y="292" on="1"/>
        <pt x="377" y="197" on="0"/>
        <pt x="391" y="44" on="0"/>
        <pt x="404" y="-3" on="1"/>
        <pt x="392" y="-11" on="0"/>
        <pt x="355" y="-19" on="0"/>
        <pt x="333" y="-19" on="1"/>
        <pt x="282" y="79" on="0"/>
        <pt x="149" y="194" on="0"/>
        <pt x="65" y="213" on="1"/>
        <pt x="50" y="230" on="0"/>
        <pt x="35" y="266" on="0"/>
        <pt x="32" y="291" on="1"/>
        <pt x="78" y="346" on="0"/>
        <pt x="247" y="465" on="0"/>
        <pt x="337" y="505" on="1"/>
        <pt x="339" y="524" on="0"/>
        <pt x="342" y="542" on="0"/>
        <pt x="344" y="550" on="1"/>
        <pt x="319" y="553" on="0"/>
        <pt x="269" y="556" on="0"/>
        <pt x="244" y="556" on="1"/>
        <pt x="187" y="556" on="0"/>
        <pt x="55" y="542" on="0"/>
        <pt x="0" y="530" on="1"/>
        <pt x="-3" y="536" on="0"/>
        <pt x="-6" y="552" on="0"/>
        <pt x="-6" y="562" on="1"/>
        <pt x="-6" y="571" on="0"/>
        <pt x="-3" y="585" on="0"/>
        <pt x="0" y="589" on="1"/>
        <pt x="49" y="602" on="0"/>
        <pt x="187" y="619" on="0"/>
        <pt x="248" y="619" on="1"/>
        <pt x="300" y="619" on="0"/>
        <pt x="421" y="602" on="0"/>
        <pt x="466" y="589" on="1"/>
        <pt x="468" y="585" on="0"/>
        <pt x="471" y="570" on="0"/>
        <pt x="471" y="563" on="1"/>
        <pt x="471" y="556" on="0"/>
        <pt x="469" y="543" on="0"/>
        <pt x="466" y="530" on="1"/>
        <pt x="454" y="533" on="0"/>
        <pt x="423" y="539" on="0"/>
        <pt x="396" y="543" on="1"/>
        <pt x="386" y="485" on="0"/>
        <pt x="377" y="373" on="0"/>
      </contour>
      <contour>
        <pt x="197" y="346" on="1"/>
        <pt x="233" y="327" on="0"/>
        <pt x="293" y="270" on="0"/>
        <pt x="315" y="234" on="1"/>
        <pt x="317" y="297" on="0"/>
        <pt x="323" y="387" on="0"/>
        <pt x="327" y="425" on="1"/>
        <pt x="299" y="412" on="0"/>
        <pt x="231" y="371" on="0"/>
      </contour>
      <contour>
        <pt x="103" y="265" on="1"/>
        <pt x="173" y="235" on="0"/>
        <pt x="282" y="139" on="0"/>
        <pt x="319" y="75" on="1"/>
        <pt x="317" y="103" on="0"/>
        <pt x="315" y="149" on="0"/>
        <pt x="315" y="173" on="1"/>
        <pt x="284" y="227" on="0"/>
        <pt x="203" y="296" on="0"/>
        <pt x="153" y="311" on="1"/>
        <pt x="141" y="301" on="0"/>
        <pt x="116" y="278" on="0"/>
      </contour>
    </TTGlyph>
    <TTGlyph name="asa_ra.half" xMin="-5" yMin="140" xMax="472" yMax="619">
      <contour>
        <pt x="377" y="371" on="1"/>
        <pt x="377" y="301" on="0"/>
        <pt x="391" y="187" on="0"/>
        <pt x="404" y="151" on="1"/>
        <pt x="392" y="146" on="0"/>
        <pt x="355" y="140" on="0"/>
        <pt x="334" y="140" on="1"/>
        <pt x="282" y="214" on="0"/>
        <pt x="150" y="300" on="0"/>
        <pt x="66" y="313" on="1"/>
        <pt x="50" y="326" on="0"/>
        <pt x="34" y="354" on="0"/>
        <pt x="32" y="374" on="1"/>
        <pt x="78" y="415" on="0"/>
        <pt x="247" y="504" on="0"/>
        <pt x="338" y="534" on="1"/>
        <pt x="339" y="537" on="0"/>
        <pt x="340" y="544" on="0"/>
        <pt x="341" y="550" on="1"/>
        <pt x="317" y="553" on="0"/>
        <pt x="268" y="556" on="0"/>
        <pt x="244" y="556" on="1"/>
        <pt x="188" y="556" on="0"/>
        <pt x="56" y="542" on="0"/>
        <pt x="0" y="530" on="1"/>
        <pt x="-2" y="536" on="0"/>
        <pt x="-5" y="553" on="0"/>
        <pt x="-5" y="562" on="1"/>
        <pt x="-5" y="570" on="0"/>
        <pt x="-2" y="584" on="0"/>
        <pt x="0" y="589" on="1"/>
        <pt x="50" y="602" on="0"/>
        <pt x="188" y="619" on="0"/>
        <pt x="248" y="619" on="1"/>
        <pt x="301" y="619" on="0"/>
        <pt x="422" y="602" on="0"/>
        <pt x="467" y="589" on="1"/>
        <pt x="469" y="585" on="0"/>
        <pt x="472" y="570" on="0"/>
        <pt x="472" y="563" on="1"/>
        <pt x="472" y="556" on="0"/>
        <pt x="470" y="543" on="0"/>
        <pt x="467" y="530" on="1"/>
        <pt x="452" y="533" on="0"/>
        <pt x="397" y="544" on="0"/>
        <pt x="394" y="544" on="1"/>
        <pt x="385" y="500" on="0"/>
        <pt x="377" y="421" on="0"/>
      </contour>
      <contour>
        <pt x="208" y="414" on="1"/>
        <pt x="242" y="399" on="0"/>
        <pt x="296" y="360" on="0"/>
        <pt x="316" y="336" on="1"/>
        <pt x="317" y="373" on="0"/>
        <pt x="322" y="438" on="0"/>
        <pt x="326" y="468" on="1"/>
        <pt x="299" y="458" on="0"/>
        <pt x="238" y="430" on="0"/>
      </contour>
      <contour>
        <pt x="117" y="358" on="1"/>
        <pt x="178" y="338" on="0"/>
        <pt x="280" y="266" on="0"/>
        <pt x="318" y="215" on="1"/>
        <pt x="317" y="230" on="0"/>
        <pt x="315" y="266" on="0"/>
        <pt x="315" y="285" on="1"/>
        <pt x="285" y="324" on="0"/>
        <pt x="207" y="375" on="0"/>
        <pt x="160" y="386" on="1"/>
        <pt x="150" y="380" on="0"/>
        <pt x="129" y="366" on="0"/>
      </contour>
    </TTGlyph>
    <TTGlyph name="asa_ra_ukaar" xMin="-5" yMin="-19" xMax="652" yMax="626">
      <contour>
        <pt x="201" y="344" on="1"/>
        <pt x="236" y="325" on="0"/>
        <pt x="294" y="269" on="0"/>
        <pt x="315" y="234" on="1"/>
        <pt x="317" y="293" on="0"/>
        <pt x="322" y="382" on="0"/>
        <pt x="326" y="421" on="1"/>
        <pt x="296" y="407" on="0"/>
        <pt x="231" y="367" on="0"/>
      </contour>
      <contour>
        <pt x="108" y="264" on="1"/>
        <pt x="175" y="235" on="0"/>
        <pt x="281" y="142" on="0"/>
        <pt x="318" y="79" on="1"/>
        <pt x="316" y="98" on="0"/>
        <pt x="315" y="144" on="0"/>
        <pt x="315" y="173" on="1"/>
        <pt x="285" y="225" on="0"/>
        <pt x="206" y="294" on="0"/>
        <pt x="157" y="309" on="1"/>
        <pt x="148" y="302" on="0"/>
        <pt x="127" y="283" on="0"/>
      </contour>
      <contour>
        <pt x="378" y="241" on="1"/>
        <pt x="379" y="166" on="0"/>
        <pt x="392" y="38" on="0"/>
        <pt x="404" y="-4" on="1"/>
        <pt x="392" y="-11" on="0"/>
        <pt x="355" y="-19" on="0"/>
        <pt x="334" y="-19" on="1"/>
        <pt x="282" y="79" on="0"/>
        <pt x="150" y="194" on="0"/>
        <pt x="66" y="213" on="1"/>
        <pt x="50" y="231" on="0"/>
        <pt x="35" y="266" on="0"/>
        <pt x="33" y="289" on="1"/>
        <pt x="80" y="346" on="0"/>
        <pt x="248" y="465" on="0"/>
        <pt x="337" y="505" on="1"/>
        <pt x="339" y="519" on="0"/>
        <pt x="344" y="548" on="0"/>
        <pt x="346" y="562" on="1"/>
        <pt x="339" y="563" on="0"/>
        <pt x="321" y="563" on="0"/>
        <pt x="304" y="563" on="1"/>
        <pt x="232" y="563" on="0"/>
        <pt x="72" y="545" on="0"/>
        <pt x="0" y="530" on="1"/>
        <pt x="-2" y="536" on="0"/>
        <pt x="-5" y="554" on="0"/>
        <pt x="-5" y="562" on="1"/>
        <pt x="-5" y="569" on="0"/>
        <pt x="-2" y="585" on="0"/>
        <pt x="0" y="589" on="1"/>
        <pt x="67" y="606" on="0"/>
        <pt x="230" y="626" on="0"/>
        <pt x="305" y="626" on="1"/>
        <pt x="394" y="626" on="0"/>
        <pt x="581" y="605" on="0"/>
        <pt x="646" y="589" on="1"/>
        <pt x="649" y="585" on="0"/>
        <pt x="652" y="569" on="0"/>
        <pt x="652" y="561" on="1"/>
        <pt x="652" y="554" on="0"/>
        <pt x="649" y="537" on="0"/>
        <pt x="646" y="530" on="1"/>
        <pt x="598" y="541" on="0"/>
        <pt x="467" y="557" on="0"/>
        <pt x="399" y="560" on="1"/>
        <pt x="387" y="491" on="0"/>
        <pt x="378" y="384" on="0"/>
        <pt x="377" y="321" on="1"/>
        <pt x="393" y="274" on="0"/>
        <pt x="454" y="218" on="0"/>
        <pt x="489" y="218" on="1"/>
        <pt x="525" y="218" on="0"/>
        <pt x="571" y="275" on="0"/>
        <pt x="571" y="320" on="1"/>
        <pt x="571" y="354" on="0"/>
        <pt x="544" y="395" on="0"/>
        <pt x="522" y="395" on="1"/>
        <pt x="502" y="395" on="0"/>
        <pt x="472" y="358" on="0"/>
        <pt x="465" y="327" on="1"/>
        <pt x="455" y="340" on="0"/>
        <pt x="438" y="380" on="0"/>
        <pt x="436" y="398" on="1"/>
        <pt x="448" y="425" on="0"/>
        <pt x="491" y="456" on="0"/>
        <pt x="518" y="456" on="1"/>
        <pt x="563" y="456" on="0"/>
        <pt x="623" y="375" on="0"/>
        <pt x="623" y="312" on="1"/>
        <pt x="623" y="242" on="0"/>
        <pt x="554" y="152" on="0"/>
        <pt x="499" y="152" on="1"/>
        <pt x="462" y="152" on="0"/>
        <pt x="399" y="198" on="0"/>
      </contour>
    </TTGlyph>
    <TTGlyph name="asa_ra_uukaar" xMin="-5" yMin="-19" xMax="652" yMax="626">
      <contour>
        <pt x="201" y="344" on="1"/>
        <pt x="236" y="325" on="0"/>
        <pt x="294" y="269" on="0"/>
        <pt x="315" y="234" on="1"/>
        <pt x="317" y="293" on="0"/>
        <pt x="322" y="382" on="0"/>
        <pt x="326" y="421" on="1"/>
        <pt x="296" y="407" on="0"/>
        <pt x="231" y="367" on="0"/>
      </contour>
      <contour>
        <pt x="377" y="292" on="1"/>
        <pt x="377" y="197" on="0"/>
        <pt x="391" y="43" on="0"/>
        <pt x="404" y="-4" on="1"/>
        <pt x="392" y="-11" on="0"/>
        <pt x="355" y="-19" on="0"/>
        <pt x="334" y="-19" on="1"/>
        <pt x="282" y="79" on="0"/>
        <pt x="150" y="194" on="0"/>
        <pt x="66" y="213" on="1"/>
        <pt x="50" y="231" on="0"/>
        <pt x="35" y="266" on="0"/>
        <pt x="33" y="289" on="1"/>
        <pt x="80" y="346" on="0"/>
        <pt x="248" y="465" on="0"/>
        <pt x="337" y="505" on="1"/>
        <pt x="339" y="519" on="0"/>
        <pt x="344" y="548" on="0"/>
        <pt x="346" y="562" on="1"/>
        <pt x="339" y="563" on="0"/>
        <pt x="321" y="563" on="0"/>
        <pt x="304" y="563" on="1"/>
        <pt x="232" y="563" on="0"/>
        <pt x="72" y="545" on="0"/>
        <pt x="0" y="530" on="1"/>
        <pt x="-2" y="536" on="0"/>
        <pt x="-5" y="554" on="0"/>
        <pt x="-5" y="562" on="1"/>
        <pt x="-5" y="569" on="0"/>
        <pt x="-2" y="585" on="0"/>
        <pt x="0" y="589" on="1"/>
        <pt x="67" y="606" on="0"/>
        <pt x="230" y="626" on="0"/>
        <pt x="305" y="626" on="1"/>
        <pt x="394" y="626" on="0"/>
        <pt x="581" y="605" on="0"/>
        <pt x="646" y="589" on="1"/>
        <pt x="649" y="585" on="0"/>
        <pt x="652" y="569" on="0"/>
        <pt x="652" y="561" on="1"/>
        <pt x="652" y="554" on="0"/>
        <pt x="649" y="537" on="0"/>
        <pt x="646" y="530" on="1"/>
        <pt x="598" y="541" on="0"/>
        <pt x="467" y="557" on="0"/>
        <pt x="399" y="560" on="1"/>
        <pt x="393" y="527" on="0"/>
        <pt x="385" y="458" on="0"/>
        <pt x="381" y="416" on="1"/>
        <pt x="442" y="443" on="0"/>
        <pt x="502" y="467" on="0"/>
        <pt x="527" y="475" on="1"/>
        <pt x="557" y="423" on="1"/>
        <pt x="551" y="391" on="0"/>
        <pt x="544" y="332" on="0"/>
        <pt x="544" y="305" on="1"/>
        <pt x="544" y="252" on="0"/>
        <pt x="562" y="159" on="0"/>
        <pt x="580" y="116" on="1"/>
        <pt x="570" y="110" on="0"/>
        <pt x="535" y="104" on="0"/>
        <pt x="514" y="104" on="1"/>
        <pt x="502" y="148" on="0"/>
        <pt x="489" y="242" on="0"/>
        <pt x="489" y="290" on="1"/>
        <pt x="489" y="317" on="0"/>
        <pt x="494" y="371" on="0"/>
        <pt x="498" y="398" on="1"/>
        <pt x="477" y="390" on="0"/>
        <pt x="427" y="368" on="0"/>
        <pt x="378" y="344" on="1"/>
        <pt x="377" y="336" on="0"/>
        <pt x="377" y="314" on="0"/>
      </contour>
      <contour>
        <pt x="108" y="264" on="1"/>
        <pt x="175" y="235" on="0"/>
        <pt x="281" y="142" on="0"/>
        <pt x="318" y="79" on="1"/>
        <pt x="316" y="98" on="0"/>
        <pt x="315" y="144" on="0"/>
        <pt x="315" y="173" on="1"/>
        <pt x="285" y="225" on="0"/>
        <pt x="206" y="294" on="0"/>
        <pt x="157" y="309" on="1"/>
        <pt x="148" y="302" on="0"/>
        <pt x="127" y="283" on="0"/>
      </contour>
    </TTGlyph>
    <TTGlyph name="asciicircum" xMin="24" yMin="201" xMax="370" yMax="505">
      <contour>
        <pt x="370" y="217" on="1"/>
        <pt x="342" y="206" on="0"/>
        <pt x="329" y="202" on="0"/>
        <pt x="322" y="201" on="1"/>
        <pt x="293" y="269" on="0"/>
        <pt x="232" y="384" on="0"/>
        <pt x="195" y="439" on="1"/>
        <pt x="165" y="396" on="0"/>
        <pt x="106" y="283" on="0"/>
        <pt x="72" y="203" on="1"/>
        <pt x="60" y="204" on="0"/>
        <pt x="37" y="212" on="0"/>
        <pt x="24" y="220" on="1"/>
        <pt x="57" y="306" on="0"/>
        <pt x="135" y="450" on="0"/>
        <pt x="178" y="505" on="1"/>
        <pt x="217" y="502" on="1"/>
        <pt x="261" y="442" on="0"/>
        <pt x="336" y="301" on="0"/>
      </contour>
    </TTGlyph>
    <TTGlyph name="asciitilde" xMin="25" yMin="275" xMax="328" yMax="378">
      <contour>
        <pt x="182" y="349" on="1"/>
        <pt x="207" y="339" on="0"/>
        <pt x="229" y="333" on="0"/>
        <pt x="238" y="333" on="1"/>
        <pt x="259" y="333" on="0"/>
        <pt x="281" y="356" on="0"/>
        <pt x="279" y="377" on="1"/>
        <pt x="291" y="378" on="0"/>
        <pt x="311" y="374" on="0"/>
        <pt x="324" y="369" on="1"/>
        <pt x="328" y="331" on="0"/>
        <pt x="284" y="282" on="0"/>
        <pt x="246" y="282" on="1"/>
        <pt x="230" y="282" on="0"/>
        <pt x="194" y="290" on="0"/>
        <pt x="162" y="303" on="1"/>
        <pt x="138" y="313" on="0"/>
        <pt x="118" y="318" on="0"/>
        <pt x="110" y="318" on="1"/>
        <pt x="88" y="318" on="0"/>
        <pt x="69" y="298" on="0"/>
        <pt x="71" y="276" on="1"/>
        <pt x="63" y="275" on="0"/>
        <pt x="43" y="279" on="0"/>
        <pt x="29" y="283" on="1"/>
        <pt x="25" y="321" on="0"/>
        <pt x="67" y="369" on="0"/>
        <pt x="105" y="369" on="1"/>
        <pt x="119" y="369" on="0"/>
        <pt x="151" y="361" on="0"/>
      </contour>
    </TTGlyph>
    <TTGlyph name="asterisk" xMin="31" yMin="309" xMax="408" yMax="712">
      <contour>
        <pt x="241" y="470" on="1"/>
        <pt x="242" y="430" on="0"/>
        <pt x="247" y="358" on="0"/>
        <pt x="251" y="315" on="1"/>
        <pt x="243" y="313" on="0"/>
        <pt x="219" y="309" on="0"/>
        <pt x="210" y="309" on="1"/>
        <pt x="206" y="309" on="0"/>
        <pt x="198" y="310" on="0"/>
        <pt x="187" y="312" on="1"/>
        <pt x="186" y="339" on="0"/>
        <pt x="189" y="406" on="0"/>
        <pt x="194" y="469" on="1"/>
        <pt x="158" y="447" on="0"/>
        <pt x="98" y="407" on="0"/>
        <pt x="65" y="384" on="1"/>
        <pt x="48" y="406" on="0"/>
        <pt x="42" y="415" on="0"/>
        <pt x="40" y="419" on="1"/>
        <pt x="38" y="423" on="0"/>
        <pt x="33" y="435" on="0"/>
        <pt x="31" y="439" on="1"/>
        <pt x="60" y="457" on="0"/>
        <pt x="123" y="490" on="0"/>
        <pt x="171" y="513" on="1"/>
        <pt x="137" y="532" on="0"/>
        <pt x="74" y="563" on="0"/>
        <pt x="34" y="581" on="1"/>
        <pt x="37" y="592" on="0"/>
        <pt x="46" y="613" on="0"/>
        <pt x="50" y="620" on="1"/>
        <pt x="53" y="625" on="0"/>
        <pt x="61" y="636" on="0"/>
        <pt x="63" y="638" on="1"/>
        <pt x="92" y="623" on="0"/>
        <pt x="154" y="584" on="0"/>
        <pt x="197" y="554" on="1"/>
        <pt x="195" y="609" on="0"/>
        <pt x="191" y="675" on="0"/>
        <pt x="188" y="707" on="1"/>
        <pt x="196" y="709" on="0"/>
        <pt x="219" y="712" on="0"/>
        <pt x="229" y="712" on="1"/>
        <pt x="235" y="712" on="0"/>
        <pt x="250" y="710" on="0"/>
        <pt x="252" y="710" on="1"/>
        <pt x="253" y="676" on="0"/>
        <pt x="250" y="605" on="0"/>
        <pt x="245" y="551" on="1"/>
        <pt x="279" y="571" on="0"/>
        <pt x="339" y="611" on="0"/>
        <pt x="374" y="637" on="1"/>
        <pt x="384" y="626" on="0"/>
        <pt x="396" y="609" on="0"/>
        <pt x="399" y="603" on="1"/>
        <pt x="402" y="598" on="0"/>
        <pt x="406" y="586" on="0"/>
        <pt x="408" y="582" on="1"/>
        <pt x="381" y="566" on="0"/>
        <pt x="318" y="533" on="0"/>
        <pt x="267" y="510" on="1"/>
        <pt x="304" y="490" on="0"/>
        <pt x="368" y="458" on="0"/>
        <pt x="405" y="441" on="1"/>
        <pt x="402" y="430" on="0"/>
        <pt x="393" y="409" on="0"/>
        <pt x="389" y="402" on="1"/>
        <pt x="386" y="396" on="0"/>
        <pt x="377" y="384" on="0"/>
        <pt x="376" y="383" on="1"/>
        <pt x="347" y="399" on="0"/>
        <pt x="286" y="438" on="0"/>
      </contour>
    </TTGlyph>
    <TTGlyph name="at" xMin="42" yMin="-97" xMax="817" yMax="720">
      <contour>
        <pt x="640" y="-36" on="1"/>
        <pt x="591" y="-66" on="0"/>
        <pt x="476" y="-97" on="0"/>
        <pt x="413" y="-97" on="1"/>
        <pt x="246" y="-97" on="0"/>
        <pt x="42" y="115" on="0"/>
        <pt x="42" y="289" on="1"/>
        <pt x="42" y="486" on="0"/>
        <pt x="265" y="720" on="0"/>
        <pt x="455" y="720" on="1"/>
        <pt x="624" y="720" on="0"/>
        <pt x="817" y="520" on="0"/>
        <pt x="817" y="356" on="1"/>
        <pt x="817" y="237" on="0"/>
        <pt x="707" y="85" on="0"/>
        <pt x="624" y="85" on="1"/>
        <pt x="576" y="85" on="0"/>
        <pt x="513" y="136" on="0"/>
        <pt x="500" y="186" on="1"/>
        <pt x="482" y="140" on="0"/>
        <pt x="427" y="96" on="0"/>
        <pt x="388" y="96" on="1"/>
        <pt x="328" y="96" on="0"/>
        <pt x="254" y="205" on="0"/>
        <pt x="254" y="293" on="1"/>
        <pt x="254" y="401" on="0"/>
        <pt x="353" y="532" on="0"/>
        <pt x="433" y="532" on="1"/>
        <pt x="445" y="532" on="0"/>
        <pt x="472" y="527" on="0"/>
        <pt x="486" y="523" on="1"/>
        <pt x="486" y="530" on="0"/>
        <pt x="486" y="543" on="0"/>
        <pt x="486" y="549" on="1"/>
        <pt x="505" y="555" on="0"/>
        <pt x="544" y="557" on="0"/>
        <pt x="563" y="553" on="1"/>
        <pt x="557" y="471" on="0"/>
        <pt x="552" y="358" on="0"/>
        <pt x="552" y="310" on="1"/>
        <pt x="552" y="218" on="0"/>
        <pt x="587" y="134" on="0"/>
        <pt x="627" y="134" on="1"/>
        <pt x="682" y="134" on="0"/>
        <pt x="753" y="259" on="0"/>
        <pt x="753" y="358" on="1"/>
        <pt x="753" y="498" on="0"/>
        <pt x="587" y="667" on="0"/>
        <pt x="443" y="667" on="1"/>
        <pt x="293" y="667" on="0"/>
        <pt x="108" y="468" on="0"/>
        <pt x="108" y="305" on="1"/>
        <pt x="108" y="143" on="0"/>
        <pt x="275" y="-44" on="0"/>
        <pt x="421" y="-44" on="1"/>
        <pt x="479" y="-44" on="0"/>
        <pt x="569" y="-16" on="0"/>
        <pt x="605" y="13" on="1"/>
        <pt x="613" y="6" on="0"/>
        <pt x="626" y="-11" on="0"/>
      </contour>
      <contour>
        <pt x="323" y="303" on="1"/>
        <pt x="323" y="231" on="0"/>
        <pt x="363" y="149" on="0"/>
        <pt x="398" y="149" on="1"/>
        <pt x="431" y="149" on="0"/>
        <pt x="478" y="206" on="0"/>
        <pt x="491" y="263" on="1"/>
        <pt x="491" y="265" on="0"/>
        <pt x="488" y="423" on="0"/>
        <pt x="487" y="475" on="1"/>
        <pt x="476" y="479" on="0"/>
        <pt x="454" y="482" on="0"/>
        <pt x="441" y="482" on="1"/>
        <pt x="389" y="482" on="0"/>
        <pt x="323" y="384" on="0"/>
      </contour>
    </TTGlyph>
    <TTGlyph name="atilde" xMin="27" yMin="-34" xMax="395" yMax="689">
      <component glyphName="a" x="0" y="0" flags="0x204"/>
      <component glyphName="tilde" x="113" y="-43" flags="0x4"/>
    </TTGlyph>
    <TTGlyph name="b" xMin="55" yMin="-34" xMax="408" yMax="721">
      <contour>
        <pt x="408" y="300" on="1"/>
        <pt x="408" y="148" on="0"/>
        <pt x="283" y="-34" on="0"/>
        <pt x="181" y="-34" on="1"/>
        <pt x="146" y="-34" on="0"/>
        <pt x="88" y="-12" on="0"/>
        <pt x="62" y="11" on="1"/>
        <pt x="59" y="66" on="0"/>
        <pt x="55" y="218" on="0"/>
        <pt x="55" y="319" on="1"/>
        <pt x="55" y="429" on="0"/>
        <pt x="65" y="648" on="0"/>
        <pt x="73" y="713" on="1"/>
        <pt x="84" y="717" on="0"/>
        <pt x="111" y="721" on="0"/>
        <pt x="128" y="721" on="1"/>
        <pt x="136" y="721" on="0"/>
        <pt x="150" y="719" on="0"/>
        <pt x="164" y="716" on="1"/>
        <pt x="155" y="661" on="0"/>
        <pt x="139" y="520" on="0"/>
        <pt x="133" y="436" on="1"/>
        <pt x="158" y="474" on="0"/>
        <pt x="224" y="511" on="0"/>
        <pt x="266" y="511" on="1"/>
        <pt x="335" y="511" on="0"/>
        <pt x="408" y="403" on="0"/>
      </contour>
      <contour>
        <pt x="127" y="44" on="1"/>
        <pt x="139" y="33" on="0"/>
        <pt x="169" y="23" on="0"/>
        <pt x="186" y="23" on="1"/>
        <pt x="254" y="23" on="0"/>
        <pt x="328" y="171" on="0"/>
        <pt x="328" y="304" on="1"/>
        <pt x="328" y="379" on="0"/>
        <pt x="284" y="454" on="0"/>
        <pt x="240" y="454" on="1"/>
        <pt x="208" y="454" on="0"/>
        <pt x="147" y="389" on="0"/>
        <pt x="128" y="333" on="1"/>
        <pt x="127" y="301" on="0"/>
        <pt x="125" y="239" on="0"/>
        <pt x="125" y="210" on="1"/>
        <pt x="125" y="130" on="0"/>
        <pt x="126" y="68" on="0"/>
      </contour>
    </TTGlyph>
    <TTGlyph name="backslash" xMin="7" yMin="-199" xMax="498" yMax="747">
      <contour>
        <pt x="63" y="747" on="1"/>
        <pt x="48" y="742" on="0"/>
        <pt x="20" y="726" on="0"/>
        <pt x="7" y="715" on="1"/>
        <pt x="94" y="506" on="0"/>
        <pt x="320" y="30" on="0"/>
        <pt x="440" y="-199" on="1"/>
        <pt x="455" y="-195" on="0"/>
        <pt x="484" y="-180" on="0"/>
        <pt x="498" y="-170" on="1"/>
        <pt x="414" y="-23" on="0"/>
        <pt x="190" y="450" on="0"/>
      </contour>
    </TTGlyph>
    <TTGlyph name="bar" xMin="93" yMin="-171" xMax="171" yMax="727">
      <contour>
        <pt x="171" y="-163" on="1"/>
        <pt x="160" y="-166" on="0"/>
        <pt x="125" y="-171" on="0"/>
        <pt x="114" y="-170" on="1"/>
        <pt x="103" y="9" on="0"/>
        <pt x="93" y="467" on="0"/>
        <pt x="94" y="713" on="1"/>
        <pt x="109" y="721" on="0"/>
        <pt x="150" y="727" on="0"/>
        <pt x="170" y="725" on="1"/>
        <pt x="161" y="562" on="0"/>
        <pt x="163" y="27" on="0"/>
      </contour>
    </TTGlyph>
    <TTGlyph name="bn_a" xMin="-5" yMin="-21" xMax="637" yMax="624">
      <contour>
        <pt x="569" y="422" on="1"/>
        <pt x="569" y="293" on="0"/>
        <pt x="531" y="42" on="0"/>
        <pt x="501" y="-21" on="1"/>
        <pt x="486" y="-21" on="0"/>
        <pt x="455" y="-13" on="0"/>
        <pt x="444" y="-7" on="1"/>
        <pt x="424" y="28" on="0"/>
        <pt x="383" y="85" on="0"/>
        <pt x="361" y="107" on="1"/>
        <pt x="345" y="98" on="0"/>
        <pt x="311" y="88" on="0"/>
        <pt x="292" y="88" on="1"/>
        <pt x="208" y="88" on="0"/>
        <pt x="69" y="261" on="0"/>
        <pt x="15" y="433" on="1"/>
        <pt x="26" y="443" on="0"/>
        <pt x="50" y="457" on="0"/>
        <pt x="61" y="462" on="1"/>
        <pt x="110" y="310" on="0"/>
        <pt x="224" y="158" on="0"/>
        <pt x="289" y="158" on="1"/>
        <pt x="334" y="158" on="0"/>
        <pt x="380" y="227" on="0"/>
        <pt x="380" y="293" on="1"/>
        <pt x="380" y="362" on="0"/>
        <pt x="336" y="447" on="0"/>
        <pt x="300" y="447" on="1"/>
        <pt x="278" y="447" on="0"/>
        <pt x="254" y="410" on="0"/>
        <pt x="254" y="375" on="1"/>
        <pt x="254" y="357" on="0"/>
        <pt x="264" y="320" on="0"/>
        <pt x="273" y="306" on="1"/>
        <pt x="256" y="306" on="0"/>
        <pt x="220" y="312" on="0"/>
        <pt x="210" y="317" on="1"/>
        <pt x="203" y="330" on="0"/>
        <pt x="196" y="363" on="0"/>
        <pt x="196" y="381" on="1"/>
        <pt x="196" y="432" on="0"/>
        <pt x="248" y="498" on="0"/>
        <pt x="288" y="498" on="1"/>
        <pt x="351" y="498" on="0"/>
        <pt x="434" y="366" on="0"/>
        <pt x="434" y="274" on="1"/>
        <pt x="434" y="236" on="0"/>
        <pt x="416" y="169" on="0"/>
        <pt x="399" y="144" on="1"/>
        <pt x="418" y="120" on="0"/>
        <pt x="450" y="67" on="0"/>
        <pt x="464" y="38" on="1"/>
        <pt x="484" y="105" on="0"/>
        <pt x="503" y="289" on="0"/>
        <pt x="503" y="410" on="1"/>
        <pt x="503" y="445" on="0"/>
        <pt x="501" y="511" on="0"/>
        <pt x="498" y="551" on="1"/>
        <pt x="454" y="556" on="0"/>
        <pt x="363" y="562" on="0"/>
        <pt x="317" y="562" on="1"/>
        <pt x="239" y="562" on="0"/>
        <pt x="83" y="546" on="0"/>
        <pt x="0" y="530" on="1"/>
        <pt x="-2" y="536" on="0"/>
        <pt x="-5" y="554" on="0"/>
        <pt x="-5" y="564" on="1"/>
        <pt x="-5" y="571" on="0"/>
        <pt x="-2" y="584" on="0"/>
        <pt x="0" y="589" on="1"/>
        <pt x="77" y="606" on="0"/>
        <pt x="238" y="624" on="0"/>
        <pt x="320" y="624" on="1"/>
        <pt x="403" y="624" on="0"/>
        <pt x="569" y="605" on="0"/>
        <pt x="632" y="589" on="1"/>
        <pt x="635" y="583" on="0"/>
        <pt x="637" y="571" on="0"/>
        <pt x="637" y="564" on="1"/>
        <pt x="637" y="557" on="0"/>
        <pt x="635" y="542" on="0"/>
        <pt x="632" y="530" on="1"/>
        <pt x="621" y="532" on="0"/>
        <pt x="594" y="537" on="0"/>
        <pt x="566" y="542" on="1"/>
        <pt x="568" y="514" on="0"/>
        <pt x="569" y="454" on="0"/>
      </contour>
    </TTGlyph>
    <TTGlyph name="bn_aa" xMin="-5" yMin="-36" xMax="870" yMax="628">
      <contour>
        <pt x="790" y="485" on="1"/>
        <pt x="775" y="357" on="0"/>
        <pt x="771" y="100" on="0"/>
        <pt x="783" y="-29" on="1"/>
        <pt x="766" y="-33" on="0"/>
        <pt x="718" y="-36" on="0"/>
        <pt x="701" y="-35" on="1"/>
        <pt x="704" y="156" on="0"/>
        <pt x="715" y="354" on="0"/>
        <pt x="726" y="458" on="1"/>
        <pt x="719" y="488" on="0"/>
        <pt x="642" y="533" on="0"/>
        <pt x="572" y="547" on="1"/>
        <pt x="563" y="501" on="0"/>
        <pt x="553" y="370" on="0"/>
        <pt x="553" y="296" on="1"/>
        <pt x="553" y="199" on="0"/>
        <pt x="566" y="44" on="0"/>
        <pt x="579" y="-4" on="1"/>
        <pt x="567" y="-11" on="0"/>
        <pt x="530" y="-19" on="0"/>
        <pt x="509" y="-19" on="1"/>
        <pt x="484" y="25" on="0"/>
        <pt x="423" y="97" on="0"/>
        <pt x="389" y="125" on="1"/>
        <pt x="370" y="104" on="0"/>
        <pt x="321" y="83" on="0"/>
        <pt x="293" y="83" on="1"/>
        <pt x="209" y="83" on="0"/>
        <pt x="70" y="256" on="0"/>
        <pt x="16" y="428" on="1"/>
        <pt x="27" y="438" on="0"/>
        <pt x="51" y="452" on="0"/>
        <pt x="62" y="457" on="1"/>
        <pt x="111" y="305" on="0"/>
        <pt x="225" y="153" on="0"/>
        <pt x="290" y="153" on="1"/>
        <pt x="334" y="153" on="0"/>
        <pt x="380" y="222" on="0"/>
        <pt x="380" y="288" on="1"/>
        <pt x="380" y="356" on="0"/>
        <pt x="337" y="441" on="0"/>
        <pt x="301" y="441" on="1"/>
        <pt x="278" y="441" on="0"/>
        <pt x="254" y="404" on="0"/>
        <pt x="254" y="370" on="1"/>
        <pt x="254" y="353" on="0"/>
        <pt x="265" y="315" on="0"/>
        <pt x="274" y="301" on="1"/>
        <pt x="256" y="301" on="0"/>
        <pt x="220" y="307" on="0"/>
        <pt x="210" y="312" on="1"/>
        <pt x="204" y="325" on="0"/>
        <pt x="197" y="359" on="0"/>
        <pt x="197" y="376" on="1"/>
        <pt x="197" y="427" on="0"/>
        <pt x="249" y="493" on="0"/>
        <pt x="289" y="493" on="1"/>
        <pt x="351" y="493" on="0"/>
        <pt x="435" y="360" on="0"/>
        <pt x="435" y="269" on="1"/>
        <pt x="435" y="240" on="0"/>
        <pt x="425" y="188" on="0"/>
        <pt x="415" y="165" on="1"/>
        <pt x="438" y="144" on="0"/>
        <pt x="478" y="96" on="0"/>
        <pt x="496" y="68" on="1"/>
        <pt x="494" y="90" on="0"/>
        <pt x="492" y="148" on="0"/>
        <pt x="492" y="192" on="1"/>
        <pt x="492" y="300" on="0"/>
        <pt x="507" y="495" on="0"/>
        <pt x="521" y="555" on="1"/>
        <pt x="481" y="560" on="0"/>
        <pt x="392" y="565" on="0"/>
        <pt x="347" y="565" on="1"/>
        <pt x="262" y="565" on="0"/>
        <pt x="85" y="547" on="0"/>
        <pt x="0" y="530" on="1"/>
        <pt x="-5" y="546" on="0"/>
        <pt x="-5" y="581" on="0"/>
        <pt x="0" y="589" on="1"/>
        <pt x="77" y="608" on="0"/>
        <pt x="260" y="628" on="0"/>
        <pt x="350" y="628" on="1"/>
        <pt x="488" y="628" on="0"/>
        <pt x="705" y="578" on="0"/>
        <pt x="754" y="534" on="1"/>
        <pt x="771" y="552" on="0"/>
        <pt x="828" y="580" on="0"/>
        <pt x="866" y="589" on="1"/>
        <pt x="870" y="581" on="0"/>
        <pt x="870" y="544" on="0"/>
        <pt x="866" y="530" on="1"/>
        <pt x="838" y="522" on="0"/>
        <pt x="799" y="499" on="0"/>
      </contour>
    </TTGlyph>
    <TTGlyph name="bn_aakaar" xMin="-4" yMin="-54" xMax="238" yMax="589">
      <contour>
        <pt x="159" y="488" on="1"/>
        <pt x="158" y="357" on="0"/>
        <pt x="148" y="82" on="0"/>
        <pt x="138" y="-54" on="1"/>
        <pt x="118" y="-54" on="0"/>
        <pt x="69" y="-47" on="0"/>
        <pt x="56" y="-43" on="1"/>
        <pt x="75" y="58" on="0"/>
        <pt x="95" y="295" on="0"/>
        <pt x="97" y="448" on="1"/>
        <pt x="94" y="478" on="0"/>
        <pt x="44" y="520" on="0"/>
        <pt x="0" y="530" on="1"/>
        <pt x="-4" y="542" on="0"/>
        <pt x="-4" y="579" on="0"/>
        <pt x="0" y="589" on="1"/>
        <pt x="37" y="580" on="0"/>
        <pt x="100" y="552" on="0"/>
        <pt x="121" y="534" on="1"/>
        <pt x="138" y="551" on="0"/>
        <pt x="196" y="580" on="0"/>
        <pt x="233" y="589" on="1"/>
        <pt x="238" y="581" on="0"/>
        <pt x="237" y="545" on="0"/>
        <pt x="233" y="530" on="1"/>
        <pt x="207" y="523" on="0"/>
        <pt x="169" y="502" on="0"/>
      </contour>
    </TTGlyph>
    <TTGlyph name="bn_aakaar.b" xMin="-4" yMin="-54" xMax="238" yMax="595">
      <contour>
        <pt x="159" y="488" on="1"/>
        <pt x="158" y="357" on="0"/>
        <pt x="148" y="82" on="0"/>
        <pt x="138" y="-54" on="1"/>
        <pt x="118" y="-54" on="0"/>
        <pt x="69" y="-47" on="0"/>
        <pt x="56" y="-43" on="1"/>
        <pt x="75" y="58" on="0"/>
        <pt x="95" y="294" on="0"/>
        <pt x="97" y="446" on="1"/>
        <pt x="94" y="487" on="0"/>
        <pt x="61" y="536" on="0"/>
        <pt x="36" y="536" on="1"/>
        <pt x="28" y="536" on="0"/>
        <pt x="11" y="533" on="0"/>
        <pt x="0" y="530" on="1"/>
        <pt x="-2" y="536" on="0"/>
        <pt x="-4" y="553" on="0"/>
        <pt x="-4" y="561" on="1"/>
        <pt x="-4" y="570" on="0"/>
        <pt x="-2" y="584" on="0"/>
        <pt x="0" y="589" on="1"/>
        <pt x="10" y="592" on="0"/>
        <pt x="30" y="594" on="0"/>
        <pt x="41" y="594" on="1"/>
        <pt x="66" y="595" on="0"/>
        <pt x="113" y="566" on="0"/>
        <pt x="127" y="540" on="1"/>
        <pt x="145" y="556" on="0"/>
        <pt x="200" y="581" on="0"/>
        <pt x="233" y="589" on="1"/>
        <pt x="238" y="581" on="0"/>
        <pt x="237" y="545" on="0"/>
        <pt x="233" y="530" on="1"/>
        <pt x="207" y="523" on="0"/>
        <pt x="169" y="502" on="0"/>
      </contour>
    </TTGlyph>
    <TTGlyph name="bn_ai" xMin="23" yMin="-20" xMax="623" yMax="872">
      <contour>
        <pt x="491" y="-10" on="1"/>
        <pt x="479" y="-15" on="0"/>
        <pt x="447" y="-20" on="0"/>
        <pt x="431" y="-20" on="1"/>
        <pt x="418" y="5" on="0"/>
        <pt x="402" y="36" on="0"/>
        <pt x="397" y="41" on="1"/>
        <pt x="385" y="55" on="0"/>
        <pt x="356" y="69" on="0"/>
        <pt x="337" y="69" on="1"/>
        <pt x="323" y="69" on="0"/>
        <pt x="287" y="62" on="0"/>
        <pt x="247" y="50" on="1"/>
        <pt x="203" y="36" on="0"/>
        <pt x="159" y="28" on="0"/>
        <pt x="141" y="28" on="1"/>
        <pt x="87" y="28" on="0"/>
        <pt x="23" y="98" on="0"/>
        <pt x="23" y="155" on="1"/>
        <pt x="23" y="186" on="0"/>
        <pt x="44" y="259" on="0"/>
        <pt x="63" y="294" on="1"/>
        <pt x="78" y="293" on="0"/>
        <pt x="103" y="285" on="0"/>
        <pt x="113" y="278" on="1"/>
        <pt x="100" y="258" on="0"/>
        <pt x="84" y="197" on="0"/>
        <pt x="84" y="172" on="1"/>
        <pt x="84" y="137" on="0"/>
        <pt x="120" y="100" on="0"/>
        <pt x="152" y="100" on="1"/>
        <pt x="165" y="100" on="0"/>
        <pt x="200" y="107" on="0"/>
        <pt x="237" y="119" on="1"/>
        <pt x="276" y="132" on="0"/>
        <pt x="315" y="140" on="0"/>
        <pt x="330" y="140" on="1"/>
        <pt x="365" y="140" on="0"/>
        <pt x="413" y="99" on="0"/>
        <pt x="430" y="54" on="1"/>
        <pt x="442" y="141" on="0"/>
        <pt x="456" y="379" on="0"/>
        <pt x="456" y="506" on="1"/>
        <pt x="456" y="542" on="0"/>
        <pt x="425" y="583" on="0"/>
        <pt x="398" y="583" on="1"/>
        <pt x="347" y="583" on="0"/>
        <pt x="231" y="458" on="0"/>
        <pt x="231" y="399" on="1"/>
        <pt x="231" y="372" on="0"/>
        <pt x="260" y="343" on="0"/>
        <pt x="286" y="343" on="1"/>
        <pt x="307" y="343" on="0"/>
        <pt x="347" y="364" on="0"/>
        <pt x="364" y="385" on="1"/>
        <pt x="367" y="381" on="0"/>
        <pt x="370" y="368" on="0"/>
        <pt x="370" y="358" on="1"/>
        <pt x="370" y="345" on="0"/>
        <pt x="364" y="319" on="0"/>
        <pt x="358" y="309" on="1"/>
        <pt x="341" y="294" on="0"/>
        <pt x="297" y="278" on="0"/>
        <pt x="273" y="278" on="1"/>
        <pt x="222" y="278" on="0"/>
        <pt x="158" y="340" on="0"/>
        <pt x="158" y="391" on="1"/>
        <pt x="158" y="431" on="0"/>
        <pt x="197" y="515" on="0"/>
        <pt x="232" y="552" on="1"/>
        <pt x="268" y="590" on="0"/>
        <pt x="352" y="634" on="0"/>
        <pt x="389" y="634" on="1"/>
        <pt x="444" y="634" on="0"/>
        <pt x="518" y="549" on="0"/>
        <pt x="518" y="484" on="1"/>
        <pt x="518" y="480" on="0"/>
        <pt x="518" y="471" on="0"/>
        <pt x="518" y="466" on="1"/>
        <pt x="548" y="489" on="0"/>
        <pt x="581" y="553" on="0"/>
        <pt x="581" y="587" on="1"/>
        <pt x="581" y="616" on="0"/>
        <pt x="553" y="654" on="0"/>
        <pt x="523" y="666" on="1"/>
        <pt x="508" y="672" on="0"/>
        <pt x="466" y="682" on="0"/>
        <pt x="419" y="690" on="1"/>
        <pt x="362" y="699" on="0"/>
        <pt x="303" y="717" on="0"/>
        <pt x="282" y="730" on="1"/>
        <pt x="255" y="747" on="0"/>
        <pt x="222" y="805" on="0"/>
        <pt x="214" y="849" on="1"/>
        <pt x="226" y="858" on="0"/>
        <pt x="255" y="870" on="0"/>
        <pt x="266" y="872" on="1"/>
        <pt x="278" y="815" on="0"/>
        <pt x="328" y="764" on="0"/>
        <pt x="389" y="753" on="1"/>
        <pt x="460" y="740" on="1"/>
        <pt x="544" y="723" on="0"/>
        <pt x="623" y="646" on="0"/>
        <pt x="623" y="581" on="1"/>
        <pt x="623" y="528" on="0"/>
        <pt x="571" y="433" on="0"/>
        <pt x="517" y="388" on="1"/>
        <pt x="516" y="282" on="0"/>
        <pt x="503" y="86" on="0"/>
      </contour>
    </TTGlyph>
    <TTGlyph name="bn_aikaar" xMin="-95" yMin="-66" xMax="306" yMax="791">
      <contour>
        <pt x="306" y="-1" on="1"/>
        <pt x="288" y="-32" on="0"/>
        <pt x="236" y="-66" on="0"/>
        <pt x="208" y="-66" on="1"/>
        <pt x="144" y="-66" on="0"/>
        <pt x="67" y="95" on="0"/>
        <pt x="67" y="229" on="1"/>
        <pt x="67" y="303" on="0"/>
        <pt x="87" y="438" on="0"/>
        <pt x="104" y="483" on="1"/>
        <pt x="90" y="496" on="0"/>
        <pt x="39" y="519" on="0"/>
        <pt x="0" y="530" on="1"/>
        <pt x="-2" y="539" on="0"/>
        <pt x="-4" y="554" on="0"/>
        <pt x="-4" y="561" on="1"/>
        <pt x="-4" y="568" on="0"/>
        <pt x="-2" y="584" on="0"/>
        <pt x="0" y="589" on="1"/>
        <pt x="42" y="581" on="0"/>
        <pt x="116" y="550" on="0"/>
        <pt x="142" y="532" on="1"/>
        <pt x="153" y="546" on="0"/>
        <pt x="191" y="569" on="0"/>
        <pt x="219" y="578" on="1"/>
        <pt x="210" y="636" on="0"/>
        <pt x="174" y="683" on="0"/>
        <pt x="143" y="683" on="1"/>
        <pt x="133" y="683" on="0"/>
        <pt x="111" y="680" on="0"/>
        <pt x="89" y="675" on="1"/>
        <pt x="65" y="670" on="0"/>
        <pt x="40" y="667" on="0"/>
        <pt x="29" y="667" on="1"/>
        <pt x="-8" y="667" on="0"/>
        <pt x="-67" y="710" on="0"/>
        <pt x="-95" y="759" on="1"/>
        <pt x="-88" y="768" on="0"/>
        <pt x="-65" y="784" on="0"/>
        <pt x="-50" y="791" on="1"/>
        <pt x="-27" y="753" on="0"/>
        <pt x="11" y="724" on="0"/>
        <pt x="34" y="724" on="1"/>
        <pt x="42" y="724" on="0"/>
        <pt x="63" y="727" on="0"/>
        <pt x="85" y="732" on="1"/>
        <pt x="109" y="738" on="0"/>
        <pt x="133" y="741" on="0"/>
        <pt x="142" y="741" on="1"/>
        <pt x="190" y="741" on="0"/>
        <pt x="251" y="662" on="0"/>
        <pt x="260" y="589" on="1"/>
        <pt x="262" y="585" on="0"/>
        <pt x="264" y="572" on="0"/>
        <pt x="264" y="562" on="1"/>
        <pt x="264" y="551" on="0"/>
        <pt x="262" y="535" on="0"/>
        <pt x="260" y="530" on="1"/>
        <pt x="191" y="515" on="0"/>
        <pt x="137" y="383" on="0"/>
        <pt x="137" y="232" on="1"/>
        <pt x="137" y="109" on="0"/>
        <pt x="166" y="-13" on="0"/>
        <pt x="195" y="-13" on="1"/>
        <pt x="209" y="-13" on="0"/>
        <pt x="239" y="21" on="0"/>
        <pt x="263" y="64" on="1"/>
        <pt x="280" y="55" on="0"/>
        <pt x="306" y="14" on="0"/>
      </contour>
    </TTGlyph>
    <TTGlyph name="bn_aikaar.init" xMin="-66" yMin="-66" xMax="294" yMax="791">
      <contour>
        <pt x="292" y="-1" on="1"/>
        <pt x="274" y="-32" on="0"/>
        <pt x="222" y="-66" on="0"/>
        <pt x="194" y="-66" on="1"/>
        <pt x="130" y="-66" on="0"/>
        <pt x="50" y="91" on="0"/>
        <pt x="50" y="216" on="1"/>
        <pt x="50" y="366" on="0"/>
        <pt x="149" y="545" on="0"/>
        <pt x="249" y="578" on="1"/>
        <pt x="240" y="636" on="0"/>
        <pt x="204" y="683" on="0"/>
        <pt x="173" y="683" on="1"/>
        <pt x="163" y="683" on="0"/>
        <pt x="141" y="680" on="0"/>
        <pt x="119" y="675" on="1"/>
        <pt x="95" y="670" on="0"/>
        <pt x="70" y="667" on="0"/>
        <pt x="59" y="667" on="1"/>
        <pt x="21" y="667" on="0"/>
        <pt x="-38" y="710" on="0"/>
        <pt x="-66" y="759" on="1"/>
        <pt x="-58" y="768" on="0"/>
        <pt x="-35" y="784" on="0"/>
        <pt x="-20" y="791" on="1"/>
        <pt x="2" y="753" on="0"/>
        <pt x="40" y="724" on="0"/>
        <pt x="63" y="724" on="1"/>
        <pt x="71" y="724" on="0"/>
        <pt x="92" y="727" on="0"/>
        <pt x="115" y="732" on="1"/>
        <pt x="139" y="738" on="0"/>
        <pt x="163" y="741" on="0"/>
        <pt x="172" y="741" on="1"/>
        <pt x="220" y="741" on="0"/>
        <pt x="281" y="662" on="0"/>
        <pt x="290" y="589" on="1"/>
        <pt x="292" y="585" on="0"/>
        <pt x="294" y="571" on="0"/>
        <pt x="294" y="561" on="1"/>
        <pt x="294" y="554" on="0"/>
        <pt x="292" y="537" on="0"/>
        <pt x="290" y="530" on="1"/>
        <pt x="202" y="511" on="0"/>
        <pt x="121" y="358" on="0"/>
        <pt x="121" y="208" on="1"/>
        <pt x="121" y="106" on="0"/>
        <pt x="153" y="-13" on="0"/>
        <pt x="181" y="-13" on="1"/>
        <pt x="195" y="-13" on="0"/>
        <pt x="226" y="22" on="0"/>
        <pt x="249" y="64" on="1"/>
        <pt x="266" y="55" on="0"/>
        <pt x="292" y="14" on="0"/>
      </contour>
    </TTGlyph>
    <TTGlyph name="bn_anusvar" xMin="25" yMin="-47" xMax="425" yMax="606">
      <contour>
        <pt x="231" y="606" on="1"/>
        <pt x="290" y="606" on="0"/>
        <pt x="367" y="533" on="0"/>
        <pt x="367" y="476" on="1"/>
        <pt x="367" y="415" on="0"/>
        <pt x="277" y="328" on="0"/>
        <pt x="214" y="328" on="1"/>
        <pt x="156" y="328" on="0"/>
        <pt x="80" y="402" on="0"/>
        <pt x="80" y="458" on="1"/>
        <pt x="81" y="520" on="0"/>
        <pt x="168" y="606" on="0"/>
      </contour>
      <contour>
        <pt x="213" y="554" on="1"/>
        <pt x="177" y="554" on="0"/>
        <pt x="135" y="512" on="0"/>
        <pt x="135" y="476" on="1"/>
        <pt x="135" y="433" on="0"/>
        <pt x="189" y="380" on="0"/>
        <pt x="231" y="380" on="1"/>
        <pt x="268" y="380" on="0"/>
        <pt x="312" y="424" on="0"/>
        <pt x="312" y="461" on="1"/>
        <pt x="312" y="503" on="0"/>
        <pt x="257" y="554" on="0"/>
      </contour>
      <contour>
        <pt x="54" y="312" on="1"/>
        <pt x="164" y="269" on="0"/>
        <pt x="366" y="94" on="0"/>
        <pt x="425" y="-13" on="1"/>
        <pt x="417" y="-24" on="0"/>
        <pt x="396" y="-41" on="0"/>
        <pt x="381" y="-47" on="1"/>
        <pt x="314" y="61" on="0"/>
        <pt x="123" y="218" on="0"/>
        <pt x="25" y="247" on="1"/>
        <pt x="29" y="267" on="0"/>
        <pt x="43" y="298" on="0"/>
      </contour>
    </TTGlyph>
    <TTGlyph name="bn_au" xMin="21" yMin="-20" xMax="695" yMax="870">
      <contour>
        <pt x="614" y="160" on="1"/>
        <pt x="614" y="80" on="0"/>
        <pt x="513" y="-20" on="0"/>
        <pt x="428" y="-20" on="1"/>
        <pt x="293" y="-20" on="0"/>
        <pt x="91" y="256" on="0"/>
        <pt x="21" y="544" on="1"/>
        <pt x="33" y="554" on="0"/>
        <pt x="58" y="568" on="0"/>
        <pt x="72" y="573" on="1"/>
        <pt x="135" y="312" on="0"/>
        <pt x="316" y="50" on="0"/>
        <pt x="432" y="50" on="1"/>
        <pt x="491" y="50" on="0"/>
        <pt x="556" y="115" on="0"/>
        <pt x="556" y="175" on="1"/>
        <pt x="556" y="202" on="0"/>
        <pt x="541" y="250" on="0"/>
        <pt x="527" y="271" on="1"/>
        <pt x="506" y="245" on="0"/>
        <pt x="457" y="217" on="0"/>
        <pt x="431" y="217" on="1"/>
        <pt x="392" y="217" on="0"/>
        <pt x="340" y="270" on="0"/>
        <pt x="340" y="311" on="1"/>
        <pt x="340" y="352" on="0"/>
        <pt x="391" y="407" on="0"/>
        <pt x="430" y="407" on="1"/>
        <pt x="453" y="407" on="0"/>
        <pt x="498" y="386" on="0"/>
        <pt x="515" y="367" on="1"/>
        <pt x="532" y="394" on="0"/>
        <pt x="550" y="451" on="0"/>
        <pt x="550" y="478" on="1"/>
        <pt x="550" y="527" on="0"/>
        <pt x="495" y="580" on="0"/>
        <pt x="445" y="580" on="1"/>
        <pt x="378" y="581" on="0"/>
        <pt x="288" y="494" on="0"/>
        <pt x="288" y="429" on="1"/>
        <pt x="288" y="417" on="0"/>
        <pt x="290" y="393" on="0"/>
        <pt x="292" y="385" on="1"/>
        <pt x="274" y="385" on="0"/>
        <pt x="229" y="403" on="0"/>
        <pt x="218" y="416" on="1"/>
        <pt x="217" y="512" on="0"/>
        <pt x="334" y="634" on="0"/>
        <pt x="425" y="634" on="1"/>
        <pt x="501" y="634" on="0"/>
        <pt x="601" y="549" on="0"/>
        <pt x="606" y="479" on="1"/>
        <pt x="628" y="501" on="0"/>
        <pt x="653" y="559" on="0"/>
        <pt x="653" y="588" on="1"/>
        <pt x="653" y="627" on="0"/>
        <pt x="595" y="670" on="0"/>
        <pt x="491" y="690" on="1"/>
        <pt x="429" y="701" on="0"/>
        <pt x="372" y="719" on="0"/>
        <pt x="353" y="731" on="1"/>
        <pt x="326" y="748" on="0"/>
        <pt x="294" y="807" on="0"/>
        <pt x="286" y="853" on="1"/>
        <pt x="297" y="859" on="0"/>
        <pt x="326" y="868" on="0"/>
        <pt x="339" y="870" on="1"/>
        <pt x="350" y="814" on="0"/>
        <pt x="401" y="766" on="0"/>
        <pt x="469" y="753" on="1"/>
        <pt x="536" y="740" on="1"/>
        <pt x="616" y="725" on="0"/>
        <pt x="695" y="646" on="0"/>
        <pt x="695" y="582" on="1"/>
        <pt x="695" y="531" on="0"/>
        <pt x="644" y="430" on="0"/>
        <pt x="593" y="381" on="1"/>
        <pt x="586" y="362" on="0"/>
        <pt x="568" y="327" on="0"/>
        <pt x="557" y="312" on="1"/>
        <pt x="585" y="279" on="0"/>
        <pt x="614" y="202" on="0"/>
      </contour>
      <contour>
        <pt x="382" y="316" on="1"/>
        <pt x="382" y="299" on="0"/>
        <pt x="406" y="276" on="0"/>
        <pt x="425" y="276" on="1"/>
        <pt x="443" y="276" on="0"/>
        <pt x="476" y="299" on="0"/>
        <pt x="492" y="323" on="1"/>
        <pt x="479" y="342" on="0"/>
        <pt x="445" y="362" on="0"/>
        <pt x="428" y="362" on="1"/>
        <pt x="408" y="362" on="0"/>
        <pt x="382" y="336" on="0"/>
      </contour>
    </TTGlyph>
    <TTGlyph name="bn_aukaar" xMin="-4" yMin="-66" xMax="1152" yMax="923">
      <contour>
        <pt x="591" y="591" on="1"/>
        <pt x="610" y="591" on="0"/>
        <pt x="632" y="568" on="0"/>
        <pt x="632" y="549" on="1"/>
        <pt x="632" y="530" on="0"/>
        <pt x="611" y="508" on="0"/>
        <pt x="591" y="508" on="1"/>
        <pt x="572" y="508" on="0"/>
        <pt x="552" y="529" on="0"/>
        <pt x="552" y="549" on="1"/>
        <pt x="552" y="569" on="0"/>
        <pt x="573" y="591" on="0"/>
      </contour>
      <contour>
        <pt x="1074" y="488" on="1"/>
        <pt x="1073" y="356" on="0"/>
        <pt x="1064" y="80" on="0"/>
        <pt x="1055" y="-52" on="1"/>
        <pt x="1034" y="-52" on="0"/>
        <pt x="986" y="-47" on="0"/>
        <pt x="974" y="-43" on="1"/>
        <pt x="992" y="63" on="0"/>
        <pt x="1011" y="300" on="0"/>
        <pt x="1012" y="446" on="1"/>
        <pt x="1010" y="477" on="0"/>
        <pt x="960" y="520" on="0"/>
        <pt x="915" y="530" on="1"/>
        <pt x="913" y="537" on="0"/>
        <pt x="911" y="554" on="0"/>
        <pt x="911" y="561" on="1"/>
        <pt x="911" y="568" on="0"/>
        <pt x="913" y="584" on="0"/>
        <pt x="915" y="589" on="1"/>
        <pt x="952" y="580" on="0"/>
        <pt x="1013" y="552" on="0"/>
        <pt x="1035" y="534" on="1"/>
        <pt x="1048" y="551" on="0"/>
        <pt x="1063" y="589" on="0"/>
        <pt x="1063" y="608" on="1"/>
        <pt x="1063" y="632" on="0"/>
        <pt x="1029" y="675" on="0"/>
        <pt x="980" y="713" on="1"/>
        <pt x="965" y="725" on="0"/>
        <pt x="907" y="767" on="0"/>
        <pt x="896" y="777" on="1"/>
        <pt x="874" y="797" on="0"/>
        <pt x="857" y="839" on="0"/>
        <pt x="857" y="871" on="1"/>
        <pt x="857" y="883" on="0"/>
        <pt x="859" y="905" on="0"/>
        <pt x="862" y="916" on="1"/>
        <pt x="873" y="920" on="0"/>
        <pt x="902" y="923" on="0"/>
        <pt x="915" y="922" on="1"/>
        <pt x="913" y="911" on="0"/>
        <pt x="912" y="892" on="0"/>
        <pt x="912" y="882" on="1"/>
        <pt x="912" y="859" on="0"/>
        <pt x="926" y="825" on="0"/>
        <pt x="942" y="810" on="1"/>
        <pt x="953" y="801" on="0"/>
        <pt x="1000" y="768" on="0"/>
        <pt x="1008" y="762" on="1"/>
        <pt x="1058" y="725" on="0"/>
        <pt x="1103" y="657" on="0"/>
        <pt x="1103" y="619" on="1"/>
        <pt x="1103" y="608" on="0"/>
        <pt x="1100" y="586" on="0"/>
        <pt x="1096" y="572" on="1"/>
        <pt x="1104" y="576" on="0"/>
        <pt x="1126" y="583" on="0"/>
        <pt x="1148" y="589" on="1"/>
        <pt x="1150" y="585" on="0"/>
        <pt x="1152" y="573" on="0"/>
        <pt x="1152" y="564" on="1"/>
        <pt x="1152" y="553" on="0"/>
        <pt x="1150" y="536" on="0"/>
        <pt x="1148" y="530" on="1"/>
        <pt x="1122" y="523" on="0"/>
        <pt x="1084" y="502" on="0"/>
      </contour>
      <contour>
        <pt x="306" y="-1" on="1"/>
        <pt x="288" y="-32" on="0"/>
        <pt x="236" y="-66" on="0"/>
        <pt x="208" y="-66" on="1"/>
        <pt x="144" y="-66" on="0"/>
        <pt x="67" y="95" on="0"/>
        <pt x="67" y="229" on="1"/>
        <pt x="67" y="303" on="0"/>
        <pt x="87" y="438" on="0"/>
        <pt x="104" y="483" on="1"/>
        <pt x="90" y="496" on="0"/>
        <pt x="39" y="519" on="0"/>
        <pt x="0" y="530" on="1"/>
        <pt x="-2" y="539" on="0"/>
        <pt x="-4" y="554" on="0"/>
        <pt x="-4" y="561" on="1"/>
        <pt x="-4" y="568" on="0"/>
        <pt x="-2" y="584" on="0"/>
        <pt x="0" y="589" on="1"/>
        <pt x="42" y="581" on="0"/>
        <pt x="116" y="550" on="0"/>
        <pt x="142" y="532" on="1"/>
        <pt x="157" y="551" on="0"/>
        <pt x="216" y="579" on="0"/>
        <pt x="260" y="589" on="1"/>
        <pt x="262" y="585" on="0"/>
        <pt x="264" y="572" on="0"/>
        <pt x="264" y="562" on="1"/>
        <pt x="264" y="551" on="0"/>
        <pt x="262" y="535" on="0"/>
        <pt x="260" y="530" on="1"/>
        <pt x="191" y="515" on="0"/>
        <pt x="137" y="383" on="0"/>
        <pt x="137" y="232" on="1"/>
        <pt x="137" y="109" on="0"/>
        <pt x="166" y="-13" on="0"/>
        <pt x="195" y="-13" on="1"/>
        <pt x="209" y="-13" on="0"/>
        <pt x="239" y="21" on="0"/>
        <pt x="263" y="64" on="1"/>
        <pt x="280" y="55" on="0"/>
        <pt x="306" y="14" on="0"/>
      </contour>
      <contour>
        <pt x="723" y="554" on="1"/>
        <pt x="742" y="554" on="0"/>
        <pt x="765" y="531" on="0"/>
        <pt x="765" y="512" on="1"/>
        <pt x="765" y="494" on="0"/>
        <pt x="742" y="473" on="0"/>
        <pt x="723" y="473" on="1"/>
        <pt x="705" y="473" on="0"/>
        <pt x="684" y="494" on="0"/>
        <pt x="684" y="512" on="1"/>
        <pt x="684" y="531" on="0"/>
        <pt x="705" y="554" on="0"/>
      </contour>
      <contour>
        <pt x="457" y="554" on="1"/>
        <pt x="476" y="554" on="0"/>
        <pt x="498" y="531" on="0"/>
        <pt x="498" y="512" on="1"/>
        <pt x="498" y="494" on="0"/>
        <pt x="476" y="473" on="0"/>
        <pt x="457" y="473" on="1"/>
        <pt x="439" y="473" on="0"/>
        <pt x="418" y="494" on="0"/>
        <pt x="418" y="512" on="1"/>
        <pt x="418" y="531" on="0"/>
        <pt x="440" y="554" on="0"/>
      </contour>
      <contour>
        <pt x="822" y="457" on="1"/>
        <pt x="840" y="457" on="0"/>
        <pt x="860" y="435" on="0"/>
        <pt x="860" y="416" on="1"/>
        <pt x="860" y="397" on="0"/>
        <pt x="840" y="374" on="0"/>
        <pt x="822" y="374" on="1"/>
        <pt x="804" y="374" on="0"/>
        <pt x="780" y="398" on="0"/>
        <pt x="780" y="416" on="1"/>
        <pt x="780" y="433" on="0"/>
        <pt x="804" y="457" on="0"/>
      </contour>
      <contour>
        <pt x="363" y="457" on="1"/>
        <pt x="381" y="457" on="0"/>
        <pt x="401" y="435" on="0"/>
        <pt x="401" y="415" on="1"/>
        <pt x="401" y="398" on="0"/>
        <pt x="379" y="374" on="0"/>
        <pt x="363" y="374" on="1"/>
        <pt x="345" y="374" on="0"/>
        <pt x="321" y="398" on="0"/>
        <pt x="321" y="416" on="1"/>
        <pt x="321" y="434" on="0"/>
        <pt x="344" y="457" on="0"/>
      </contour>
      <contour>
        <pt x="327" y="327" on="1"/>
        <pt x="346" y="327" on="0"/>
        <pt x="367" y="305" on="0"/>
        <pt x="367" y="286" on="1"/>
        <pt x="367" y="266" on="0"/>
        <pt x="346" y="244" on="0"/>
        <pt x="327" y="244" on="1"/>
        <pt x="308" y="244" on="0"/>
        <pt x="286" y="267" on="0"/>
        <pt x="286" y="286" on="1"/>
        <pt x="286" y="304" on="0"/>
        <pt x="309" y="327" on="0"/>
      </contour>
      <contour>
        <pt x="857" y="327" on="1"/>
        <pt x="876" y="327" on="0"/>
        <pt x="897" y="305" on="0"/>
        <pt x="897" y="286" on="1"/>
        <pt x="897" y="267" on="0"/>
        <pt x="875" y="244" on="0"/>
        <pt x="857" y="244" on="1"/>
        <pt x="839" y="244" on="0"/>
        <pt x="816" y="268" on="0"/>
        <pt x="816" y="286" on="1"/>
        <pt x="816" y="304" on="0"/>
        <pt x="839" y="327" on="0"/>
      </contour>
      <contour>
        <pt x="822" y="197" on="1"/>
        <pt x="840" y="197" on="0"/>
        <pt x="860" y="175" on="0"/>
        <pt x="860" y="156" on="1"/>
        <pt x="860" y="136" on="0"/>
        <pt x="840" y="113" on="0"/>
        <pt x="822" y="113" on="1"/>
        <pt x="804" y="113" on="0"/>
        <pt x="780" y="137" on="0"/>
        <pt x="780" y="156" on="1"/>
        <pt x="780" y="173" on="0"/>
        <pt x="804" y="197" on="0"/>
      </contour>
      <contour>
        <pt x="363" y="197" on="1"/>
        <pt x="380" y="197" on="0"/>
        <pt x="401" y="175" on="0"/>
        <pt x="401" y="156" on="1"/>
        <pt x="401" y="136" on="0"/>
        <pt x="380" y="113" on="0"/>
        <pt x="363" y="113" on="1"/>
        <pt x="344" y="113" on="0"/>
        <pt x="321" y="137" on="0"/>
        <pt x="321" y="156" on="1"/>
        <pt x="321" y="174" on="0"/>
        <pt x="344" y="197" on="0"/>
      </contour>
      <contour>
        <pt x="723" y="99" on="1"/>
        <pt x="742" y="99" on="0"/>
        <pt x="765" y="77" on="0"/>
        <pt x="765" y="58" on="1"/>
        <pt x="765" y="40" on="0"/>
        <pt x="742" y="18" on="0"/>
        <pt x="723" y="18" on="1"/>
        <pt x="705" y="18" on="0"/>
        <pt x="684" y="40" on="0"/>
        <pt x="684" y="58" on="1"/>
        <pt x="684" y="77" on="0"/>
        <pt x="705" y="99" on="0"/>
      </contour>
      <contour>
        <pt x="457" y="99" on="1"/>
        <pt x="476" y="99" on="0"/>
        <pt x="498" y="77" on="0"/>
        <pt x="498" y="58" on="1"/>
        <pt x="498" y="40" on="0"/>
        <pt x="476" y="18" on="0"/>
        <pt x="457" y="18" on="1"/>
        <pt x="440" y="18" on="0"/>
        <pt x="418" y="40" on="0"/>
        <pt x="418" y="58" on="1"/>
        <pt x="418" y="76" on="0"/>
        <pt x="440" y="99" on="0"/>
      </contour>
      <contour>
        <pt x="591" y="64" on="1"/>
        <pt x="610" y="64" on="0"/>
        <pt x="632" y="41" on="0"/>
        <pt x="632" y="22" on="1"/>
        <pt x="632" y="4" on="0"/>
        <pt x="610" y="-18" on="0"/>
        <pt x="591" y="-18" on="1"/>
        <pt x="573" y="-18" on="0"/>
        <pt x="552" y="3" on="0"/>
        <pt x="552" y="22" on="1"/>
        <pt x="552" y="42" on="0"/>
        <pt x="573" y="64" on="0"/>
      </contour>
    </TTGlyph>
    <TTGlyph name="bn_aumark" xMin="-58" yMin="-52" xMax="237" yMax="923">
      <contour>
        <pt x="159" y="488" on="1"/>
        <pt x="158" y="356" on="0"/>
        <pt x="149" y="80" on="0"/>
        <pt x="140" y="-52" on="1"/>
        <pt x="119" y="-52" on="0"/>
        <pt x="71" y="-47" on="0"/>
        <pt x="59" y="-43" on="1"/>
        <pt x="77" y="63" on="0"/>
        <pt x="96" y="300" on="0"/>
        <pt x="97" y="446" on="1"/>
        <pt x="95" y="477" on="0"/>
        <pt x="45" y="520" on="0"/>
        <pt x="0" y="530" on="1"/>
        <pt x="-2" y="537" on="0"/>
        <pt x="-4" y="554" on="0"/>
        <pt x="-4" y="561" on="1"/>
        <pt x="-4" y="568" on="0"/>
        <pt x="-2" y="584" on="0"/>
        <pt x="0" y="589" on="1"/>
        <pt x="37" y="580" on="0"/>
        <pt x="98" y="552" on="0"/>
        <pt x="120" y="534" on="1"/>
        <pt x="133" y="551" on="0"/>
        <pt x="148" y="589" on="0"/>
        <pt x="148" y="608" on="1"/>
        <pt x="148" y="632" on="0"/>
        <pt x="114" y="675" on="0"/>
        <pt x="65" y="713" on="1"/>
        <pt x="50" y="725" on="0"/>
        <pt x="-8" y="767" on="0"/>
        <pt x="-19" y="777" on="1"/>
        <pt x="-41" y="797" on="0"/>
        <pt x="-58" y="839" on="0"/>
        <pt x="-58" y="871" on="1"/>
        <pt x="-58" y="883" on="0"/>
        <pt x="-56" y="905" on="0"/>
        <pt x="-53" y="916" on="1"/>
        <pt x="-42" y="920" on="0"/>
        <pt x="-13" y="923" on="0"/>
        <pt x="0" y="922" on="1"/>
        <pt x="-2" y="911" on="0"/>
        <pt x="-3" y="892" on="0"/>
        <pt x="-3" y="882" on="1"/>
        <pt x="-3" y="859" on="0"/>
        <pt x="11" y="825" on="0"/>
        <pt x="27" y="810" on="1"/>
        <pt x="38" y="801" on="0"/>
        <pt x="85" y="768" on="0"/>
        <pt x="93" y="762" on="1"/>
        <pt x="143" y="725" on="0"/>
        <pt x="188" y="657" on="0"/>
        <pt x="188" y="619" on="1"/>
        <pt x="188" y="608" on="0"/>
        <pt x="185" y="586" on="0"/>
        <pt x="181" y="572" on="1"/>
        <pt x="189" y="576" on="0"/>
        <pt x="211" y="583" on="0"/>
        <pt x="233" y="589" on="1"/>
        <pt x="235" y="585" on="0"/>
        <pt x="237" y="573" on="0"/>
        <pt x="237" y="564" on="1"/>
        <pt x="237" y="553" on="0"/>
        <pt x="235" y="536" on="0"/>
        <pt x="233" y="530" on="1"/>
        <pt x="207" y="523" on="0"/>
        <pt x="169" y="502" on="0"/>
      </contour>
    </TTGlyph>
    <TTGlyph name="bn_aumark_reph" xMin="-58" yMin="-52" xMax="310" yMax="990">
      <component glyphName="bn_aumark" x="0" y="0" flags="0x204"/>
      <component glyphName="bn_reph" x="138" y="0" flags="0x4"/>
    </TTGlyph>
    <TTGlyph name="bn_avagraha" xMin="23" yMin="-62" xMax="463" yMax="627">
      <contour>
        <pt x="114" y="462" on="1"/>
        <pt x="114" y="436" on="0"/>
        <pt x="151" y="404" on="0"/>
        <pt x="181" y="404" on="1"/>
        <pt x="209" y="404" on="0"/>
        <pt x="251" y="434" on="0"/>
        <pt x="266" y="464" on="1"/>
        <pt x="246" y="485" on="0"/>
        <pt x="196" y="508" on="0"/>
        <pt x="171" y="508" on="1"/>
        <pt x="144" y="508" on="0"/>
        <pt x="114" y="484" on="0"/>
      </contour>
      <contour>
        <pt x="463" y="-14" on="1"/>
        <pt x="456" y="-25" on="0"/>
        <pt x="436" y="-49" on="0"/>
        <pt x="423" y="-62" on="1"/>
        <pt x="335" y="34" on="0"/>
        <pt x="149" y="159" on="0"/>
        <pt x="43" y="192" on="1"/>
        <pt x="23" y="277" on="1"/>
        <pt x="69" y="259" on="0"/>
        <pt x="155" y="240" on="0"/>
        <pt x="191" y="240" on="1"/>
        <pt x="251" y="240" on="0"/>
        <pt x="317" y="295" on="0"/>
        <pt x="317" y="344" on="1"/>
        <pt x="317" y="364" on="0"/>
        <pt x="307" y="403" on="0"/>
        <pt x="297" y="421" on="1"/>
        <pt x="280" y="390" on="0"/>
        <pt x="226" y="357" on="0"/>
        <pt x="189" y="357" on="1"/>
        <pt x="134" y="357" on="0"/>
        <pt x="61" y="418" on="0"/>
        <pt x="61" y="467" on="1"/>
        <pt x="61" y="509" on="0"/>
        <pt x="117" y="558" on="0"/>
        <pt x="164" y="558" on="1"/>
        <pt x="196" y="558" on="0"/>
        <pt x="258" y="535" on="0"/>
        <pt x="285" y="513" on="1"/>
        <pt x="293" y="540" on="0"/>
        <pt x="305" y="597" on="0"/>
        <pt x="308" y="627" on="1"/>
        <pt x="321" y="627" on="0"/>
        <pt x="349" y="619" on="0"/>
        <pt x="359" y="613" on="1"/>
        <pt x="353" y="571" on="0"/>
        <pt x="338" y="502" on="0"/>
        <pt x="326" y="471" on="1"/>
        <pt x="351" y="439" on="0"/>
        <pt x="378" y="364" on="0"/>
        <pt x="378" y="326" on="1"/>
        <pt x="378" y="258" on="0"/>
        <pt x="290" y="180" on="0"/>
        <pt x="211" y="177" on="1"/>
        <pt x="276" y="141" on="0"/>
        <pt x="402" y="45" on="0"/>
      </contour>
    </TTGlyph>
    <TTGlyph name="bn_b_ba" xMin="-5" yMin="-19" xMax="808" yMax="632">
      <contour>
        <pt x="681" y="552" on="1"/>
        <pt x="611" y="561" on="0"/>
        <pt x="482" y="569" on="0"/>
        <pt x="418" y="569" on="1"/>
        <pt x="413" y="569" on="0"/>
        <pt x="403" y="569" on="0"/>
        <pt x="398" y="569" on="1"/>
        <pt x="386" y="498" on="0"/>
        <pt x="377" y="376" on="0"/>
        <pt x="377" y="298" on="1"/>
        <pt x="425" y="352" on="0"/>
        <pt x="587" y="466" on="0"/>
        <pt x="673" y="505" on="1"/>
        <pt x="674" y="509" on="0"/>
        <pt x="676" y="519" on="0"/>
        <pt x="677" y="530" on="1"/>
        <pt x="679" y="539" on="0"/>
        <pt x="680" y="548" on="0"/>
      </contour>
      <contour>
        <pt x="714" y="292" on="1"/>
        <pt x="714" y="191" on="0"/>
        <pt x="728" y="42" on="0"/>
        <pt x="741" y="-4" on="1"/>
        <pt x="728" y="-11" on="0"/>
        <pt x="692" y="-19" on="0"/>
        <pt x="670" y="-19" on="1"/>
        <pt x="619" y="79" on="0"/>
        <pt x="486" y="194" on="0"/>
        <pt x="402" y="213" on="1"/>
        <pt x="393" y="224" on="0"/>
        <pt x="381" y="243" on="0"/>
        <pt x="377" y="252" on="1"/>
        <pt x="379" y="165" on="0"/>
        <pt x="393" y="37" on="0"/>
        <pt x="404" y="-4" on="1"/>
        <pt x="392" y="-11" on="0"/>
        <pt x="355" y="-19" on="0"/>
        <pt x="334" y="-19" on="1"/>
        <pt x="282" y="79" on="0"/>
        <pt x="150" y="194" on="0"/>
        <pt x="66" y="213" on="1"/>
        <pt x="50" y="231" on="0"/>
        <pt x="35" y="266" on="0"/>
        <pt x="33" y="289" on="1"/>
        <pt x="80" y="345" on="0"/>
        <pt x="247" y="465" on="0"/>
        <pt x="335" y="504" on="1"/>
        <pt x="339" y="530" on="0"/>
        <pt x="343" y="556" on="0"/>
        <pt x="345" y="568" on="1"/>
        <pt x="251" y="566" on="0"/>
        <pt x="77" y="546" on="0"/>
        <pt x="0" y="530" on="1"/>
        <pt x="-2" y="537" on="0"/>
        <pt x="-5" y="554" on="0"/>
        <pt x="-5" y="563" on="1"/>
        <pt x="-5" y="571" on="0"/>
        <pt x="-2" y="584" on="0"/>
        <pt x="0" y="589" on="1"/>
        <pt x="78" y="609" on="0"/>
        <pt x="294" y="632" on="0"/>
        <pt x="417" y="632" on="1"/>
        <pt x="524" y="632" on="0"/>
        <pt x="722" y="610" on="0"/>
        <pt x="803" y="589" on="1"/>
        <pt x="806" y="585" on="0"/>
        <pt x="808" y="572" on="0"/>
        <pt x="808" y="563" on="1"/>
        <pt x="808" y="553" on="0"/>
        <pt x="805" y="535" on="0"/>
        <pt x="803" y="530" on="1"/>
        <pt x="802" y="530" on="0"/>
        <pt x="751" y="540" on="0"/>
        <pt x="733" y="543" on="1"/>
        <pt x="723" y="480" on="0"/>
        <pt x="714" y="367" on="0"/>
      </contour>
      <contour>
        <pt x="655" y="79" on="1"/>
        <pt x="653" y="99" on="0"/>
        <pt x="652" y="152" on="0"/>
        <pt x="652" y="185" on="1"/>
        <pt x="652" y="255" on="0"/>
        <pt x="657" y="370" on="0"/>
        <pt x="663" y="422" on="1"/>
        <pt x="609" y="396" on="0"/>
        <pt x="487" y="308" on="0"/>
        <pt x="444" y="265" on="1"/>
        <pt x="512" y="235" on="0"/>
        <pt x="618" y="142" on="0"/>
      </contour>
      <contour>
        <pt x="318" y="79" on="1"/>
        <pt x="316" y="99" on="0"/>
        <pt x="315" y="152" on="0"/>
        <pt x="315" y="185" on="1"/>
        <pt x="315" y="252" on="0"/>
        <pt x="320" y="368" on="0"/>
        <pt x="325" y="421" on="1"/>
        <pt x="272" y="395" on="0"/>
        <pt x="151" y="307" on="0"/>
        <pt x="108" y="264" on="1"/>
        <pt x="175" y="235" on="0"/>
        <pt x="281" y="142" on="0"/>
      </contour>
    </TTGlyph>
    <TTGlyph name="bn_b_bha" xMin="-5" yMin="-260" xMax="609" yMax="620">
      <contour>
        <pt x="419" y="165" on="1"/>
        <pt x="419" y="175" on="0"/>
        <pt x="419" y="194" on="0"/>
        <pt x="419" y="204" on="1"/>
        <pt x="419" y="278" on="0"/>
        <pt x="426" y="410" on="0"/>
        <pt x="434" y="476" on="1"/>
        <pt x="376" y="450" on="0"/>
        <pt x="257" y="374" on="0"/>
        <pt x="217" y="337" on="1"/>
        <pt x="282" y="309" on="0"/>
        <pt x="383" y="223" on="0"/>
      </contour>
      <contour>
        <pt x="576" y="-73" on="1"/>
        <pt x="576" y="-159" on="0"/>
        <pt x="467" y="-260" on="0"/>
        <pt x="374" y="-260" on="1"/>
        <pt x="253" y="-260" on="0"/>
        <pt x="75" y="-70" on="0"/>
        <pt x="21" y="117" on="1"/>
        <pt x="34" y="124" on="0"/>
        <pt x="60" y="136" on="0"/>
        <pt x="72" y="140" on="1"/>
        <pt x="125" y="-32" on="0"/>
        <pt x="275" y="-200" on="0"/>
        <pt x="375" y="-200" on="1"/>
        <pt x="446" y="-200" on="0"/>
        <pt x="522" y="-126" on="0"/>
        <pt x="522" y="-56" on="1"/>
        <pt x="522" y="-34" on="0"/>
        <pt x="514" y="11" on="0"/>
        <pt x="507" y="33" on="1"/>
        <pt x="459" y="-3" on="0"/>
        <pt x="383" y="-34" on="0"/>
        <pt x="345" y="-34" on="1"/>
        <pt x="289" y="-34" on="0"/>
        <pt x="210" y="23" on="0"/>
        <pt x="210" y="66" on="1"/>
        <pt x="210" y="100" on="0"/>
        <pt x="265" y="155" on="0"/>
        <pt x="309" y="167" on="1"/>
        <pt x="323" y="163" on="0"/>
        <pt x="348" y="140" on="0"/>
        <pt x="354" y="126" on="1"/>
        <pt x="311" y="117" on="0"/>
        <pt x="264" y="81" on="0"/>
        <pt x="264" y="57" on="1"/>
        <pt x="264" y="37" on="0"/>
        <pt x="297" y="15" on="0"/>
        <pt x="325" y="15" on="1"/>
        <pt x="347" y="15" on="0"/>
        <pt x="394" y="31" on="0"/>
        <pt x="424" y="48" on="1"/>
        <pt x="423" y="57" on="0"/>
        <pt x="422" y="78" on="0"/>
        <pt x="421" y="90" on="1"/>
        <pt x="375" y="173" on="0"/>
        <pt x="250" y="272" on="0"/>
        <pt x="171" y="287" on="1"/>
        <pt x="157" y="303" on="0"/>
        <pt x="143" y="335" on="0"/>
        <pt x="141" y="356" on="1"/>
        <pt x="182" y="402" on="0"/>
        <pt x="345" y="508" on="0"/>
        <pt x="441" y="551" on="1"/>
        <pt x="410" y="554" on="0"/>
        <pt x="339" y="557" on="0"/>
        <pt x="300" y="557" on="1"/>
        <pt x="220" y="557" on="0"/>
        <pt x="71" y="544" on="0"/>
        <pt x="0" y="530" on="1"/>
        <pt x="-2" y="535" on="0"/>
        <pt x="-5" y="552" on="0"/>
        <pt x="-5" y="561" on="1"/>
        <pt x="-5" y="569" on="0"/>
        <pt x="-2" y="584" on="0"/>
        <pt x="0" y="589" on="1"/>
        <pt x="64" y="604" on="0"/>
        <pt x="216" y="620" on="0"/>
        <pt x="300" y="620" on="1"/>
        <pt x="384" y="620" on="0"/>
        <pt x="536" y="604" on="0"/>
        <pt x="603" y="589" on="1"/>
        <pt x="606" y="585" on="0"/>
        <pt x="609" y="570" on="0"/>
        <pt x="609" y="561" on="1"/>
        <pt x="609" y="552" on="0"/>
        <pt x="606" y="536" on="0"/>
        <pt x="603" y="530" on="1"/>
        <pt x="581" y="534" on="0"/>
        <pt x="531" y="542" on="0"/>
        <pt x="498" y="546" on="1"/>
        <pt x="487" y="480" on="0"/>
        <pt x="479" y="371" on="0"/>
        <pt x="479" y="302" on="1"/>
        <pt x="479" y="198" on="0"/>
        <pt x="482" y="120" on="0"/>
        <pt x="486" y="89" on="1"/>
        <pt x="489" y="91" on="0"/>
        <pt x="495" y="96" on="0"/>
        <pt x="498" y="98" on="1"/>
        <pt x="510" y="92" on="0"/>
        <pt x="533" y="76" on="0"/>
        <pt x="541" y="70" on="1"/>
        <pt x="558" y="38" on="0"/>
        <pt x="576" y="-37" on="0"/>
      </contour>
    </TTGlyph>
    <TTGlyph name="bn_b_da" xMin="-5" yMin="-71" xMax="599" yMax="624">
      <contour>
        <pt x="545" y="147" on="1"/>
        <pt x="545" y="100" on="0"/>
        <pt x="557" y="1" on="0"/>
        <pt x="568" y="-51" on="1"/>
        <pt x="556" y="-58" on="0"/>
        <pt x="524" y="-68" on="0"/>
        <pt x="507" y="-71" on="1"/>
        <pt x="496" y="-27" on="0"/>
        <pt x="485" y="68" on="0"/>
        <pt x="485" y="117" on="1"/>
        <pt x="485" y="173" on="0"/>
        <pt x="498" y="283" on="0"/>
        <pt x="511" y="331" on="1"/>
        <pt x="455" y="291" on="0"/>
        <pt x="348" y="174" on="0"/>
        <pt x="314" y="116" on="1"/>
        <pt x="299" y="118" on="0"/>
        <pt x="263" y="136" on="0"/>
        <pt x="252" y="146" on="1"/>
        <pt x="230" y="214" on="0"/>
        <pt x="139" y="300" on="0"/>
        <pt x="67" y="319" on="1"/>
        <pt x="53" y="334" on="0"/>
        <pt x="38" y="368" on="0"/>
        <pt x="38" y="386" on="1"/>
        <pt x="72" y="417" on="0"/>
        <pt x="219" y="496" on="0"/>
        <pt x="320" y="537" on="1"/>
        <pt x="320" y="541" on="0"/>
        <pt x="321" y="557" on="0"/>
        <pt x="321" y="561" on="1"/>
        <pt x="314" y="561" on="0"/>
        <pt x="301" y="561" on="0"/>
        <pt x="294" y="561" on="1"/>
        <pt x="219" y="561" on="0"/>
        <pt x="70" y="545" on="0"/>
        <pt x="0" y="530" on="1"/>
        <pt x="-2" y="535" on="0"/>
        <pt x="-5" y="552" on="0"/>
        <pt x="-5" y="561" on="1"/>
        <pt x="-5" y="569" on="0"/>
        <pt x="-2" y="585" on="0"/>
        <pt x="0" y="589" on="1"/>
        <pt x="64" y="606" on="0"/>
        <pt x="217" y="624" on="0"/>
        <pt x="296" y="624" on="1"/>
        <pt x="376" y="624" on="0"/>
        <pt x="531" y="606" on="0"/>
        <pt x="594" y="589" on="1"/>
        <pt x="596" y="584" on="0"/>
        <pt x="599" y="569" on="0"/>
        <pt x="599" y="561" on="1"/>
        <pt x="599" y="553" on="0"/>
        <pt x="596" y="536" on="0"/>
        <pt x="594" y="530" on="1"/>
        <pt x="544" y="541" on="0"/>
        <pt x="428" y="556" on="0"/>
        <pt x="368" y="559" on="1"/>
        <pt x="368" y="551" on="0"/>
        <pt x="368" y="534" on="0"/>
        <pt x="368" y="526" on="1"/>
        <pt x="368" y="457" on="0"/>
        <pt x="354" y="316" on="0"/>
        <pt x="342" y="256" on="1"/>
        <pt x="382" y="305" on="0"/>
        <pt x="473" y="385" on="0"/>
        <pt x="522" y="415" on="1"/>
        <pt x="538" y="408" on="0"/>
        <pt x="563" y="384" on="0"/>
        <pt x="577" y="362" on="1"/>
        <pt x="561" y="312" on="0"/>
        <pt x="545" y="204" on="0"/>
      </contour>
      <contour>
        <pt x="111" y="363" on="1"/>
        <pt x="168" y="334" on="0"/>
        <pt x="246" y="253" on="0"/>
        <pt x="267" y="200" on="1"/>
        <pt x="285" y="268" on="0"/>
        <pt x="309" y="405" on="0"/>
        <pt x="315" y="469" on="1"/>
        <pt x="227" y="429" on="0"/>
        <pt x="140" y="383" on="0"/>
      </contour>
    </TTGlyph>
    <TTGlyph name="bn_b_da_ukaar" xMin="-5" yMin="-19" xMax="652" yMax="626">
      <contour>
        <pt x="318" y="79" on="1"/>
        <pt x="316" y="99" on="0"/>
        <pt x="315" y="152" on="0"/>
        <pt x="315" y="185" on="1"/>
        <pt x="315" y="247" on="0"/>
        <pt x="320" y="362" on="0"/>
        <pt x="326" y="421" on="1"/>
        <pt x="272" y="395" on="0"/>
        <pt x="150" y="308" on="0"/>
        <pt x="108" y="264" on="1"/>
        <pt x="175" y="235" on="0"/>
        <pt x="281" y="142" on="0"/>
      </contour>
      <contour>
        <pt x="378" y="241" on="1"/>
        <pt x="379" y="166" on="0"/>
        <pt x="392" y="38" on="0"/>
        <pt x="404" y="-4" on="1"/>
        <pt x="392" y="-11" on="0"/>
        <pt x="355" y="-19" on="0"/>
        <pt x="334" y="-19" on="1"/>
        <pt x="282" y="79" on="0"/>
        <pt x="150" y="194" on="0"/>
        <pt x="66" y="213" on="1"/>
        <pt x="50" y="231" on="0"/>
        <pt x="35" y="266" on="0"/>
        <pt x="33" y="289" on="1"/>
        <pt x="80" y="346" on="0"/>
        <pt x="248" y="465" on="0"/>
        <pt x="337" y="505" on="1"/>
        <pt x="339" y="519" on="0"/>
        <pt x="344" y="548" on="0"/>
        <pt x="346" y="562" on="1"/>
        <pt x="339" y="563" on="0"/>
        <pt x="321" y="563" on="0"/>
        <pt x="304" y="563" on="1"/>
        <pt x="231" y="563" on="0"/>
        <pt x="72" y="545" on="0"/>
        <pt x="0" y="530" on="1"/>
        <pt x="-2" y="536" on="0"/>
        <pt x="-5" y="554" on="0"/>
        <pt x="-5" y="562" on="1"/>
        <pt x="-5" y="569" on="0"/>
        <pt x="-2" y="585" on="0"/>
        <pt x="0" y="589" on="1"/>
        <pt x="67" y="606" on="0"/>
        <pt x="230" y="626" on="0"/>
        <pt x="305" y="626" on="1"/>
        <pt x="394" y="626" on="0"/>
        <pt x="581" y="605" on="0"/>
        <pt x="646" y="589" on="1"/>
        <pt x="649" y="585" on="0"/>
        <pt x="652" y="569" on="0"/>
        <pt x="652" y="561" on="1"/>
        <pt x="652" y="554" on="0"/>
        <pt x="649" y="537" on="0"/>
        <pt x="646" y="530" on="1"/>
        <pt x="598" y="541" on="0"/>
        <pt x="467" y="557" on="0"/>
        <pt x="399" y="560" on="1"/>
        <pt x="387" y="491" on="0"/>
        <pt x="378" y="384" on="0"/>
        <pt x="377" y="321" on="1"/>
        <pt x="393" y="274" on="0"/>
        <pt x="454" y="218" on="0"/>
        <pt x="489" y="218" on="1"/>
        <pt x="525" y="218" on="0"/>
        <pt x="571" y="275" on="0"/>
        <pt x="571" y="320" on="1"/>
        <pt x="571" y="354" on="0"/>
        <pt x="544" y="395" on="0"/>
        <pt x="522" y="395" on="1"/>
        <pt x="502" y="395" on="0"/>
        <pt x="472" y="358" on="0"/>
        <pt x="465" y="327" on="1"/>
        <pt x="455" y="340" on="0"/>
        <pt x="438" y="380" on="0"/>
        <pt x="436" y="398" on="1"/>
        <pt x="448" y="425" on="0"/>
        <pt x="491" y="456" on="0"/>
        <pt x="518" y="456" on="1"/>
        <pt x="563" y="456" on="0"/>
        <pt x="623" y="375" on="0"/>
        <pt x="623" y="312" on="1"/>
        <pt x="623" y="242" on="0"/>
        <pt x="554" y="152" on="0"/>
        <pt x="499" y="152" on="1"/>
        <pt x="462" y="152" on="0"/>
        <pt x="399" y="198" on="0"/>
      </contour>
    </TTGlyph>
    <TTGlyph name="bn_b_da_uukaar" xMin="-5" yMin="-19" xMax="652" yMax="626">
      <contour>
        <pt x="318" y="79" on="1"/>
        <pt x="316" y="99" on="0"/>
        <pt x="315" y="152" on="0"/>
        <pt x="315" y="185" on="1"/>
        <pt x="315" y="247" on="0"/>
        <pt x="320" y="362" on="0"/>
        <pt x="326" y="421" on="1"/>
        <pt x="272" y="395" on="0"/>
        <pt x="150" y="308" on="0"/>
        <pt x="108" y="264" on="1"/>
        <pt x="175" y="235" on="0"/>
        <pt x="281" y="142" on="0"/>
      </contour>
      <contour>
        <pt x="377" y="292" on="1"/>
        <pt x="377" y="197" on="0"/>
        <pt x="391" y="43" on="0"/>
        <pt x="404" y="-4" on="1"/>
        <pt x="392" y="-11" on="0"/>
        <pt x="355" y="-19" on="0"/>
        <pt x="334" y="-19" on="1"/>
        <pt x="282" y="79" on="0"/>
        <pt x="150" y="194" on="0"/>
        <pt x="66" y="213" on="1"/>
        <pt x="50" y="231" on="0"/>
        <pt x="35" y="266" on="0"/>
        <pt x="33" y="289" on="1"/>
        <pt x="80" y="346" on="0"/>
        <pt x="248" y="465" on="0"/>
        <pt x="337" y="505" on="1"/>
        <pt x="339" y="519" on="0"/>
        <pt x="344" y="548" on="0"/>
        <pt x="346" y="562" on="1"/>
        <pt x="339" y="563" on="0"/>
        <pt x="321" y="563" on="0"/>
        <pt x="304" y="563" on="1"/>
        <pt x="231" y="563" on="0"/>
        <pt x="72" y="545" on="0"/>
        <pt x="0" y="530" on="1"/>
        <pt x="-2" y="536" on="0"/>
        <pt x="-5" y="554" on="0"/>
        <pt x="-5" y="562" on="1"/>
        <pt x="-5" y="569" on="0"/>
        <pt x="-2" y="585" on="0"/>
        <pt x="0" y="589" on="1"/>
        <pt x="67" y="606" on="0"/>
        <pt x="230" y="626" on="0"/>
        <pt x="305" y="626" on="1"/>
        <pt x="394" y="626" on="0"/>
        <pt x="581" y="605" on="0"/>
        <pt x="646" y="589" on="1"/>
        <pt x="649" y="585" on="0"/>
        <pt x="652" y="569" on="0"/>
        <pt x="652" y="561" on="1"/>
        <pt x="652" y="554" on="0"/>
        <pt x="649" y="537" on="0"/>
        <pt x="646" y="530" on="1"/>
        <pt x="598" y="541" on="0"/>
        <pt x="467" y="557" on="0"/>
        <pt x="399" y="560" on="1"/>
        <pt x="393" y="526" on="0"/>
        <pt x="384" y="458" on="0"/>
        <pt x="381" y="415" on="1"/>
        <pt x="424" y="435" on="0"/>
        <pt x="495" y="464" on="0"/>
        <pt x="527" y="475" on="1"/>
        <pt x="557" y="423" on="1"/>
        <pt x="551" y="391" on="0"/>
        <pt x="544" y="332" on="0"/>
        <pt x="544" y="305" on="1"/>
        <pt x="544" y="252" on="0"/>
        <pt x="562" y="159" on="0"/>
        <pt x="580" y="116" on="1"/>
        <pt x="570" y="110" on="0"/>
        <pt x="535" y="104" on="0"/>
        <pt x="514" y="104" on="1"/>
        <pt x="502" y="148" on="0"/>
        <pt x="489" y="242" on="0"/>
        <pt x="489" y="290" on="1"/>
        <pt x="489" y="317" on="0"/>
        <pt x="494" y="371" on="0"/>
        <pt x="498" y="398" on="1"/>
        <pt x="477" y="390" on="0"/>
        <pt x="427" y="368" on="0"/>
        <pt x="378" y="344" on="1"/>
        <pt x="377" y="336" on="0"/>
        <pt x="377" y="314" on="0"/>
      </contour>
    </TTGlyph>
    <TTGlyph name="bn_b_dha" xMin="-5" yMin="-118" xMax="584" yMax="624">
      <contour>
        <pt x="343" y="314" on="1"/>
        <pt x="343" y="324" on="0"/>
        <pt x="343" y="343" on="0"/>
        <pt x="343" y="352" on="1"/>
        <pt x="343" y="371" on="0"/>
        <pt x="342" y="416" on="0"/>
        <pt x="341" y="453" on="1"/>
        <pt x="291" y="432" on="0"/>
        <pt x="161" y="346" on="0"/>
        <pt x="118" y="304" on="1"/>
        <pt x="185" y="280" on="0"/>
        <pt x="218" y="264" on="0"/>
        <pt x="232" y="255" on="1"/>
        <pt x="259" y="271" on="0"/>
        <pt x="315" y="301" on="0"/>
      </contour>
      <contour>
        <pt x="495" y="-106" on="1"/>
        <pt x="482" y="-43" on="0"/>
        <pt x="469" y="84" on="0"/>
        <pt x="469" y="146" on="1"/>
        <pt x="469" y="185" on="0"/>
        <pt x="474" y="264" on="0"/>
        <pt x="478" y="303" on="1"/>
        <pt x="459" y="296" on="0"/>
        <pt x="417" y="278" on="0"/>
        <pt x="396" y="268" on="1"/>
        <pt x="391" y="146" on="0"/>
        <pt x="364" y="-65" on="0"/>
        <pt x="344" y="-118" on="1"/>
        <pt x="330" y="-118" on="0"/>
        <pt x="294" y="-112" on="0"/>
        <pt x="277" y="-107" on="1"/>
        <pt x="251" y="-34" on="0"/>
        <pt x="165" y="57" on="0"/>
        <pt x="104" y="77" on="1"/>
        <pt x="90" y="91" on="0"/>
        <pt x="75" y="125" on="0"/>
        <pt x="74" y="144" on="1"/>
        <pt x="95" y="163" on="0"/>
        <pt x="154" y="206" on="0"/>
        <pt x="187" y="228" on="1"/>
        <pt x="176" y="233" on="0"/>
        <pt x="150" y="241" on="0"/>
        <pt x="133" y="245" on="1"/>
        <pt x="123" y="248" on="0"/>
        <pt x="85" y="256" on="0"/>
        <pt x="76" y="258" on="1"/>
        <pt x="62" y="273" on="0"/>
        <pt x="48" y="305" on="0"/>
        <pt x="46" y="326" on="1"/>
        <pt x="86" y="374" on="0"/>
        <pt x="251" y="486" on="0"/>
        <pt x="335" y="523" on="1"/>
        <pt x="333" y="539" on="0"/>
        <pt x="330" y="554" on="0"/>
        <pt x="328" y="560" on="1"/>
        <pt x="321" y="561" on="0"/>
        <pt x="304" y="561" on="0"/>
        <pt x="287" y="561" on="1"/>
        <pt x="214" y="561" on="0"/>
        <pt x="68" y="545" on="0"/>
        <pt x="0" y="530" on="1"/>
        <pt x="-2" y="535" on="0"/>
        <pt x="-5" y="552" on="0"/>
        <pt x="-5" y="561" on="1"/>
        <pt x="-5" y="569" on="0"/>
        <pt x="-2" y="585" on="0"/>
        <pt x="0" y="589" on="1"/>
        <pt x="66" y="606" on="0"/>
        <pt x="214" y="624" on="0"/>
        <pt x="288" y="624" on="1"/>
        <pt x="363" y="624" on="0"/>
        <pt x="514" y="606" on="0"/>
        <pt x="579" y="589" on="1"/>
        <pt x="581" y="584" on="0"/>
        <pt x="584" y="569" on="0"/>
        <pt x="584" y="561" on="1"/>
        <pt x="584" y="553" on="0"/>
        <pt x="581" y="536" on="0"/>
        <pt x="579" y="530" on="1"/>
        <pt x="531" y="541" on="0"/>
        <pt x="431" y="555" on="0"/>
        <pt x="381" y="558" on="1"/>
        <pt x="389" y="520" on="0"/>
        <pt x="398" y="404" on="0"/>
        <pt x="398" y="349" on="1"/>
        <pt x="398" y="346" on="0"/>
        <pt x="398" y="340" on="0"/>
        <pt x="398" y="337" on="1"/>
        <pt x="421" y="347" on="0"/>
        <pt x="472" y="367" on="0"/>
        <pt x="500" y="376" on="1"/>
        <pt x="537" y="324" on="1"/>
        <pt x="530" y="282" on="0"/>
        <pt x="524" y="203" on="0"/>
        <pt x="524" y="166" on="1"/>
        <pt x="524" y="96" on="0"/>
        <pt x="542" y="-30" on="0"/>
        <pt x="561" y="-90" on="1"/>
        <pt x="550" y="-97" on="0"/>
        <pt x="514" y="-106" on="0"/>
      </contour>
      <contour>
        <pt x="145" y="119" on="1"/>
        <pt x="196" y="92" on="0"/>
        <pt x="272" y="2" on="0"/>
        <pt x="294" y="-57" on="1"/>
        <pt x="311" y="4" on="0"/>
        <pt x="335" y="159" on="0"/>
        <pt x="340" y="245" on="1"/>
        <pt x="291" y="219" on="0"/>
        <pt x="183" y="149" on="0"/>
      </contour>
    </TTGlyph>
    <TTGlyph name="bn_b_ja" xMin="-5" yMin="-13" xMax="695" yMax="627">
      <contour>
        <pt x="182" y="364" on="1"/>
        <pt x="182" y="367" on="0"/>
        <pt x="182" y="372" on="0"/>
        <pt x="182" y="374" on="1"/>
        <pt x="182" y="397" on="0"/>
        <pt x="196" y="455" on="0"/>
        <pt x="209" y="486" on="1"/>
        <pt x="145" y="459" on="0"/>
        <pt x="94" y="434" on="0"/>
        <pt x="75" y="422" on="1"/>
        <pt x="105" y="413" on="0"/>
        <pt x="158" y="384" on="0"/>
      </contour>
      <contour>
        <pt x="639" y="0" on="1"/>
        <pt x="627" y="-5" on="0"/>
        <pt x="585" y="-13" on="0"/>
        <pt x="570" y="-13" on="1"/>
        <pt x="559" y="30" on="0"/>
        <pt x="547" y="131" on="0"/>
        <pt x="547" y="183" on="1"/>
        <pt x="547" y="241" on="0"/>
        <pt x="564" y="356" on="0"/>
        <pt x="579" y="405" on="1"/>
        <pt x="565" y="401" on="0"/>
        <pt x="535" y="396" on="0"/>
        <pt x="519" y="396" on="1"/>
        <pt x="452" y="396" on="0"/>
        <pt x="348" y="481" on="0"/>
        <pt x="319" y="558" on="1"/>
        <pt x="285" y="513" on="0"/>
        <pt x="237" y="398" on="0"/>
        <pt x="237" y="361" on="1"/>
        <pt x="237" y="335" on="0"/>
        <pt x="261" y="308" on="0"/>
        <pt x="284" y="308" on="1"/>
        <pt x="310" y="308" on="0"/>
        <pt x="383" y="349" on="0"/>
        <pt x="416" y="383" on="1"/>
        <pt x="427" y="377" on="0"/>
        <pt x="453" y="358" on="0"/>
        <pt x="463" y="348" on="1"/>
        <pt x="473" y="315" on="0"/>
        <pt x="484" y="240" on="0"/>
        <pt x="484" y="204" on="1"/>
        <pt x="484" y="105" on="0"/>
        <pt x="394" y="-8" on="0"/>
        <pt x="315" y="-8" on="1"/>
        <pt x="218" y="-8" on="0"/>
        <pt x="82" y="145" on="0"/>
        <pt x="47" y="290" on="1"/>
        <pt x="55" y="295" on="0"/>
        <pt x="77" y="307" on="0"/>
        <pt x="98" y="315" on="1"/>
        <pt x="128" y="189" on="0"/>
        <pt x="238" y="61" on="0"/>
        <pt x="316" y="61" on="1"/>
        <pt x="375" y="61" on="0"/>
        <pt x="434" y="144" on="0"/>
        <pt x="434" y="226" on="1"/>
        <pt x="434" y="246" on="0"/>
        <pt x="431" y="287" on="0"/>
        <pt x="428" y="306" on="1"/>
        <pt x="393" y="277" on="0"/>
        <pt x="329" y="247" on="0"/>
        <pt x="300" y="247" on="1"/>
        <pt x="276" y="247" on="0"/>
        <pt x="231" y="268" on="0"/>
        <pt x="214" y="286" on="1"/>
        <pt x="214" y="286" on="1"/>
        <pt x="178" y="326" on="0"/>
        <pt x="95" y="367" on="0"/>
        <pt x="29" y="375" on="1"/>
        <pt x="19" y="390" on="0"/>
        <pt x="9" y="422" on="0"/>
        <pt x="9" y="441" on="1"/>
        <pt x="34" y="463" on="0"/>
        <pt x="139" y="518" on="0"/>
        <pt x="245" y="561" on="1"/>
        <pt x="183" y="558" on="0"/>
        <pt x="56" y="542" on="0"/>
        <pt x="0" y="530" on="1"/>
        <pt x="-2" y="537" on="0"/>
        <pt x="-5" y="555" on="0"/>
        <pt x="-5" y="564" on="1"/>
        <pt x="-5" y="571" on="0"/>
        <pt x="-2" y="584" on="0"/>
        <pt x="0" y="589" on="1"/>
        <pt x="66" y="606" on="0"/>
        <pt x="256" y="627" on="0"/>
        <pt x="346" y="627" on="1"/>
        <pt x="436" y="627" on="0"/>
        <pt x="624" y="606" on="0"/>
        <pt x="690" y="589" on="1"/>
        <pt x="692" y="585" on="0"/>
        <pt x="695" y="570" on="0"/>
        <pt x="695" y="563" on="1"/>
        <pt x="695" y="556" on="0"/>
        <pt x="693" y="542" on="0"/>
        <pt x="690" y="530" on="1"/>
        <pt x="617" y="545" on="0"/>
        <pt x="447" y="563" on="0"/>
        <pt x="368" y="564" on="1"/>
        <pt x="394" y="507" on="0"/>
        <pt x="459" y="459" on="0"/>
        <pt x="506" y="459" on="1"/>
        <pt x="531" y="459" on="0"/>
        <pt x="578" y="472" on="0"/>
        <pt x="601" y="484" on="1"/>
        <pt x="614" y="474" on="0"/>
        <pt x="635" y="443" on="0"/>
        <pt x="641" y="425" on="1"/>
        <pt x="625" y="379" on="0"/>
        <pt x="610" y="277" on="0"/>
        <pt x="610" y="220" on="1"/>
        <pt x="610" y="166" on="0"/>
        <pt x="625" y="55" on="0"/>
      </contour>
    </TTGlyph>
    <TTGlyph name="bn_b_la" xMin="-15" yMin="-237" xMax="472" yMax="619">
      <contour>
        <pt x="317" y="95" on="1"/>
        <pt x="316" y="110" on="0"/>
        <pt x="316" y="147" on="0"/>
        <pt x="316" y="188" on="1"/>
        <pt x="316" y="255" on="0"/>
        <pt x="319" y="367" on="0"/>
        <pt x="323" y="422" on="1"/>
        <pt x="271" y="397" on="0"/>
        <pt x="159" y="316" on="0"/>
        <pt x="121" y="277" on="1"/>
        <pt x="190" y="245" on="0"/>
        <pt x="290" y="153" on="0"/>
      </contour>
      <contour>
        <pt x="176" y="-169" on="1"/>
        <pt x="176" y="-185" on="0"/>
        <pt x="165" y="-222" on="0"/>
        <pt x="157" y="-235" on="1"/>
        <pt x="85" y="-237" on="0"/>
        <pt x="-15" y="-150" on="0"/>
        <pt x="-15" y="-84" on="1"/>
        <pt x="-15" y="-27" on="0"/>
        <pt x="41" y="44" on="0"/>
        <pt x="86" y="44" on="1"/>
        <pt x="110" y="44" on="0"/>
        <pt x="156" y="14" on="0"/>
        <pt x="178" y="-17" on="1"/>
        <pt x="185" y="11" on="0"/>
        <pt x="221" y="44" on="0"/>
        <pt x="244" y="44" on="1"/>
        <pt x="269" y="44" on="0"/>
        <pt x="306" y="12" on="0"/>
        <pt x="319" y="-21" on="1"/>
        <pt x="299" y="73" on="0"/>
        <pt x="172" y="203" on="0"/>
        <pt x="79" y="228" on="1"/>
        <pt x="64" y="244" on="0"/>
        <pt x="49" y="279" on="0"/>
        <pt x="46" y="303" on="1"/>
        <pt x="89" y="354" on="0"/>
        <pt x="245" y="464" on="0"/>
        <pt x="330" y="502" on="1"/>
        <pt x="330" y="506" on="0"/>
        <pt x="331" y="516" on="0"/>
        <pt x="332" y="525" on="1"/>
        <pt x="333" y="536" on="0"/>
        <pt x="334" y="546" on="0"/>
        <pt x="334" y="551" on="1"/>
        <pt x="309" y="554" on="0"/>
        <pt x="264" y="556" on="0"/>
        <pt x="244" y="556" on="1"/>
        <pt x="188" y="556" on="0"/>
        <pt x="56" y="542" on="0"/>
        <pt x="0" y="530" on="1"/>
        <pt x="-2" y="536" on="0"/>
        <pt x="-5" y="553" on="0"/>
        <pt x="-5" y="562" on="1"/>
        <pt x="-5" y="570" on="0"/>
        <pt x="-2" y="584" on="0"/>
        <pt x="0" y="589" on="1"/>
        <pt x="50" y="602" on="0"/>
        <pt x="188" y="619" on="0"/>
        <pt x="248" y="619" on="1"/>
        <pt x="301" y="619" on="0"/>
        <pt x="422" y="602" on="0"/>
        <pt x="467" y="589" on="1"/>
        <pt x="469" y="585" on="0"/>
        <pt x="472" y="570" on="0"/>
        <pt x="472" y="563" on="1"/>
        <pt x="472" y="556" on="0"/>
        <pt x="470" y="543" on="0"/>
        <pt x="467" y="530" on="1"/>
        <pt x="448" y="534" on="0"/>
        <pt x="408" y="541" on="0"/>
        <pt x="388" y="544" on="1"/>
        <pt x="382" y="480" on="0"/>
        <pt x="377" y="365" on="0"/>
        <pt x="377" y="284" on="1"/>
        <pt x="377" y="101" on="0"/>
        <pt x="390" y="-140" on="0"/>
        <pt x="404" y="-215" on="1"/>
        <pt x="391" y="-220" on="0"/>
        <pt x="355" y="-226" on="0"/>
        <pt x="334" y="-226" on="1"/>
        <pt x="334" y="-222" on="0"/>
        <pt x="333" y="-206" on="0"/>
        <pt x="332" y="-202" on="1"/>
        <pt x="322" y="-110" on="0"/>
        <pt x="282" y="-17" on="0"/>
        <pt x="253" y="-17" on="1"/>
        <pt x="238" y="-17" on="0"/>
        <pt x="218" y="-40" on="0"/>
        <pt x="218" y="-58" on="1"/>
        <pt x="218" y="-64" on="0"/>
        <pt x="221" y="-74" on="0"/>
        <pt x="224" y="-79" on="1"/>
        <pt x="238" y="-104" on="1"/>
        <pt x="228" y="-111" on="0"/>
        <pt x="201" y="-122" on="0"/>
        <pt x="186" y="-126" on="1"/>
        <pt x="159" y="-81" on="1"/>
        <pt x="140" y="-52" on="0"/>
        <pt x="104" y="-23" on="0"/>
        <pt x="85" y="-23" on="1"/>
        <pt x="60" y="-23" on="0"/>
        <pt x="31" y="-61" on="0"/>
        <pt x="31" y="-93" on="1"/>
        <pt x="31" y="-129" on="0"/>
        <pt x="90" y="-172" on="0"/>
        <pt x="137" y="-172" on="1"/>
        <pt x="146" y="-172" on="0"/>
        <pt x="166" y="-171" on="0"/>
      </contour>
    </TTGlyph>
    <TTGlyph name="bn_b_ra" xMin="-18" yMin="-220" xMax="472" yMax="619">
      <contour>
        <pt x="317" y="95" on="1"/>
        <pt x="316" y="110" on="0"/>
        <pt x="316" y="147" on="0"/>
        <pt x="316" y="188" on="1"/>
        <pt x="316" y="255" on="0"/>
        <pt x="319" y="367" on="0"/>
        <pt x="323" y="422" on="1"/>
        <pt x="271" y="397" on="0"/>
        <pt x="159" y="316" on="0"/>
        <pt x="121" y="277" on="1"/>
        <pt x="190" y="245" on="0"/>
        <pt x="290" y="153" on="0"/>
      </contour>
      <contour>
        <pt x="403" y="-209" on="1"/>
        <pt x="390" y="-214" on="0"/>
        <pt x="354" y="-220" on="0"/>
        <pt x="333" y="-220" on="1"/>
        <pt x="318" y="-203" on="0"/>
        <pt x="297" y="-182" on="0"/>
        <pt x="291" y="-178" on="1"/>
        <pt x="279" y="-170" on="0"/>
        <pt x="250" y="-163" on="0"/>
        <pt x="233" y="-163" on="1"/>
        <pt x="221" y="-163" on="0"/>
        <pt x="195" y="-165" on="0"/>
        <pt x="168" y="-168" on="1"/>
        <pt x="141" y="-172" on="0"/>
        <pt x="113" y="-174" on="0"/>
        <pt x="101" y="-174" on="1"/>
        <pt x="46" y="-174" on="0"/>
        <pt x="-18" y="-112" on="0"/>
        <pt x="-18" y="-60" on="1"/>
        <pt x="-18" y="-39" on="0"/>
        <pt x="-6" y="7" on="0"/>
        <pt x="11" y="44" on="1"/>
        <pt x="25" y="44" on="0"/>
        <pt x="49" y="36" on="0"/>
        <pt x="60" y="28" on="1"/>
        <pt x="50" y="9" on="0"/>
        <pt x="39" y="-31" on="0"/>
        <pt x="39" y="-49" on="1"/>
        <pt x="39" y="-79" on="0"/>
        <pt x="74" y="-111" on="0"/>
        <pt x="106" y="-111" on="1"/>
        <pt x="115" y="-111" on="0"/>
        <pt x="136" y="-109" on="0"/>
        <pt x="159" y="-106" on="1"/>
        <pt x="185" y="-103" on="0"/>
        <pt x="213" y="-101" on="0"/>
        <pt x="226" y="-101" on="1"/>
        <pt x="258" y="-101" on="0"/>
        <pt x="307" y="-126" on="0"/>
        <pt x="327" y="-152" on="1"/>
        <pt x="324" y="-116" on="0"/>
        <pt x="320" y="-53" on="0"/>
        <pt x="319" y="-19" on="1"/>
        <pt x="296" y="75" on="0"/>
        <pt x="169" y="204" on="0"/>
        <pt x="79" y="228" on="1"/>
        <pt x="64" y="244" on="0"/>
        <pt x="49" y="279" on="0"/>
        <pt x="46" y="303" on="1"/>
        <pt x="89" y="354" on="0"/>
        <pt x="245" y="464" on="0"/>
        <pt x="330" y="502" on="1"/>
        <pt x="330" y="506" on="0"/>
        <pt x="331" y="516" on="0"/>
        <pt x="332" y="525" on="1"/>
        <pt x="333" y="536" on="0"/>
        <pt x="334" y="546" on="0"/>
        <pt x="334" y="551" on="1"/>
        <pt x="309" y="554" on="0"/>
        <pt x="264" y="556" on="0"/>
        <pt x="244" y="556" on="1"/>
        <pt x="188" y="556" on="0"/>
        <pt x="56" y="542" on="0"/>
        <pt x="0" y="530" on="1"/>
        <pt x="-2" y="536" on="0"/>
        <pt x="-5" y="553" on="0"/>
        <pt x="-5" y="562" on="1"/>
        <pt x="-5" y="570" on="0"/>
        <pt x="-2" y="584" on="0"/>
        <pt x="0" y="589" on="1"/>
        <pt x="50" y="602" on="0"/>
        <pt x="188" y="619" on="0"/>
        <pt x="248" y="619" on="1"/>
        <pt x="301" y="619" on="0"/>
        <pt x="422" y="602" on="0"/>
        <pt x="467" y="589" on="1"/>
        <pt x="469" y="585" on="0"/>
        <pt x="472" y="570" on="0"/>
        <pt x="472" y="563" on="1"/>
        <pt x="472" y="556" on="0"/>
        <pt x="470" y="543" on="0"/>
        <pt x="467" y="530" on="1"/>
        <pt x="448" y="534" on="0"/>
        <pt x="408" y="541" on="0"/>
        <pt x="388" y="544" on="1"/>
        <pt x="382" y="480" on="0"/>
        <pt x="377" y="365" on="0"/>
        <pt x="377" y="284" on="1"/>
        <pt x="377" y="104" on="0"/>
        <pt x="390" y="-135" on="0"/>
      </contour>
    </TTGlyph>
</ttFont>
